<svg xmlns="http://www.w3.org/2000/svg" viewBox="0 0 500 500"><g id="freepik--background-complete--inject-6"><g><path d="M379.24,459.78c-.13,.07-1.85-3.04-3.85-6.93-2-3.89-3.52-7.1-3.39-7.17,.13-.07,1.85,3.04,3.85,6.93,2,3.89,3.52,7.1,3.39,7.17Z" style="fill:#e0e0e0;"></path><path d="M384.16,457.51c-.14,.05-1.37-3.06-2.76-6.95-1.39-3.89-2.41-7.08-2.27-7.12s1.37,3.06,2.76,6.95c1.39,3.89,2.4,7.08,2.27,7.12Z" style="fill:#e0e0e0;"></path><path d="M389.08,457.5c-.14-.01,0-3.69,.32-8.21,.32-4.53,.69-8.18,.84-8.17,.14,.01,0,3.69-.32,8.21-.32,4.52-.69,8.18-.84,8.17Z" style="fill:#e0e0e0;"></path></g><g><path d="M45.97,322.69c-.13,.07-1.85-3.04-3.85-6.93-2-3.89-3.52-7.1-3.39-7.17s1.85,3.04,3.85,6.93c2,3.89,3.52,7.1,3.39,7.17Z" style="fill:#e0e0e0;"></path><path d="M50.89,320.42c-.14,.05-1.37-3.06-2.76-6.95-1.39-3.89-2.41-7.08-2.27-7.12,.14-.05,1.37,3.06,2.76,6.95,1.39,3.89,2.4,7.08,2.27,7.12Z" style="fill:#e0e0e0;"></path><path d="M55.81,320.4c-.14-.01,0-3.69,.32-8.21,.32-4.53,.69-8.18,.84-8.17,.14,.01,0,3.69-.32,8.21-.32,4.52-.69,8.18-.84,8.17Z" style="fill:#e0e0e0;"></path></g><g><path d="M309.69,338.82c-.13,.07-1.85-3.04-3.85-6.93-2-3.89-3.52-7.1-3.39-7.17,.13-.07,1.85,3.04,3.85,6.93,2,3.89,3.52,7.1,3.39,7.17Z" style="fill:#e0e0e0;"></path><path d="M314.61,336.55c-.14,.05-1.37-3.06-2.76-6.95-1.39-3.89-2.41-7.08-2.27-7.12,.14-.05,1.37,3.06,2.76,6.95,1.39,3.89,2.4,7.07,2.27,7.12Z" style="fill:#e0e0e0;"></path><path d="M319.53,336.54c-.14,0,0-3.69,.32-8.21,.32-4.53,.69-8.18,.84-8.17,.14,.01,0,3.69-.32,8.21-.32,4.52-.69,8.18-.84,8.17Z" style="fill:#e0e0e0;"></path></g><g><path d="M452.69,275.16c-.13,.07-1.85-3.04-3.85-6.93-2-3.89-3.52-7.1-3.39-7.17,.13-.07,1.85,3.04,3.85,6.93,2,3.89,3.52,7.1,3.39,7.17Z" style="fill:#e0e0e0;"></path><path d="M457.6,272.89c-.14,.05-1.37-3.06-2.76-6.95-1.39-3.89-2.41-7.08-2.27-7.12,.14-.05,1.37,3.06,2.76,6.95,1.39,3.89,2.4,7.08,2.27,7.12Z" style="fill:#e0e0e0;"></path><path d="M462.53,272.88c-.14-.01,0-3.69,.32-8.21,.32-4.53,.69-8.18,.84-8.17,.14,.01,0,3.69-.32,8.21-.32,4.52-.69,8.18-.84,8.17Z" style="fill:#e0e0e0;"></path></g><g><path d="M212.52,263.36c-.13,.07-1.85-3.04-3.85-6.93-2-3.89-3.52-7.1-3.39-7.17,.13-.07,1.85,3.04,3.85,6.93,2,3.89,3.52,7.1,3.39,7.17Z" style="fill:#e0e0e0;"></path><path d="M217.43,261.09c-.14,.05-1.37-3.06-2.76-6.95-1.39-3.89-2.41-7.08-2.27-7.12,.14-.05,1.37,3.06,2.76,6.95,1.39,3.89,2.4,7.07,2.27,7.12Z" style="fill:#e0e0e0;"></path><path d="M222.36,261.08c-.14-.01,0-3.69,.32-8.21,.32-4.53,.69-8.18,.84-8.17,.14,.01,0,3.69-.32,8.21-.32,4.52-.69,8.18-.84,8.17Z" style="fill:#e0e0e0;"></path></g><g><path d="M57.56,447.75c-.13,.07-1.85-3.04-3.85-6.93-2-3.89-3.52-7.1-3.39-7.17,.13-.07,1.85,3.04,3.85,6.93,2,3.89,3.52,7.1,3.39,7.17Z" style="fill:#e0e0e0;"></path><path d="M62.47,445.48c-.14,.05-1.37-3.06-2.76-6.95-1.39-3.89-2.41-7.08-2.27-7.12s1.37,3.06,2.76,6.95c1.39,3.89,2.4,7.07,2.27,7.12Z" style="fill:#e0e0e0;"></path><path d="M67.39,445.47c-.14-.01,0-3.69,.32-8.21,.32-4.53,.69-8.18,.84-8.17,.14,.01,0,3.69-.32,8.21-.32,4.52-.69,8.18-.84,8.17Z" style="fill:#e0e0e0;"></path></g><path d="M232.54,87.1c-1.05-2.81-2.13-5.66-3.9-8.09-1.77-2.42-4.36-4.41-7.34-4.78-2.98-.36-6.28,1.24-7.25,4.09-.43-6.4-1.33-12.97-4.54-18.53-3.21-5.56-9.19-9.93-15.59-9.54-6.04,.37-11.21,4.86-14.08,10.18-2.87,5.33-3.86,11.43-4.8,17.41-2.29-2.81-7.12-1.93-9.51,.8-2.39,2.73-2.99,6.53-3.5,10.12h72.03l-1.5-1.67Z" style="fill:#f5f5f5;"></path><path d="M151.29,53.93c-.71-1.88-1.42-3.79-2.61-5.41-1.19-1.62-2.92-2.95-4.91-3.2s-4.21,.83-4.86,2.74c-.29-4.29-.89-8.68-3.04-12.41-2.15-3.72-6.15-6.65-10.44-6.38-4.04,.25-7.51,3.25-9.43,6.82-1.92,3.57-2.58,7.65-3.22,11.66-1.53-1.88-4.77-1.29-6.37,.53-1.6,1.82-2,4.37-2.34,6.78h48.22l-1.01-1.12Z" style="fill:#f5f5f5;"></path><path d="M412.6,68.12c-.48-1.29-.98-2.61-1.79-3.72-.82-1.12-2.01-2.03-3.38-2.2-1.37-.17-2.89,.57-3.34,1.88-.2-2.95-.61-5.97-2.09-8.53-1.47-2.56-4.23-4.57-7.17-4.39-2.78,.17-5.16,2.23-6.48,4.69-1.32,2.45-1.78,5.26-2.21,8.01-1.05-1.29-3.28-.89-4.38,.37-1.1,1.25-1.38,3.01-1.61,4.66h33.15l-.69-.77Z" style="fill:#f5f5f5;"></path><path d="M329.33,42.88c-.65-1.74-1.32-3.5-2.41-5-1.1-1.5-2.7-2.73-4.54-2.95-1.84-.23-3.89,.77-4.49,2.53-.26-3.96-.83-8.02-2.81-11.46-1.98-3.44-5.68-6.14-9.64-5.9-3.74,.23-6.93,3-8.71,6.3-1.78,3.29-2.39,7.07-2.97,10.77-1.42-1.74-4.41-1.19-5.88,.49-1.48,1.69-1.85,4.04-2.17,6.26h44.55l-.93-1.03Z" style="fill:#f5f5f5;"></path></g><g id="freepik--Floor--inject-6"><path d="M476.76,225.21c0,.14-102.87,.26-229.75,.26s-229.77-.12-229.77-.26,102.85-.26,229.77-.26,229.75,.12,229.75,.26Z" style="fill:#263238;"></path></g><g id="freepik--Trees--inject-6"><g><g><rect x="298.34" y="196.05" width="8.58" height="29.51" transform="translate(605.27 421.61) rotate(180)" style="fill:#6f4439;"></rect><path d="M335.18,195.95s-.42-.28,.51-1.5c.93-1.22-.51-1.87-.51-1.87-4.06,2.34-9.72,0-9.72,0,0,0,6.68-2.06,7.52-4.03,.63-1.47-.48-1.63-1.09-1.62,.68-.07,2.16-.31,2.61-1.1,.59-1.03-1.73-2.25-1.73-2.25,0,0,.38-.56,0-1.59-.38-1.03-9.09-2.53-9.09-2.53,2.54,.28,3.46-2.25,3.46-2.25,0,0,4.31,.09,5.32-1.59,1.01-1.69-.68-2.15-3.55-3.56-2.87-1.4-9.21-6.65-9.21-6.65,0,0,3.97-.37,5.07-1.31,1.1-.94,.08-1.12,.08-1.12,4.73,.47,3.13-2.06,3.13-2.06-6.34-1.97-9.72-6.28-9.72-6.28,0,0,2.96-.66,4.48-2.06,1.52-1.4-1.27-1.78-1.27-1.78,0,0,5.58-.75,2.37-2.81-2.44-1.57-6.35-3.67-7.56-4.31,1.33,.49,4.35-.1,4.35-.1,3.55-1.59,0-3.93,0-3.93-4.14-2.34-10.23-8.24-10.23-8.24,0,0,3.04,1.59,4.56,1.12,1.52-.47-1.69-2.34-1.69-2.34,0,0,1.61,.47,2.28,0s-1.77-2.62-1.77-2.62c-3.64-2.37-8.13-8.58-10.01-11.25-1.88,2.67-6.37,8.88-10.01,11.25,0,0-2.45,2.15-1.77,2.62,.68,.47,2.28,0,2.28,0,0,0-3.21,1.87-1.69,2.34,1.52,.47,4.56-1.12,4.56-1.12,0,0-6.08,5.9-10.23,8.24,0,0-3.55,2.34,0,3.93,0,0,3.02,.58,4.35,.1-1.21,.63-5.12,2.74-7.56,4.31-3.21,2.06,2.37,2.81,2.37,2.81,0,0-2.79,.37-1.27,1.78,1.52,1.4,4.48,2.06,4.48,2.06,0,0-3.38,4.31-9.72,6.28,0,0-1.61,2.53,3.13,2.06,0,0-1.01,.19,.08,1.12,1.1,.94,5.07,1.31,5.07,1.31,0,0-6.34,5.25-9.21,6.65-2.87,1.4-4.56,1.87-3.55,3.56,1.01,1.69,5.32,1.59,5.32,1.59,0,0,.93,2.53,3.46,2.25,0,0-8.7,1.5-9.08,2.53-.38,1.03,0,1.59,0,1.59,0,0-2.32,1.22-1.73,2.25,.45,.78,1.93,1.03,2.61,1.1-.6-.01-1.72,.15-1.09,1.62,.85,1.97,7.52,4.03,7.52,4.03,0,0-5.66,2.34-9.72,0,0,0-1.44,.66-.51,1.87,.93,1.22,.51,1.5,.51,1.5,0,0-2.11-1.59-1.18,.84,.93,2.44,5.83,3.93,5.83,3.93,0,0-2.79,.47-1.94,1.97,.84,1.5,4.39,3.28,8.28,3.65,3.89,.37,9.13-1.03,9.13-1.03,0,0-3.55,1.87-1.1,2.9,2.45,1.03,5.24-1.31,5.24-1.31,0,0-.51,2.4,1.52,1.57,2.03-.82,3.72-2.42,3.72-2.42,0,0,.63,3.53,1.9,2.69,1.27,.85,1.9-2.69,1.9-2.69,0,0,1.69,1.59,3.72,2.42,2.03,.82,1.52-1.57,1.52-1.57,0,0,2.79,2.34,5.24,1.31,2.45-1.03-1.1-2.9-1.1-2.9,0,0,5.24,1.4,9.13,1.03,3.89-.37,7.44-2.15,8.28-3.65,.84-1.5-1.94-1.97-1.94-1.97,0,0,4.9-1.5,5.83-3.93,.93-2.44-1.18-.84-1.18-.84Z" style="fill:#455a64;"></path><path d="M316.14,139.94s-.09-.04-.13-.06c.05,.01,.09,.03,.13,.06Z"></path><g style="opacity:.2;"><path d="M335.18,195.95s-.42-.28,.51-1.5c.93-1.22-.51-1.87-.51-1.87-4.06,2.34-9.72,0-9.72,0,0,0,6.68-2.06,7.52-4.03,.63-1.47-.48-1.63-1.09-1.62,.68-.07,2.16-.31,2.61-1.1,.59-1.03-1.73-2.25-1.73-2.25,0,0,.38-.56,0-1.59-.38-1.03-9.09-2.53-9.09-2.53,2.54,.28,3.46-2.25,3.46-2.25,0,0,4.31,.09,5.32-1.59,1.01-1.69-.68-2.15-3.55-3.56-2.87-1.4-9.21-6.65-9.21-6.65,0,0,3.97-.37,5.07-1.31,1.1-.94,.08-1.12,.08-1.12,4.73,.47,3.13-2.06,3.13-2.06-6.34-1.97-9.72-6.28-9.72-6.28,0,0,2.96-.66,4.48-2.06,1.52-1.4-1.27-1.78-1.27-1.78,0,0,5.58-.75,2.37-2.81-2.44-1.57-6.35-3.67-7.56-4.31,1.33,.49,4.35-.1,4.35-.1,3.55-1.59,0-3.93,0-3.93-4.14-2.34-10.23-8.24-10.23-8.24,0,0,3.04,1.59,4.56,1.12,1.52-.47-1.69-2.34-1.69-2.34,0,0,1.61,.47,2.28,0s-1.77-2.62-1.77-2.62c-3.64-2.37-8.13-8.58-10.01-11.25-1.88,2.67-6.37,8.88-10.01,11.25,0,0-2.45,2.15-1.77,2.62,.68,.47,2.28,0,2.28,0,0,0-3.21,1.87-1.69,2.34,1.52,.47,4.56-1.12,4.56-1.12,0,0-6.08,5.9-10.23,8.24,0,0-3.55,2.34,0,3.93,0,0,3.02,.58,4.35,.1-1.21,.63-5.12,2.74-7.56,4.31-3.21,2.06,2.37,2.81,2.37,2.81,0,0-2.79,.37-1.27,1.78,1.52,1.4,4.48,2.06,4.48,2.06,0,0-3.38,4.31-9.72,6.28,0,0-1.61,2.53,3.13,2.06,0,0-1.01,.19,.08,1.12,1.1,.94,5.07,1.31,5.07,1.31,0,0-6.34,5.25-9.21,6.65-2.87,1.4-4.56,1.87-3.55,3.56,1.01,1.69,5.32,1.59,5.32,1.59,0,0,.93,2.53,3.46,2.25,0,0-8.7,1.5-9.08,2.53-.38,1.03,0,1.59,0,1.59,0,0-2.32,1.22-1.73,2.25,.45,.78,1.93,1.03,2.61,1.1-.6-.01-1.72,.15-1.09,1.62,.85,1.97,7.52,4.03,7.52,4.03,0,0-5.66,2.34-9.72,0,0,0-1.44,.66-.51,1.87,.93,1.22,.51,1.5,.51,1.5,0,0-2.11-1.59-1.18,.84,.93,2.44,5.83,3.93,5.83,3.93,0,0-2.79,.47-1.94,1.97,.84,1.5,4.39,3.28,8.28,3.65,3.89,.37,9.13-1.03,9.13-1.03,0,0-3.55,1.87-1.1,2.9,2.45,1.03,5.24-1.31,5.24-1.31,0,0-.51,2.4,1.52,1.57,2.03-.82,3.72-2.42,3.72-2.42,0,0,.63,3.53,1.9,2.69,1.27,.85,1.9-2.69,1.9-2.69,0,0,1.69,1.59,3.72,2.42,2.03,.82,1.52-1.57,1.52-1.57,0,0,2.79,2.34,5.24,1.31,2.45-1.03-1.1-2.9-1.1-2.9,0,0,5.24,1.4,9.13,1.03,3.89-.37,7.44-2.15,8.28-3.65,.84-1.5-1.94-1.97-1.94-1.97,0,0,4.9-1.5,5.83-3.93,.93-2.44-1.18-.84-1.18-.84Z"></path></g></g><g><rect x="244.75" y="178.44" width="13.71" height="47.11" transform="translate(503.21 404) rotate(180)" style="fill:#6f4439;"></rect><path d="M303.58,178.29s-.67-.45,.81-2.39c1.48-1.94-.81-2.99-.81-2.99-6.48,3.74-15.52,0-15.52,0,0,0,10.66-3.29,12.01-6.43,1.01-2.35-.77-2.61-1.73-2.59,1.09-.11,3.44-.5,4.16-1.75,.94-1.65-2.77-3.59-2.77-3.59,0,0,.61-.9,0-2.54-.61-1.65-14.51-4.04-14.51-4.04,4.05,.45,5.53-3.59,5.53-3.59,0,0,6.88,.15,8.5-2.54,1.62-2.69-1.08-3.44-5.67-5.68-4.59-2.24-14.71-10.62-14.71-10.62,0,0,6.34-.6,8.1-2.09,1.75-1.5,.14-1.79,.14-1.79,7.56,.75,4.99-3.29,4.99-3.29-10.12-3.14-15.52-10.02-15.52-10.02,0,0,4.72-1.05,7.15-3.29,2.43-2.24-2.02-2.84-2.02-2.84,0,0,8.91-1.2,3.78-4.49-3.9-2.5-10.13-5.87-12.07-6.88,2.12,.78,6.94-.15,6.94-.15,5.67-2.54,0-6.28,0-6.28-6.61-3.74-16.33-13.16-16.33-13.16,0,0,4.86,2.54,7.29,1.79,2.43-.75-2.7-3.74-2.7-3.74,0,0,2.56,.75,3.64,0,1.08-.75-2.83-4.19-2.83-4.19-5.82-3.78-12.99-13.7-15.99-17.96-3,4.26-10.17,14.18-15.99,17.96,0,0-3.91,3.44-2.83,4.19,1.08,.75,3.64,0,3.64,0,0,0-5.13,2.99-2.7,3.74,2.43,.75,7.29-1.79,7.29-1.79,0,0-9.72,9.42-16.33,13.16,0,0-5.67,3.74,0,6.28,0,0,4.82,.93,6.94,.15-1.94,1.01-8.17,4.38-12.07,6.88-5.13,3.29,3.78,4.49,3.78,4.49,0,0-4.45,.6-2.02,2.84,2.43,2.24,7.15,3.29,7.15,3.29,0,0-5.4,6.88-15.52,10.02,0,0-2.56,4.04,4.99,3.29,0,0-1.62,.3,.13,1.79,1.75,1.5,8.1,2.09,8.1,2.09,0,0-10.12,8.38-14.71,10.62-4.59,2.24-7.29,2.99-5.67,5.68,1.62,2.69,8.5,2.54,8.5,2.54,0,0,1.48,4.04,5.53,3.59,0,0-13.9,2.39-14.51,4.04-.61,1.65,0,2.54,0,2.54,0,0-3.71,1.94-2.77,3.59,.72,1.25,3.07,1.64,4.16,1.75-.96-.02-2.74,.24-1.73,2.59,1.35,3.14,12.01,6.43,12.01,6.43,0,0-9.04,3.74-15.52,0,0,0-2.29,1.05-.81,2.99,1.48,1.94,.81,2.39,.81,2.39,0,0-3.37-2.54-1.89,1.35,1.48,3.89,9.31,6.28,9.31,6.28,0,0-4.45,.75-3.1,3.14,1.35,2.39,7.02,5.23,13.22,5.83,6.21,.6,14.57-1.65,14.57-1.65,0,0-5.67,2.99-1.75,4.64,3.91,1.65,8.37-2.09,8.37-2.09,0,0-.81,3.83,2.43,2.51,3.24-1.32,5.94-3.86,5.94-3.86,0,0,1.01,5.64,3.03,4.29,2.02,1.35,3.03-4.29,3.03-4.29,0,0,2.7,2.54,5.94,3.86,3.24,1.32,2.43-2.51,2.43-2.51,0,0,4.45,3.74,8.37,2.09,3.91-1.65-1.75-4.64-1.75-4.64,0,0,8.37,2.24,14.57,1.65,6.21-.6,11.87-3.44,13.22-5.83,1.35-2.39-3.1-3.14-3.1-3.14,0,0,7.83-2.39,9.31-6.28,1.48-3.89-1.89-1.35-1.89-1.35Z" style="fill:#455a64;"></path><path d="M273.17,88.86c-.07-.03-.14-.07-.21-.1,.08,.02,.15,.06,.21,.1Z"></path><g style="opacity:.1;"><path d="M263,73.52l-3.21-1.26s-1.77,2.64-5.14,.9c-3.36-1.74-5.15-5.17-5.15-5.17,0,0-4.72,3.13-5.21,1.14-.49-1.98,1.48-2.77,1.48-2.77-.16,.35-.31,.78-.12,1.1,.21,.36,.68,.34,1.05,.25,1.23-.3,2.38-1.05,3.21-2.1,.94,2.25,2.87,3.8,4.85,4.95,.87,.5,1.86,.96,2.8,.66,.94-.31,1.56-1.76,.86-2.52,1.48,1.95,3.69,3.2,5.99,3.38,.49,.04,1.13-.09,1.22-.63,.06-.31-.12-.62-.29-.87-.7-1.02-1.55-1.9-2.52-2.59,2.17,1.59,4.71,2.56,7.31,2.78l2.28,.31c.08,.27,.05,.5-.15,.63-1.08,.75-3.64,0-3.64,0,0,0,5.13,2.99,2.7,3.74-2.43,.75-7.29-1.79-7.29-1.79,0,0,.22,.21,.6,.57l-1.64-.71Z"></path></g><g style="opacity:.1;"><path d="M234.31,93.63l6.23-2.26s.7,3.81,4.52,3.6c0,0,3.31,.28,3.56-3.6,0,0,3.18,3.1,9.61,2.19,0,0,1.08-.14,.83-1.9,0,0,1.72,2.19,4.64,.63,2.93-1.55,.39-4.16,.39-4.16l-.39-.21c.27,.52,.53,1.15,.31,1.69-.33,.77-1.33,.72-2.07,.48-2.05-.65-3.98-1.73-5.66-3.18,.45,.54,.92,1.1,1.17,1.79,.25,.69,.24,1.54-.2,2.1-.43,.55-1.14,.68-1.79,.72-3.23,.18-6.5-1.31-8.68-3.96-.03,1,.21,2,.17,3-.04,1-.46,2.11-1.33,2.41-1.02,.36-2.07-.61-2.52-1.69-.45-1.08-.55-2.31-1.04-3.38-1.52,1.51-3.36,2.64-5.33,3.27-.55,.18-1.14,.32-1.71,.22-.57-.1-1.13-.48-1.33-1.08-.17-.52,.02-1.18,.43-1.45-2.5,1.14-8.28,3.16-9.42,.33-.6,1.22-.47,2.7,2.22,3.91,0,0,4.82,.93,6.94,.15-.36,.19-.88,.46-1.51,.8l1.95-.43Z"></path></g><g style="opacity:.1;"><path d="M277.73,112.01c-1.61-.25-3.17-.84-4.56-1.75-.42,1.24-1.8,1.79-2.98,1.57-1.18-.22-2.19-1.02-3.16-1.79-.86,1.25-2.23,2.04-3.65,2.11-1.42,.06-2.84-.6-3.79-1.77-3.94,2.91-8.62,5.06-13.32,4.43-.87-.12-1.79-.37-2.35-1.12-.56-.75-.48-2.11,.34-2.47-2.87,.62-5.85,1.24-8.69,.44-2.84-.79-5.12-3.16-4.51-6.85,.13,.58,.38,1.48,.74,2.06,.36,.58,1,.86,1.61,1.06,4.72,1.6,9.98,1.16,14.43-1.21-.95,1.04-.29,3,.89,3.68,1.19,.68,2.61,.47,3.92,.21,1.44-.28,2.89-.59,4.22-1.25,1.33-.66,2.56-1.71,3.23-3.15,.54,.97,1.1,1.95,1.93,2.62,.83,.67,2,.95,2.89,.38,.89-.57,1.18-2.15,.39-2.87,1.9,1.19,3.98,2.03,6.13,2.48,.54,.11,1.18,.17,1.55-.28,.37-.45,.26-1.2-.1-1.67-.14-.18-.3-.32-.47-.44,3.02,1.47,6.39,2.03,9.66,1.59l.05,.6c-2.46,1.44-5.53,2.12-5.53,2.12,0,0,.39,.49,1.14,1.26Z"></path></g><g style="opacity:.1;"><path d="M225.42,132.55c2.97-.18,5.85-1.19,8.65-2.31,4.8,3.49,11.49,3.45,16.26-.09,3.69,3.48,9.51,3.82,13.51,.79,2.13,.99,4.45,1.76,6.72,1.27,2.26-.5,4.37-2.64,4.3-5.19-1.37,1.65-3.38,2.63-5.41,2.62-2.03,0-4.03-.98-5.4-2.64-1.58,2.08-4.08,3.27-6.53,3.1-2.45-.17-4.8-1.68-6.13-3.97-3.09,2.6-7.13,3.79-10.97,3.22-1.1-.16-2.23-.49-3.06-1.29-.83-.81-1.28-2.21-.79-3.31-5.03,3.89-12.24,3.92-17.3,.08l-.04,.1c.09,.24,.32,.54,.77,.92,1.75,1.5,8.1,2.09,8.1,2.09,0,0-2.52,2.09-5.62,4.46,.98,.16,1.98,.2,2.97,.14Z"></path></g><g style="opacity:.1;"><path d="M295.3,146.36c-2.25,.48-4.55,.43-4.55,.43,0,0-1.48,4.04-5.53,3.59,0,0,2.01,.35,4.54,.87-3.06,1.18-6.62,.78-9.35-1.17-4.93,4.98-13.17,5.26-18.36,.62-5,4.5-12.82,4.58-17.89,.19-2.76,2.51-6.39,3.97-9.93,3.46-3.54-.51-6.88-3.17-8.01-6.92,5.52,3.94,13.34,3.34,18.33-1.39,.07,1.18,.95,2.15,1.95,2.56,1,.41,2.1,.39,3.16,.33,4.36-.22,8.97-.91,12.35-3.96,2.15,2.83,5.59,4.38,8.92,4.03,3.32-.35,6.44-2.59,8.07-5.82,6.12,3.2,13.58,3.04,19.59-.42l-3.29,3.6Z"></path></g><g style="opacity:.1;"><path d="M268.06,166.16c.09,1.4-.73,2.73-1.81,3.46-1.08,.73-2.38,.95-3.64,.99-3.83,.13-7.68-1.27-10.7-3.89-2.29,2.85-5.7,4.54-9.14,4.53-3.44,0-6.85-1.71-9.13-4.57-8.55,2.39-17.9,1.06-25.62-3.65l-1.16,.64c0,.33,.09,.73,.3,1.23,1.35,3.14,12.01,6.43,12.01,6.43,0,0-1.08,.45-2.76,.88,1.84,.56,3.43,1.02,4.44,1.34,3.76,1.21,8.16,.51,10.98-2.49,2.6,3.06,6.38,4.85,10.17,4.81,3.79-.04,7.54-1.9,10.1-5.01,2.46,2.79,5.69,4.96,9.21,5.09,3.51,.13,7.22-2.22,8.17-5.97,4.35,1.58,9.54-.38,12.1-4.59-4.06,2.58-9.23,2.88-13.51,.78Z"></path></g></g><g><rect x="428.25" y="178.44" width="13.71" height="47.11" transform="translate(870.21 404) rotate(180)" style="fill:#6f4439;"></rect><path d="M487.07,178.29s-.67-.45,.81-2.39c1.48-1.94-.81-2.99-.81-2.99-6.48,3.74-15.52,0-15.52,0,0,0,10.66-3.29,12.01-6.43,1.01-2.35-.77-2.61-1.73-2.59,1.09-.11,3.44-.5,4.16-1.75,.94-1.65-2.77-3.59-2.77-3.59,0,0,.61-.9,0-2.54-.61-1.65-14.51-4.04-14.51-4.04,4.05,.45,5.53-3.59,5.53-3.59,0,0,6.88,.15,8.5-2.54,1.62-2.69-1.08-3.44-5.67-5.68-4.59-2.24-14.71-10.62-14.71-10.62,0,0,6.34-.6,8.1-2.09,1.75-1.5,.14-1.79,.14-1.79,7.56,.75,4.99-3.29,4.99-3.29-10.12-3.14-15.52-10.02-15.52-10.02,0,0,4.72-1.05,7.15-3.29,2.43-2.24-2.02-2.84-2.02-2.84,0,0,8.91-1.2,3.78-4.49-3.9-2.5-10.13-5.87-12.07-6.88,2.12,.78,6.94-.15,6.94-.15,5.67-2.54,0-6.28,0-6.28-6.61-3.74-16.33-13.16-16.33-13.16,0,0,4.86,2.54,7.29,1.79,2.43-.75-2.7-3.74-2.7-3.74,0,0,2.56,.75,3.64,0,1.08-.75-2.83-4.19-2.83-4.19-5.82-3.78-12.99-13.7-15.99-17.96-3,4.26-10.17,14.18-15.99,17.96,0,0-3.91,3.44-2.83,4.19,1.08,.75,3.64,0,3.64,0,0,0-5.13,2.99-2.7,3.74,2.43,.75,7.29-1.79,7.29-1.79,0,0-9.72,9.42-16.33,13.16,0,0-5.67,3.74,0,6.28,0,0,4.82,.93,6.94,.15-1.94,1.01-8.17,4.38-12.07,6.88-5.13,3.29,3.78,4.49,3.78,4.49,0,0-4.45,.6-2.02,2.84,2.43,2.24,7.15,3.29,7.15,3.29,0,0-5.4,6.88-15.52,10.02,0,0-2.56,4.04,4.99,3.29,0,0-1.62,.3,.13,1.79,1.75,1.5,8.1,2.09,8.1,2.09,0,0-10.12,8.38-14.71,10.62-4.59,2.24-7.29,2.99-5.67,5.68,1.62,2.69,8.5,2.54,8.5,2.54,0,0,1.48,4.04,5.53,3.59,0,0-13.9,2.39-14.51,4.04-.61,1.65,0,2.54,0,2.54,0,0-3.71,1.94-2.77,3.59,.72,1.25,3.07,1.64,4.16,1.75-.96-.02-2.74,.24-1.73,2.59,1.35,3.14,12.01,6.43,12.01,6.43,0,0-9.04,3.74-15.52,0,0,0-2.29,1.05-.81,2.99,1.48,1.94,.81,2.39,.81,2.39,0,0-3.37-2.54-1.89,1.35,1.48,3.89,9.31,6.28,9.31,6.28,0,0-4.45,.75-3.1,3.14,1.35,2.39,7.02,5.23,13.22,5.83,6.21,.6,14.57-1.65,14.57-1.65,0,0-5.67,2.99-1.75,4.64,3.91,1.65,8.37-2.09,8.37-2.09,0,0-.81,3.83,2.43,2.51,3.24-1.32,5.94-3.86,5.94-3.86,0,0,1.01,5.64,3.03,4.29,2.02,1.35,3.03-4.29,3.03-4.29,0,0,2.7,2.54,5.94,3.86,3.24,1.32,2.43-2.51,2.43-2.51,0,0,4.45,3.74,8.37,2.09s-1.75-4.64-1.75-4.64c0,0,8.37,2.24,14.57,1.65,6.21-.6,11.87-3.44,13.22-5.83,1.35-2.39-3.1-3.14-3.1-3.14,0,0,7.83-2.39,9.31-6.28,1.48-3.89-1.89-1.35-1.89-1.35Z" style="fill:#455a64;"></path><path d="M456.67,88.86c-.07-.03-.14-.07-.21-.1,.08,.02,.15,.06,.21,.1Z"></path><g style="opacity:.1;"><path d="M446.5,73.52l-3.21-1.26s-1.77,2.64-5.14,.9c-3.36-1.74-5.15-5.17-5.15-5.17,0,0-4.72,3.13-5.21,1.14-.49-1.98,1.48-2.77,1.48-2.77-.16,.35-.31,.78-.12,1.1,.21,.36,.68,.34,1.05,.25,1.23-.3,2.38-1.05,3.21-2.1,.94,2.25,2.87,3.8,4.85,4.95,.87,.5,1.86,.96,2.8,.66,.94-.31,1.56-1.76,.86-2.52,1.48,1.95,3.69,3.2,5.99,3.38,.49,.04,1.13-.09,1.22-.63,.06-.31-.12-.62-.29-.87-.7-1.02-1.55-1.9-2.52-2.59,2.17,1.59,4.71,2.56,7.31,2.78l2.28,.31c.08,.27,.05,.5-.15,.63-1.08,.75-3.64,0-3.64,0,0,0,5.13,2.99,2.7,3.74-2.43,.75-7.29-1.79-7.29-1.79,0,0,.22,.21,.6,.57l-1.64-.71Z"></path></g><g style="opacity:.1;"><path d="M417.8,93.63l6.23-2.26s.7,3.81,4.52,3.6c0,0,3.31,.28,3.56-3.6,0,0,3.18,3.1,9.61,2.19,0,0,1.08-.14,.83-1.9,0,0,1.72,2.19,4.64,.63,2.93-1.55,.39-4.16,.39-4.16l-.39-.21c.27,.52,.53,1.15,.31,1.69-.33,.77-1.33,.72-2.07,.48-2.05-.65-3.98-1.73-5.66-3.18,.45,.54,.92,1.1,1.17,1.79,.25,.69,.24,1.54-.2,2.1-.43,.55-1.14,.68-1.79,.72-3.23,.18-6.5-1.31-8.68-3.96-.03,1,.21,2,.17,3-.04,1-.46,2.11-1.33,2.41-1.02,.36-2.07-.61-2.52-1.69-.45-1.08-.55-2.31-1.04-3.38-1.52,1.51-3.36,2.64-5.33,3.27-.55,.18-1.14,.32-1.71,.22-.57-.1-1.13-.48-1.33-1.08-.17-.52,.02-1.18,.43-1.45-2.5,1.14-8.28,3.16-9.42,.33-.6,1.22-.47,2.7,2.22,3.91,0,0,4.82,.93,6.94,.15-.36,.19-.88,.46-1.51,.8l1.95-.43Z"></path></g><g style="opacity:.1;"><path d="M461.22,112.01c-1.61-.25-3.17-.84-4.56-1.75-.42,1.24-1.8,1.79-2.98,1.57-1.18-.22-2.19-1.02-3.16-1.79-.86,1.25-2.23,2.04-3.65,2.11-1.42,.06-2.84-.6-3.79-1.77-3.94,2.91-8.62,5.06-13.32,4.43-.87-.12-1.79-.37-2.35-1.12-.56-.75-.48-2.11,.34-2.47-2.87,.62-5.85,1.24-8.69,.44-2.84-.79-5.12-3.16-4.51-6.85,.13,.58,.38,1.48,.74,2.06,.36,.58,1,.86,1.61,1.06,4.72,1.6,9.98,1.16,14.43-1.21-.95,1.04-.29,3,.89,3.68,1.19,.68,2.61,.47,3.92,.21,1.44-.28,2.89-.59,4.22-1.25,1.33-.66,2.56-1.71,3.23-3.15,.54,.97,1.1,1.95,1.93,2.62,.83,.67,2,.95,2.89,.38,.89-.57,1.18-2.15,.39-2.87,1.9,1.19,3.98,2.03,6.13,2.48,.54,.11,1.18,.17,1.55-.28,.37-.45,.26-1.2-.1-1.67-.14-.18-.3-.32-.47-.44,3.02,1.47,6.39,2.03,9.66,1.59l.05,.6c-2.46,1.44-5.53,2.12-5.53,2.12,0,0,.39,.49,1.14,1.26Z"></path></g><g style="opacity:.1;"><path d="M408.91,132.55c2.97-.18,5.85-1.19,8.65-2.31,4.8,3.49,11.49,3.45,16.26-.09,3.69,3.48,9.51,3.82,13.51,.79,2.13,.99,4.45,1.76,6.72,1.27,2.26-.5,4.37-2.64,4.3-5.19-1.37,1.65-3.38,2.63-5.41,2.62-2.03,0-4.03-.98-5.4-2.64-1.58,2.08-4.08,3.27-6.53,3.1-2.45-.17-4.8-1.68-6.13-3.97-3.09,2.6-7.13,3.79-10.97,3.22-1.1-.16-2.23-.49-3.06-1.29-.83-.81-1.28-2.21-.79-3.31-5.03,3.89-12.24,3.92-17.3,.08l-.04,.1c.09,.24,.32,.54,.77,.92,1.75,1.5,8.1,2.09,8.1,2.09,0,0-2.52,2.09-5.62,4.46,.98,.16,1.98,.2,2.97,.14Z"></path></g><g style="opacity:.1;"><path d="M478.8,146.36c-2.25,.48-4.55,.43-4.55,.43,0,0-1.48,4.04-5.53,3.59,0,0,2.01,.35,4.54,.87-3.06,1.18-6.62,.78-9.35-1.17-4.93,4.98-13.17,5.26-18.36,.62-5,4.5-12.82,4.58-17.89,.19-2.76,2.51-6.39,3.97-9.93,3.46-3.54-.51-6.88-3.17-8.01-6.92,5.52,3.94,13.34,3.34,18.33-1.39,.07,1.18,.95,2.15,1.95,2.56,1,.41,2.1,.39,3.16,.33,4.36-.22,8.97-.91,12.35-3.96,2.15,2.83,5.59,4.38,8.92,4.03,3.32-.35,6.44-2.59,8.07-5.82,6.12,3.2,13.58,3.04,19.59-.42l-3.29,3.6Z"></path></g><g style="opacity:.1;"><path d="M451.55,166.16c.09,1.4-.73,2.73-1.81,3.46s-2.38,.95-3.64,.99c-3.83,.13-7.68-1.27-10.7-3.89-2.29,2.85-5.7,4.54-9.14,4.53-3.44,0-6.85-1.71-9.13-4.57-8.55,2.39-17.9,1.06-25.62-3.65l-1.16,.64c0,.33,.09,.73,.3,1.23,1.35,3.14,12.01,6.43,12.01,6.43,0,0-1.08,.45-2.76,.88,1.84,.56,3.43,1.02,4.44,1.34,3.76,1.21,8.16,.51,10.98-2.49,2.6,3.06,6.38,4.85,10.17,4.81,3.79-.04,7.54-1.9,10.1-5.01,2.46,2.79,5.69,4.96,9.21,5.09,3.51,.13,7.22-2.22,8.17-5.97,4.35,1.58,9.54-.38,12.1-4.59-4.06,2.58-9.23,2.88-13.51,.78Z"></path></g></g><g><rect x="352.81" y="185.3" width="11.71" height="40.26" transform="translate(717.33 410.85) rotate(180)" style="fill:#6f4439;"></rect><path d="M403.08,185.17s-.58-.38,.69-2.04c1.27-1.66-.69-2.56-.69-2.56-5.53,3.19-13.26,0-13.26,0,0,0,9.11-2.81,10.26-5.5,.86-2-.66-2.23-1.48-2.21,.93-.1,2.94-.43,3.56-1.5,.81-1.41-2.36-3.07-2.36-3.07,0,0,.52-.77,0-2.17-.52-1.41-12.4-3.45-12.4-3.45,3.46,.38,4.73-3.07,4.73-3.07,0,0,5.88,.13,7.26-2.17,1.38-2.3-.92-2.94-4.84-4.86-3.92-1.92-12.57-9.07-12.57-9.07,0,0,5.42-.51,6.92-1.79,1.5-1.28,.12-1.53,.12-1.53,6.46,.64,4.27-2.81,4.27-2.81-8.65-2.68-13.26-8.56-13.26-8.56,0,0,4.04-.89,6.11-2.81,2.08-1.92-1.73-2.43-1.73-2.43,0,0,7.61-1.02,3.23-3.83-3.33-2.14-8.66-5.01-10.31-5.88,1.82,.67,5.93-.13,5.93-.13,4.84-2.17,0-5.37,0-5.37-5.65-3.19-13.95-11.25-13.95-11.25,0,0,4.15,2.17,6.23,1.53,2.08-.64-2.31-3.19-2.31-3.19,0,0,2.19,.64,3.11,0,.92-.64-2.42-3.58-2.42-3.58-4.97-3.23-11.1-11.71-13.66-15.35-2.56,3.64-8.69,12.12-13.66,15.35,0,0-3.34,2.94-2.42,3.58,.92,.64,3.11,0,3.11,0,0,0-4.38,2.56-2.31,3.19,2.08,.64,6.23-1.53,6.23-1.53,0,0-8.3,8.05-13.95,11.25,0,0-4.84,3.19,0,5.37,0,0,4.12,.8,5.93,.13-1.66,.86-6.98,3.74-10.31,5.88-4.38,2.81,3.23,3.83,3.23,3.83,0,0-3.8,.51-1.73,2.43,2.08,1.92,6.11,2.81,6.11,2.81,0,0-4.61,5.88-13.26,8.56,0,0-2.19,3.45,4.27,2.81,0,0-1.38,.26,.12,1.53,1.5,1.28,6.92,1.79,6.92,1.79,0,0-8.65,7.16-12.57,9.07-3.92,1.92-6.23,2.56-4.84,4.86,1.38,2.3,7.26,2.17,7.26,2.17,0,0,1.27,3.45,4.73,3.07,0,0-11.88,2.04-12.4,3.45-.52,1.41,0,2.17,0,2.17,0,0-3.17,1.66-2.36,3.07,.61,1.07,2.63,1.4,3.56,1.5-.82-.02-2.34,.21-1.48,2.21,1.15,2.68,10.26,5.5,10.26,5.5,0,0-7.73,3.19-13.26,0,0,0-1.96,.89-.69,2.56,1.27,1.66,.69,2.04,.69,2.04,0,0-2.88-2.17-1.61,1.15,1.27,3.32,7.96,5.37,7.96,5.37,0,0-3.8,.64-2.65,2.68,1.15,2.04,6,4.47,11.3,4.98,5.3,.51,12.45-1.41,12.45-1.41,0,0-4.84,2.56-1.5,3.96s7.15-1.79,7.15-1.79c0,0-.69,3.27,2.08,2.15,2.77-1.12,5.07-3.3,5.07-3.3,0,0,.86,4.82,2.59,3.67,1.73,1.15,2.59-3.67,2.59-3.67,0,0,2.31,2.17,5.07,3.3,2.77,1.12,2.08-2.15,2.08-2.15,0,0,3.8,3.19,7.15,1.79,3.34-1.41-1.5-3.96-1.5-3.96,0,0,7.15,1.92,12.45,1.41,5.3-.51,10.15-2.94,11.3-4.98,1.15-2.04-2.65-2.68-2.65-2.68,0,0,6.69-2.04,7.96-5.37,1.27-3.32-1.61-1.15-1.61-1.15Z" style="fill:#455a64;"></path><path d="M377.09,108.75c-.06-.03-.12-.06-.18-.08,.06,.02,.12,.05,.18,.08Z"></path><g style="opacity:.1;"><path d="M368.41,95.64l-2.75-1.08s-1.52,2.26-4.39,.77c-2.87-1.49-4.4-4.42-4.4-4.42,0,0-4.03,2.67-4.45,.98-.42-1.7,1.27-2.36,1.27-2.36-.13,.3-.27,.66-.1,.94,.18,.3,.58,.29,.89,.22,1.05-.26,2.03-.9,2.75-1.79,.81,1.92,2.45,3.24,4.15,4.23,.74,.43,1.59,.82,2.39,.56,.8-.26,1.34-1.5,.74-2.15,1.27,1.67,3.16,2.73,5.12,2.89,.42,.03,.96-.08,1.04-.54,.05-.27-.1-.53-.25-.75-.6-.87-1.33-1.62-2.16-2.22,1.85,1.36,4.03,2.19,6.25,2.37l1.95,.26c.07,.23,.04,.43-.13,.54-.92,.64-3.11,0-3.11,0,0,0,4.38,2.56,2.31,3.19-2.08,.64-6.23-1.53-6.23-1.53,0,0,.18,.18,.51,.49l-1.4-.61Z"></path></g><g style="opacity:.1;"><path d="M343.89,112.82l5.33-1.93s.6,3.25,3.86,3.07c0,0,2.83,.24,3.04-3.07,0,0,2.72,2.65,8.21,1.87,0,0,.92-.12,.71-1.63,0,0,1.47,1.87,3.97,.54,2.5-1.33,.33-3.55,.33-3.55l-.34-.18c.23,.44,.46,.98,.26,1.44-.28,.66-1.13,.61-1.77,.41-1.75-.55-3.4-1.48-4.84-2.72,.39,.46,.79,.94,1,1.53,.21,.59,.2,1.32-.17,1.79-.37,.47-.97,.58-1.53,.61-2.76,.15-5.55-1.12-7.42-3.38-.03,.86,.18,1.71,.15,2.56-.03,.86-.4,1.8-1.13,2.06-.88,.31-1.77-.52-2.16-1.44-.39-.92-.47-1.98-.89-2.89-1.3,1.29-2.87,2.26-4.55,2.8-.47,.15-.97,.27-1.46,.19-.49-.08-.97-.41-1.14-.93-.15-.44,.01-1.01,.37-1.24-2.14,.97-7.08,2.7-8.05,.29-.52,1.04-.41,2.31,1.9,3.34,0,0,4.12,.8,5.93,.13-.31,.16-.75,.4-1.29,.68l1.67-.36Z"></path></g><g style="opacity:.1;"><path d="M380.99,128.53c-1.37-.21-2.71-.72-3.9-1.5-.36,1.06-1.54,1.53-2.55,1.34-1.01-.19-1.87-.87-2.7-1.53-.73,1.07-1.91,1.75-3.12,1.8-1.21,.05-2.43-.52-3.24-1.52-3.37,2.49-7.36,4.32-11.38,3.78-.74-.1-1.53-.32-2.01-.96-.48-.64-.41-1.8,.29-2.11-2.45,.53-5,1.06-7.43,.38-2.42-.68-4.38-2.7-3.85-5.85,.11,.49,.33,1.26,.63,1.76,.3,.5,.85,.73,1.37,.91,4.03,1.36,8.52,.99,12.33-1.03-.81,.89-.25,2.56,.76,3.14,1.01,.58,2.23,.4,3.35,.18,1.23-.24,2.47-.51,3.61-1.07,1.14-.57,2.19-1.46,2.76-2.69,.46,.82,.94,1.67,1.65,2.24,.71,.57,1.71,.81,2.47,.32,.76-.49,1.01-1.84,.34-2.46,1.63,1.02,3.4,1.73,5.24,2.12,.46,.1,1.01,.14,1.32-.24,.32-.38,.22-1.03-.08-1.42-.12-.15-.25-.27-.4-.38,2.58,1.25,5.46,1.73,8.25,1.36l.04,.51c-2.1,1.23-4.73,1.81-4.73,1.81,0,0,.33,.42,.97,1.08Z"></path></g><g style="opacity:.1;"><path d="M336.29,146.08c2.54-.15,5-1.02,7.39-1.98,4.11,2.98,9.82,2.95,13.9-.08,3.16,2.97,8.13,3.26,11.55,.68,1.82,.84,3.81,1.51,5.74,1.08,1.93-.42,3.73-2.25,3.67-4.44-1.17,1.41-2.89,2.24-4.62,2.24-1.73,0-3.45-.84-4.62-2.26-1.35,1.78-3.48,2.8-5.58,2.65-2.09-.14-4.1-1.44-5.24-3.39-2.64,2.22-6.09,3.24-9.38,2.75-.94-.14-1.9-.41-2.62-1.11-.71-.69-1.1-1.89-.68-2.83-4.3,3.32-10.46,3.35-14.78,.07l-.04,.08c.08,.21,.27,.46,.65,.79,1.5,1.28,6.92,1.79,6.92,1.79,0,0-2.16,1.79-4.81,3.81,.84,.13,1.69,.17,2.53,.12Z"></path></g><g style="opacity:.1;"><path d="M396.01,157.89c-1.92,.41-3.89,.37-3.89,.37,0,0-1.27,3.45-4.73,3.07,0,0,1.72,.3,3.88,.74-2.61,1-5.66,.67-7.99-1-4.21,4.26-11.26,4.5-15.69,.53-4.27,3.85-10.95,3.92-15.29,.16-2.36,2.14-5.46,3.39-8.49,2.96-3.03-.43-5.88-2.71-6.84-5.92,4.71,3.36,11.4,2.86,15.66-1.18,.06,1.01,.82,1.83,1.67,2.19,.85,.35,1.79,.33,2.7,.28,3.72-.19,7.66-.77,10.55-3.38,1.84,2.41,4.78,3.74,7.62,3.44,2.84-.3,5.5-2.22,6.9-4.97,5.23,2.74,11.61,2.6,16.74-.36l-2.81,3.08Z"></path></g><g style="opacity:.1;"><path d="M372.72,174.8c.08,1.19-.62,2.33-1.54,2.95-.92,.62-2.03,.81-3.11,.85-3.27,.11-6.57-1.09-9.14-3.33-1.96,2.43-4.87,3.88-7.81,3.87-2.94,0-5.85-1.47-7.8-3.91-7.3,2.05-15.29,.91-21.89-3.12l-.99,.55c0,.28,.07,.62,.26,1.05,1.15,2.68,10.26,5.5,10.26,5.5,0,0-.92,.38-2.36,.75,1.57,.48,2.93,.87,3.8,1.14,3.21,1.03,6.97,.44,9.39-2.13,2.22,2.62,5.45,4.14,8.69,4.11,3.24-.03,6.45-1.62,8.63-4.28,2.1,2.38,4.86,4.24,7.87,4.35,3,.11,6.17-1.9,6.98-5.1,3.71,1.35,8.15-.33,10.34-3.92-3.47,2.21-7.89,2.46-11.55,.67Z"></path></g></g><g><rect x="125.29" y="188.36" width="10.82" height="37.2" transform="translate(261.4 413.91) rotate(180)" style="fill:#6f4439;"></rect><path d="M171.73,188.23s-.53-.35,.64-1.89c1.17-1.54-.64-2.36-.64-2.36-5.11,2.95-12.25,0-12.25,0,0,0,8.42-2.6,9.48-5.08,.8-1.85-.61-2.06-1.37-2.04,.86-.09,2.72-.39,3.29-1.38,.75-1.3-2.18-2.83-2.18-2.83,0,0,.48-.71,0-2.01-.48-1.3-11.45-3.19-11.45-3.19,3.2,.35,4.37-2.83,4.37-2.83,0,0,5.43,.12,6.71-2.01,1.28-2.13-.85-2.72-4.47-4.49-3.62-1.77-11.61-8.38-11.61-8.38,0,0,5.01-.47,6.39-1.65,1.39-1.18,.11-1.42,.11-1.42,5.97,.59,3.94-2.6,3.94-2.6-7.99-2.48-12.25-7.91-12.25-7.91,0,0,3.73-.83,5.65-2.6,1.92-1.77-1.6-2.24-1.6-2.24,0,0,7.03-.94,2.98-3.54-3.08-1.97-8-4.63-9.53-5.43,1.68,.62,5.48-.12,5.48-.12,4.48-2.01,0-4.96,0-4.96-5.22-2.95-12.89-10.39-12.89-10.39,0,0,3.84,2.01,5.75,1.42,1.92-.59-2.13-2.95-2.13-2.95,0,0,2.02,.59,2.88,0s-2.24-3.31-2.24-3.31c-4.59-2.98-10.25-10.82-12.62-14.18-2.37,3.36-8.03,11.2-12.62,14.18,0,0-3.09,2.72-2.24,3.31,.85,.59,2.88,0,2.88,0,0,0-4.05,2.36-2.13,2.95,1.92,.59,5.75-1.42,5.75-1.42,0,0-7.67,7.44-12.89,10.39,0,0-4.48,2.95,0,4.96,0,0,3.8,.74,5.48,.12-1.53,.8-6.45,3.45-9.53,5.43-4.05,2.6,2.98,3.54,2.98,3.54,0,0-3.52,.47-1.6,2.24,1.92,1.77,5.65,2.6,5.65,2.6,0,0-4.26,5.43-12.25,7.91,0,0-2.02,3.19,3.94,2.6,0,0-1.28,.24,.11,1.42,1.38,1.18,6.39,1.65,6.39,1.65,0,0-7.99,6.61-11.61,8.38-3.62,1.77-5.75,2.36-4.47,4.49,1.28,2.13,6.71,2.01,6.71,2.01,0,0,1.17,3.19,4.37,2.83,0,0-10.97,1.89-11.45,3.19-.48,1.3,0,2.01,0,2.01,0,0-2.93,1.53-2.18,2.83,.57,.99,2.43,1.29,3.29,1.38-.76-.01-2.16,.19-1.37,2.04,1.07,2.48,9.48,5.08,9.48,5.08,0,0-7.14,2.95-12.25,0,0,0-1.81,.83-.64,2.36,1.17,1.54,.64,1.89,.64,1.89,0,0-2.66-2.01-1.49,1.06,1.17,3.07,7.35,4.96,7.35,4.96,0,0-3.52,.59-2.45,2.48,1.07,1.89,5.54,4.13,10.44,4.61,4.9,.47,11.51-1.3,11.51-1.3,0,0-4.47,2.36-1.39,3.66,3.09,1.3,6.61-1.65,6.61-1.65,0,0-.64,3.02,1.92,1.98,2.56-1.04,4.69-3.05,4.69-3.05,0,0,.8,4.45,2.39,3.39,1.6,1.07,2.4-3.39,2.4-3.39,0,0,2.13,2.01,4.69,3.05,2.56,1.04,1.92-1.98,1.92-1.98,0,0,3.52,2.95,6.61,1.65,3.09-1.3-1.39-3.66-1.39-3.66,0,0,6.61,1.77,11.51,1.3,4.9-.47,9.38-2.72,10.44-4.61,1.07-1.89-2.45-2.48-2.45-2.48,0,0,6.18-1.89,7.35-4.96,1.17-3.07-1.49-1.06-1.49-1.06Z" style="fill:#455a64;"></path><path d="M147.72,117.62c-.06-.03-.11-.05-.17-.08,.06,.02,.12,.04,.17,.08Z"></path><g style="opacity:.2;"><path d="M171.73,188.23s-.53-.35,.64-1.89c1.17-1.54-.64-2.36-.64-2.36-5.11,2.95-12.25,0-12.25,0,0,0,8.42-2.6,9.48-5.08,.8-1.85-.61-2.06-1.37-2.04,.86-.09,2.72-.39,3.29-1.38,.75-1.3-2.18-2.83-2.18-2.83,0,0,.48-.71,0-2.01-.48-1.3-11.45-3.19-11.45-3.19,3.2,.35,4.37-2.83,4.37-2.83,0,0,5.43,.12,6.71-2.01,1.28-2.13-.85-2.72-4.47-4.49-3.62-1.77-11.61-8.38-11.61-8.38,0,0,5.01-.47,6.39-1.65,1.39-1.18,.11-1.42,.11-1.42,5.97,.59,3.94-2.6,3.94-2.6-7.99-2.48-12.25-7.91-12.25-7.91,0,0,3.73-.83,5.65-2.6,1.92-1.77-1.6-2.24-1.6-2.24,0,0,7.03-.94,2.98-3.54-3.08-1.97-8-4.63-9.53-5.43,1.68,.62,5.48-.12,5.48-.12,4.48-2.01,0-4.96,0-4.96-5.22-2.95-12.89-10.39-12.89-10.39,0,0,3.84,2.01,5.75,1.42,1.92-.59-2.13-2.95-2.13-2.95,0,0,2.02,.59,2.88,0s-2.24-3.31-2.24-3.31c-4.59-2.98-10.25-10.82-12.62-14.18-2.37,3.36-8.03,11.2-12.62,14.18,0,0-3.09,2.72-2.24,3.31,.85,.59,2.88,0,2.88,0,0,0-4.05,2.36-2.13,2.95,1.92,.59,5.75-1.42,5.75-1.42,0,0-7.67,7.44-12.89,10.39,0,0-4.48,2.95,0,4.96,0,0,3.8,.74,5.48,.12-1.53,.8-6.45,3.45-9.53,5.43-4.05,2.6,2.98,3.54,2.98,3.54,0,0-3.52,.47-1.6,2.24,1.92,1.77,5.65,2.6,5.65,2.6,0,0-4.26,5.43-12.25,7.91,0,0-2.02,3.19,3.94,2.6,0,0-1.28,.24,.11,1.42,1.38,1.18,6.39,1.65,6.39,1.65,0,0-7.99,6.61-11.61,8.38-3.62,1.77-5.75,2.36-4.47,4.49,1.28,2.13,6.71,2.01,6.71,2.01,0,0,1.17,3.19,4.37,2.83,0,0-10.97,1.89-11.45,3.19-.48,1.3,0,2.01,0,2.01,0,0-2.93,1.53-2.18,2.83,.57,.99,2.43,1.29,3.29,1.38-.76-.01-2.16,.19-1.37,2.04,1.07,2.48,9.48,5.08,9.48,5.08,0,0-7.14,2.95-12.25,0,0,0-1.81,.83-.64,2.36,1.17,1.54,.64,1.89,.64,1.89,0,0-2.66-2.01-1.49,1.06,1.17,3.07,7.35,4.96,7.35,4.96,0,0-3.52,.59-2.45,2.48,1.07,1.89,5.54,4.13,10.44,4.61,4.9,.47,11.51-1.3,11.51-1.3,0,0-4.47,2.36-1.39,3.66,3.09,1.3,6.61-1.65,6.61-1.65,0,0-.64,3.02,1.92,1.98,2.56-1.04,4.69-3.05,4.69-3.05,0,0,.8,4.45,2.39,3.39,1.6,1.07,2.4-3.39,2.4-3.39,0,0,2.13,2.01,4.69,3.05,2.56,1.04,1.92-1.98,1.92-1.98,0,0,3.52,2.95,6.61,1.65,3.09-1.3-1.39-3.66-1.39-3.66,0,0,6.61,1.77,11.51,1.3,4.9-.47,9.38-2.72,10.44-4.61,1.07-1.89-2.45-2.48-2.45-2.48,0,0,6.18-1.89,7.35-4.96,1.17-3.07-1.49-1.06-1.49-1.06Z"></path></g></g><g><rect x="205.47" y="190.59" width="10.17" height="34.97" transform="translate(421.12 416.14) rotate(180)" style="fill:#6f4439;"></rect><path d="M249.14,190.47s-.5-.33,.6-1.78c1.1-1.44-.6-2.22-.6-2.22-4.81,2.78-11.52,0-11.52,0,0,0,7.91-2.44,8.91-4.77,.75-1.74-.57-1.93-1.29-1.92,.81-.08,2.56-.37,3.09-1.3,.7-1.22-2.05-2.66-2.05-2.66,0,0,.45-.67,0-1.89-.45-1.22-10.77-3-10.77-3,3,.33,4.11-2.66,4.11-2.66,0,0,5.11,.11,6.31-1.89,1.2-2-.8-2.55-4.21-4.22-3.41-1.67-10.92-7.88-10.92-7.88,0,0,4.71-.44,6.01-1.55,1.3-1.11,.1-1.33,.1-1.33,5.61,.56,3.71-2.44,3.71-2.44-7.51-2.33-11.52-7.44-11.52-7.44,0,0,3.51-.78,5.31-2.44,1.8-1.67-1.5-2.11-1.5-2.11,0,0,6.61-.89,2.8-3.33-2.89-1.86-7.52-4.35-8.96-5.1,1.58,.58,5.15-.11,5.15-.11,4.21-1.89,0-4.66,0-4.66-4.91-2.78-12.12-9.77-12.12-9.77,0,0,3.61,1.89,5.41,1.33,1.8-.56-2-2.78-2-2.78,0,0,1.9,.56,2.7,0,.8-.55-2.1-3.11-2.1-3.11-4.32-2.81-9.64-10.17-11.87-13.33-2.23,3.16-7.55,10.53-11.87,13.33,0,0-2.9,2.55-2.1,3.11,.8,.56,2.7,0,2.7,0,0,0-3.81,2.22-2,2.78,1.8,.56,5.41-1.33,5.41-1.33,0,0-7.21,6.99-12.12,9.77,0,0-4.21,2.78,0,4.66,0,0,3.58,.69,5.15,.11-1.44,.75-6.07,3.25-8.96,5.1-3.81,2.44,2.8,3.33,2.8,3.33,0,0-3.31,.44-1.5,2.11,1.8,1.67,5.31,2.44,5.31,2.44,0,0-4.01,5.11-11.52,7.44,0,0-1.9,3,3.71,2.44,0,0-1.2,.22,.1,1.33,1.3,1.11,6.01,1.55,6.01,1.55,0,0-7.51,6.22-10.92,7.88-3.41,1.67-5.41,2.22-4.21,4.22,1.2,2,6.31,1.89,6.31,1.89,0,0,1.1,3,4.11,2.66,0,0-10.32,1.78-10.77,3-.45,1.22,0,1.89,0,1.89,0,0-2.75,1.44-2.05,2.66,.53,.93,2.28,1.21,3.09,1.3-.72-.01-2.03,.18-1.29,1.92,1,2.33,8.91,4.77,8.91,4.77,0,0-6.71,2.78-11.52,0,0,0-1.7,.78-.6,2.22,1.1,1.44,.6,1.78,.6,1.78,0,0-2.5-1.89-1.4,1,1.1,2.89,6.91,4.66,6.91,4.66,0,0-3.31,.56-2.3,2.33,1,1.78,5.21,3.89,9.82,4.33,4.61,.44,10.82-1.22,10.82-1.22,0,0-4.21,2.22-1.3,3.44,2.9,1.22,6.21-1.55,6.21-1.55,0,0-.6,2.84,1.8,1.86,2.4-.98,4.41-2.86,4.41-2.86,0,0,.75,4.19,2.25,3.19,1.5,1,2.25-3.19,2.25-3.19,0,0,2,1.89,4.41,2.86,2.4,.98,1.8-1.86,1.8-1.86,0,0,3.31,2.78,6.21,1.55,2.9-1.22-1.3-3.44-1.3-3.44,0,0,6.21,1.66,10.82,1.22,4.61-.44,8.81-2.55,9.82-4.33,1-1.78-2.3-2.33-2.3-2.33,0,0,5.81-1.78,6.91-4.66,1.1-2.89-1.4-1-1.4-1Z" style="fill:#455a64;"></path><path d="M226.56,124.09c-.05-.02-.11-.05-.16-.07,.06,.02,.11,.04,.16,.07Z"></path><g style="opacity:.2;"><path d="M249.14,190.47s-.5-.33,.6-1.78c1.1-1.44-.6-2.22-.6-2.22-4.81,2.78-11.52,0-11.52,0,0,0,7.91-2.44,8.91-4.77,.75-1.74-.57-1.93-1.29-1.92,.81-.08,2.56-.37,3.09-1.3,.7-1.22-2.05-2.66-2.05-2.66,0,0,.45-.67,0-1.89-.45-1.22-10.77-3-10.77-3,3,.33,4.11-2.66,4.11-2.66,0,0,5.11,.11,6.31-1.89,1.2-2-.8-2.55-4.21-4.22-3.41-1.67-10.92-7.88-10.92-7.88,0,0,4.71-.44,6.01-1.55,1.3-1.11,.1-1.33,.1-1.33,5.61,.56,3.71-2.44,3.71-2.44-7.51-2.33-11.52-7.44-11.52-7.44,0,0,3.51-.78,5.31-2.44,1.8-1.67-1.5-2.11-1.5-2.11,0,0,6.61-.89,2.8-3.33-2.89-1.86-7.52-4.35-8.96-5.1,1.58,.58,5.15-.11,5.15-.11,4.21-1.89,0-4.66,0-4.66-4.91-2.78-12.12-9.77-12.12-9.77,0,0,3.61,1.89,5.41,1.33,1.8-.56-2-2.78-2-2.78,0,0,1.9,.56,2.7,0,.8-.55-2.1-3.11-2.1-3.11-4.32-2.81-9.64-10.17-11.87-13.33-2.23,3.16-7.55,10.53-11.87,13.33,0,0-2.9,2.55-2.1,3.11,.8,.56,2.7,0,2.7,0,0,0-3.81,2.22-2,2.78,1.8,.56,5.41-1.33,5.41-1.33,0,0-7.21,6.99-12.12,9.77,0,0-4.21,2.78,0,4.66,0,0,3.58,.69,5.15,.11-1.44,.75-6.07,3.25-8.96,5.1-3.81,2.44,2.8,3.33,2.8,3.33,0,0-3.31,.44-1.5,2.11,1.8,1.67,5.31,2.44,5.31,2.44,0,0-4.01,5.11-11.52,7.44,0,0-1.9,3,3.71,2.44,0,0-1.2,.22,.1,1.33,1.3,1.11,6.01,1.55,6.01,1.55,0,0-7.51,6.22-10.92,7.88-3.41,1.67-5.41,2.22-4.21,4.22,1.2,2,6.31,1.89,6.31,1.89,0,0,1.1,3,4.11,2.66,0,0-10.32,1.78-10.77,3-.45,1.22,0,1.89,0,1.89,0,0-2.75,1.44-2.05,2.66,.53,.93,2.28,1.21,3.09,1.3-.72-.01-2.03,.18-1.29,1.92,1,2.33,8.91,4.77,8.91,4.77,0,0-6.71,2.78-11.52,0,0,0-1.7,.78-.6,2.22,1.1,1.44,.6,1.78,.6,1.78,0,0-2.5-1.89-1.4,1,1.1,2.89,6.91,4.66,6.91,4.66,0,0-3.31,.56-2.3,2.33,1,1.78,5.21,3.89,9.82,4.33,4.61,.44,10.82-1.22,10.82-1.22,0,0-4.21,2.22-1.3,3.44,2.9,1.22,6.21-1.55,6.21-1.55,0,0-.6,2.84,1.8,1.86,2.4-.98,4.41-2.86,4.41-2.86,0,0,.75,4.19,2.25,3.19,1.5,1,2.25-3.19,2.25-3.19,0,0,2,1.89,4.41,2.86,2.4,.98,1.8-1.86,1.8-1.86,0,0,3.31,2.78,6.21,1.55,2.9-1.22-1.3-3.44-1.3-3.44,0,0,6.21,1.66,10.82,1.22,4.61-.44,8.81-2.55,9.82-4.33,1-1.78-2.3-2.33-2.3-2.33,0,0,5.81-1.78,6.91-4.66,1.1-2.89-1.4-1-1.4-1Z"></path></g></g><g><rect x="61.08" y="179.22" width="13.48" height="46.34" transform="translate(135.63 404.77) rotate(180)" style="fill:#6f4439;"></rect><path d="M118.93,179.07s-.66-.44,.8-2.35c1.46-1.91-.8-2.94-.8-2.94-6.37,3.68-15.26,0-15.26,0,0,0,10.48-3.24,11.81-6.33,.99-2.31-.76-2.56-1.7-2.54,1.07-.11,3.39-.49,4.09-1.72,.93-1.62-2.72-3.53-2.72-3.53,0,0,.6-.88,0-2.5-.6-1.62-14.27-3.97-14.27-3.97,3.98,.44,5.44-3.53,5.44-3.53,0,0,6.77,.15,8.36-2.5,1.59-2.65-1.06-3.38-5.57-5.59-4.51-2.21-14.47-10.44-14.47-10.44,0,0,6.24-.59,7.96-2.06,1.73-1.47,.13-1.77,.13-1.77,7.43,.74,4.91-3.24,4.91-3.24-9.95-3.09-15.26-9.86-15.26-9.86,0,0,4.64-1.03,7.03-3.24,2.39-2.21-1.99-2.79-1.99-2.79,0,0,8.76-1.18,3.72-4.41-3.83-2.46-9.97-5.77-11.87-6.76,2.09,.77,6.83-.15,6.83-.15,5.57-2.5,0-6.18,0-6.18-6.5-3.68-16.06-12.94-16.06-12.94,0,0,4.78,2.5,7.17,1.77,2.39-.74-2.65-3.68-2.65-3.68,0,0,2.52,.74,3.58,0,1.06-.74-2.79-4.12-2.79-4.12-5.72-3.72-12.77-13.47-15.72-17.66-2.95,4.19-10,13.95-15.72,17.66,0,0-3.85,3.38-2.79,4.12,1.06,.74,3.58,0,3.58,0,0,0-5.04,2.94-2.65,3.68,2.39,.74,7.17-1.77,7.17-1.77,0,0-9.56,9.27-16.06,12.94,0,0-5.57,3.68,0,6.18,0,0,4.74,.92,6.83,.15-1.91,.99-8.04,4.3-11.87,6.76-5.04,3.24,3.72,4.41,3.72,4.41,0,0-4.38,.59-1.99,2.79,2.39,2.21,7.03,3.24,7.03,3.24,0,0-5.31,6.77-15.26,9.86,0,0-2.52,3.97,4.91,3.24,0,0-1.59,.29,.13,1.77,1.73,1.47,7.96,2.06,7.96,2.06,0,0-9.95,8.24-14.47,10.44-4.51,2.21-7.17,2.94-5.57,5.59,1.59,2.65,8.36,2.5,8.36,2.5,0,0,1.46,3.97,5.44,3.53,0,0-13.67,2.35-14.27,3.97-.6,1.62,0,2.5,0,2.5,0,0-3.65,1.91-2.72,3.53,.71,1.23,3.02,1.61,4.09,1.72-.95-.02-2.7,.24-1.7,2.54,1.33,3.09,11.81,6.33,11.81,6.33,0,0-8.89,3.68-15.26,0,0,0-2.26,1.03-.8,2.94,1.46,1.91,.8,2.35,.8,2.35,0,0-3.32-2.5-1.86,1.32,1.46,3.82,9.16,6.18,9.16,6.18,0,0-4.38,.74-3.05,3.09,1.33,2.35,6.9,5.15,13.01,5.74,6.1,.59,14.33-1.62,14.33-1.62,0,0-5.57,2.94-1.73,4.56,3.85,1.62,8.23-2.06,8.23-2.06,0,0-.8,3.76,2.39,2.47s5.84-3.79,5.84-3.79c0,0,.99,5.55,2.98,4.22,1.99,1.33,2.98-4.22,2.98-4.22,0,0,2.65,2.5,5.84,3.79s2.39-2.47,2.39-2.47c0,0,4.38,3.68,8.23,2.06,3.85-1.62-1.73-4.56-1.73-4.56,0,0,8.23,2.21,14.33,1.62,6.1-.59,11.68-3.38,13.01-5.74,1.33-2.35-3.05-3.09-3.05-3.09,0,0,7.7-2.35,9.16-6.18,1.46-3.82-1.86-1.32-1.86-1.32Z" style="fill:#455a64;"></path><path d="M89.02,91.11c-.07-.03-.14-.06-.21-.1,.07,.02,.14,.05,.21,.1Z"></path><g style="opacity:.1;"><path d="M79.03,76.02l-3.16-1.24s-1.75,2.6-5.05,.89c-3.31-1.71-5.07-5.08-5.07-5.08,0,0-4.64,3.07-5.12,1.12-.48-1.95,1.46-2.72,1.46-2.72-.15,.34-.31,.76-.12,1.09,.2,.35,.66,.34,1.03,.25,1.21-.3,2.34-1.03,3.16-2.06,.93,2.21,2.82,3.73,4.77,4.87,.85,.5,1.83,.95,2.75,.65,.92-.3,1.54-1.73,.85-2.48,1.46,1.92,3.63,3.15,5.89,3.32,.48,.04,1.11-.09,1.2-.62,.05-.31-.12-.61-.29-.86-.69-1-1.53-1.87-2.48-2.55,2.13,1.57,4.64,2.52,7.19,2.73l2.25,.3c.08,.27,.05,.49-.14,.62-1.06,.74-3.58,0-3.58,0,0,0,5.04,2.94,2.65,3.68-2.39,.74-7.17-1.77-7.17-1.77,0,0,.21,.21,.59,.56l-1.61-.7Z"></path></g><g style="opacity:.1;"><path d="M50.8,95.8l6.13-2.22s.69,3.74,4.44,3.54c0,0,3.25,.28,3.5-3.54,0,0,3.13,3.05,9.45,2.15,0,0,1.06-.14,.81-1.87,0,0,1.69,2.15,4.57,.62,2.88-1.53,.38-4.09,.38-4.09l-.39-.21c.27,.51,.53,1.13,.3,1.66-.32,.76-1.31,.71-2.03,.48-2.01-.64-3.91-1.71-5.57-3.13,.45,.53,.9,1.08,1.15,1.76,.24,.68,.24,1.52-.2,2.06-.42,.54-1.12,.67-1.76,.71-3.17,.18-6.39-1.29-8.54-3.9-.03,.99,.21,1.96,.17,2.95-.04,.99-.46,2.07-1.31,2.37-1.01,.35-2.04-.6-2.48-1.66-.45-1.06-.54-2.28-1.02-3.32-1.5,1.49-3.31,2.6-5.24,3.22-.55,.18-1.12,.31-1.68,.22-.56-.1-1.11-.48-1.31-1.07-.17-.51,.02-1.16,.43-1.42-2.46,1.12-8.15,3.11-9.27,.33-.59,1.2-.47,2.66,2.19,3.85,0,0,4.74,.92,6.83,.15-.36,.19-.87,.46-1.48,.79l1.92-.42Z"></path></g><g style="opacity:.1;"><path d="M93.51,113.88c-1.58-.24-3.12-.83-4.49-1.72-.41,1.22-1.78,1.76-2.93,1.55-1.16-.22-2.15-1-3.1-1.76-.84,1.23-2.2,2.01-3.59,2.07-1.39,.06-2.8-.59-3.73-1.74-3.87,2.86-8.48,4.98-13.1,4.35-.85-.12-1.77-.37-2.31-1.1-.55-.73-.47-2.07,.33-2.43-2.82,.61-5.76,1.22-8.55,.44-2.79-.78-5.04-3.11-4.44-6.74,.12,.57,.38,1.45,.73,2.03,.35,.57,.98,.84,1.58,1.05,4.64,1.57,9.81,1.14,14.19-1.19-.93,1.03-.29,2.95,.88,3.62s2.57,.46,3.86,.21c1.42-.27,2.84-.58,4.15-1.23,1.31-.65,2.52-1.68,3.18-3.09,.53,.95,1.09,1.92,1.9,2.58,.82,.66,1.97,.93,2.84,.37s1.16-2.11,.39-2.83c1.87,1.17,3.92,2,6.03,2.44,.53,.11,1.16,.16,1.53-.27,.37-.44,.26-1.18-.1-1.64-.13-.17-.29-.31-.47-.43,2.97,1.44,6.28,1.99,9.5,1.57l.04,.59c-2.42,1.42-5.44,2.09-5.44,2.09,0,0,.38,.48,1.12,1.24Z"></path></g><g style="opacity:.1;"><path d="M42.06,134.08c2.92-.18,5.75-1.17,8.51-2.28,4.73,3.43,11.3,3.39,15.99-.09,3.63,3.42,9.35,3.76,13.29,.78,2.09,.97,4.38,1.73,6.61,1.25,2.22-.49,4.3-2.59,4.23-5.11-1.35,1.62-3.33,2.58-5.32,2.58-1.99,0-3.97-.97-5.31-2.6-1.55,2.05-4.01,3.22-6.42,3.05-2.41-.16-4.72-1.66-6.03-3.9-3.04,2.56-7.01,3.72-10.79,3.17-1.08-.16-2.19-.48-3.01-1.27-.82-.8-1.26-2.17-.78-3.26-4.95,3.82-12.04,3.86-17.02,.08l-.04,.1c.09,.24,.31,.53,.75,.91,1.73,1.47,7.96,2.06,7.96,2.06,0,0-2.48,2.06-5.53,4.39,.97,.15,1.95,.2,2.92,.14Z"></path></g><g style="opacity:.1;"><path d="M110.8,147.67c-2.21,.47-4.47,.42-4.47,.42,0,0-1.46,3.97-5.44,3.53,0,0,1.98,.34,4.47,.85-3.01,1.16-6.51,.77-9.19-1.16-4.84,4.9-12.96,5.18-18.06,.61-4.91,4.43-12.61,4.51-17.6,.18-2.71,2.47-6.29,3.91-9.77,3.41-3.48-.5-6.76-3.12-7.88-6.81,5.43,3.87,13.12,3.29,18.02-1.36,.07,1.16,.94,2.11,1.92,2.52,.98,.41,2.06,.38,3.11,.33,4.28-.22,8.82-.89,12.14-3.89,2.12,2.78,5.5,4.31,8.77,3.96,3.27-.34,6.33-2.55,7.94-5.72,6.02,3.15,13.36,2.99,19.27-.41l-3.23,3.54Z"></path></g><g style="opacity:.1;"><path d="M84,167.13c.09,1.37-.72,2.68-1.78,3.4-1.06,.72-2.34,.93-3.58,.97-3.77,.13-7.56-1.25-10.52-3.83-2.25,2.8-5.61,4.47-8.99,4.46-3.38,0-6.74-1.69-8.98-4.5-8.41,2.36-17.6,1.04-25.2-3.59l-1.14,.63c0,.32,.08,.72,.29,1.2,1.33,3.09,11.81,6.33,11.81,6.33,0,0-1.06,.44-2.72,.86,1.81,.55,3.38,1,4.37,1.32,3.7,1.19,8.03,.51,10.8-2.45,2.56,3.01,6.28,4.77,10.01,4.73,3.73-.04,7.42-1.87,9.93-4.93,2.42,2.74,5.6,4.88,9.05,5.01,3.46,.13,7.1-2.18,8.03-5.87,4.27,1.56,9.38-.38,11.9-4.51-3.99,2.54-9.08,2.83-13.29,.77Z"></path></g></g></g></g><g id="freepik--Bottle--inject-6"><g><path d="M311.41,454.66c-1.65,0-2.06,1.06-2.06,1.06,0,0,0-1.21-1.64-1.22-1.65,0-2.2,.9-2.2,.9,0,0-.18-1.16-1.78-1.17-1.6,0-1.97,1.43-1.97,1.43,0,0,0-1.32-1.46-1.44-1.46-.11-1.93,1.26-1.93,1.26l-1.53-1.27h-5.45c-.6-.01-1.16,.2-1.56,.57l-4.18,3.92-.02,5.28v.76l4.15,3.94c.39,.37,.96,.59,1.55,.59h5.45l1.53-1.25s.46,1.38,1.92,1.27c1.46-.11,1.47-1.43,1.47-1.43,0,0,.36,1.44,1.96,1.44,1.6,0,1.79-1.16,1.79-1.16,0,0,.55,.91,2.19,.91,1.65,0,1.65-1.21,1.65-1.21,0,0,.41,1.06,2.05,1.07,1.65,0,1.97-1.02,1.97-1.02l1.87,1.43,11.52,.03s2.38-.47,2.39-2.82c0-2.35-2.55-2.62-2.55-2.62,0,0,2.52-.03,2.57-1.96v-.26c-.04-1.93-2.55-1.98-2.55-1.98,0,0,2.56-.26,2.57-2.61,0-2.35-2.37-2.83-2.37-2.83l-11.52-.03-1.88,1.42s-.32-1.02-1.96-1.03Z" style="fill:#e0e0e0;"></path><rect x="280.5" y="460.08" width="7" height="3.3" rx=".64" ry=".64" transform="translate(-178.53 744.43) rotate(-89.84)" style="fill:#0EBD50;"></rect><path d="M298.39,455.49c.13,0,.23,2.9,.22,6.48-.01,3.58-.13,6.48-.26,6.48-.13,0-.23-2.9-.22-6.48,.01-3.58,.13-6.48,.26-6.48Z" style="fill:#263238;"></path><path d="M296.85,454.33c.13,0,.23,3.35,.22,7.48-.01,4.13-.13,7.48-.27,7.48-.13,0-.23-3.35-.22-7.48,.01-4.13,.13-7.48,.27-7.48Z" style="fill:#263238;"></path><path d="M301.88,455.36c.13,0,.23,2.88,.22,6.43-.01,3.55-.13,6.43-.26,6.43-.13,0-.23-2.88-.22-6.43,.01-3.55,.13-6.43,.26-6.43Z" style="fill:#263238;"></path><path d="M305.39,455.36c.13,0,.23,2.88,.22,6.43-.01,3.55-.13,6.43-.26,6.43s-.23-2.88-.22-6.43c.01-3.55,.13-6.43,.26-6.43Z" style="fill:#263238;"></path><path d="M309.27,455.37c.13,0,.23,2.88,.22,6.43-.01,3.55-.13,6.43-.26,6.43-.13,0-.23-2.88-.22-6.43,.01-3.55,.13-6.43,.26-6.43Z" style="fill:#263238;"></path><path d="M313.14,455.38c.13,0,.23,2.88,.22,6.43-.01,3.55-.13,6.43-.26,6.43-.13,0-.23-2.88-.22-6.43,.01-3.55,.13-6.43,.26-6.43Z" style="fill:#263238;"></path><path d="M315.33,454.26c.13,0,.23,3.38,.22,7.54-.01,4.17-.13,7.54-.27,7.54-.13,0-.23-3.38-.22-7.54,.01-4.16,.13-7.54,.27-7.54Z" style="fill:#263238;"></path></g></g><g id="freepik--Garbage_bag--inject-6"><g><g><g><polygon points="225.67 398.55 237.26 402.42 233.74 416.91 219.65 412.2 225.67 398.55" style="fill:#0EBD50;"></polygon><rect x="217.82" y="413.15" width="17.95" height="2.02" transform="translate(310.59 878.86) rotate(-161.52)" style="fill:#0EBD50;"></rect><path d="M218.72,410.27c.04-.13,3.84,1.02,8.48,2.57,4.64,1.55,8.36,2.91,8.32,3.05-.04,.13-3.84-1.02-8.48-2.57-4.64-1.55-8.36-2.91-8.32-3.05Z" style="fill:#263238;"></path></g><path d="M274.25,465.25c3.03-11.65,.77-24.36-6.41-34.54,2.16-.43,2.5-3.28,1.07-4.76-1.43-1.48-3.77-1.95-5.92-2.39-6.81-1.41-13.44-3.5-19.72-6.21-9.74-4.2-19.19-10.03-30.04-10.33-1.79-.05-3.73,.1-5.1,1.13-1.43,1.07-1.89,2.89-1.62,4.53,.26,1.63,1.14,3.14,2,4.6-4.46,.18-8.4,3.76-8.45,7.68-.03,1.98,.8,3.97,.3,5.89-.76,2.91-4.14,4.54-6.62,6.57-4.74,3.88-6.56,10.04-5.56,15.66,1,5.62,4.54,10.72,9.04,14.81h0c2.38,2.43,5.84,3.83,9.49,3.83h58.16c4.45,0,8.38-2.66,9.37-6.47Z" style="fill:#263238;"></path><path d="M250.78,430.28s-.62,.01-1.75-.06c-1.12-.06-2.74-.23-4.74-.5-3.99-.53-9.46-1.64-15.31-3.49-5.86-1.86-10.97-4.08-14.58-5.85-1.8-.89-3.25-1.64-4.22-2.2-.98-.55-1.51-.87-1.5-.9,.02-.03,.58,.23,1.59,.72,1,.5,2.47,1.2,4.29,2.05,3.64,1.68,8.75,3.84,14.58,5.69,5.83,1.84,11.25,3,15.21,3.62,1.98,.32,3.59,.54,4.7,.66,1.11,.13,1.73,.23,1.73,.26Z" style="fill:#455a64;"></path><path d="M201.97,432.48s.18,.04,.51,.16c.38,.15,.85,.33,1.42,.55,1.29,.53,3.04,1.24,5.17,2.11,2.2,.92,4.79,2,7.65,3.19,.72,.3,1.46,.61,2.21,.93,.74,.32,1.54,.64,2.24,1.24,.69,.58,1.18,1.6,.85,2.59-.16,.5-.6,.88-1.06,1.05-.47,.18-.95,.21-1.41,.22-7.24,0-13.72-1.21-18.27-2.47-2.28-.63-4.09-1.25-5.32-1.72-.62-.23-1.09-.43-1.41-.56-.32-.14-.48-.22-.48-.23,0-.02,.18,.03,.51,.13,.39,.13,.86,.28,1.44,.47,1.25,.41,3.07,.97,5.35,1.55,4.55,1.17,11,2.31,18.17,2.31,.85,0,1.76-.2,1.99-.93,.23-.71-.11-1.55-.7-2.03-.6-.52-1.36-.84-2.11-1.17-.75-.32-1.48-.64-2.2-.94-2.84-1.23-5.41-2.34-7.59-3.29-2.1-.93-3.83-1.7-5.11-2.26-.55-.26-1.01-.47-1.38-.64-.31-.15-.47-.24-.47-.26Z" style="fill:#455a64;"></path></g><g style="opacity:.4;"><g><path d="M256.23,449.15s1.79,1.78,.97,3.69c-.82,1.91-3.53,5.56-3.53,5.56,0,0-.4-2.92-2.86-6.17l-1.61,.89,1.73-6.79,6.52,1.93-1.23,.89Z" style="fill:#fff;"></path><path d="M252.87,459.82s-.75,1.42-2.58,1.74-5.84,.08-5.84,.08l.07-6.05,7.02,.09s1.2,1.53,1.32,4.15Z" style="fill:#fff;"></path></g><g><path d="M236.23,439.8s.56-2.46,2.61-2.78c2.05-.32,6.58,.03,6.58,.03,0,0-2.26,1.89-3.7,5.7l1.61,.89-6.67,2.14-1.83-6.55,1.41,.57Z" style="fill:#fff;"></path><path d="M247.06,436.97s1.61-.12,2.84,1.26c1.24,1.38,3.17,4.9,3.17,4.9l-5.16,3.15-3.66-5.99s.66-1.83,2.81-3.32Z" style="fill:#fff;"></path></g><g><path d="M237.13,461.58s-2.45,.59-3.65-1.11c-1.2-1.7-2.89-5.91-2.89-5.91,0,0,2.7,1.19,6.75,.79l.09-1.84,4.87,5.03-5.06,4.55-.12-1.51Z" style="fill:#fff;"></path><path d="M229.8,453.14s-.82-1.39-.13-3.11c.69-1.72,2.99-5.02,2.99-5.02l5.11,3.23-3.75,5.94s-1.93,.22-4.22-1.05Z" style="fill:#fff;"></path></g></g><path d="M269.01,453.16s-.53,.06-1.49,.08c-.96,.02-2.34,0-4.06-.07-3.42-.14-8.15-.6-13.28-1.62-5.13-1.03-9.68-2.41-12.89-3.59-1.61-.59-2.9-1.1-3.77-1.49-.88-.38-1.36-.61-1.34-.64,.01-.03,.52,.13,1.42,.46,.9,.33,2.2,.79,3.82,1.33,3.24,1.08,7.77,2.41,12.87,3.43,5.11,1.01,9.8,1.53,13.2,1.76,1.7,.12,3.08,.2,4.04,.23,.95,.04,1.48,.09,1.48,.12Z" style="fill:#455a64;"></path></g></g><g id="freepik--Plants--inject-6"><g><path d="M276.27,283.54c-.13,.07-1.85-3.04-3.85-6.93-2-3.89-3.52-7.1-3.39-7.17,.13-.07,1.85,3.04,3.85,6.93,2,3.89,3.52,7.1,3.39,7.17Z" style="fill:#263238;"></path><path d="M281.19,281.27c-.14,.05-1.37-3.06-2.76-6.95-1.39-3.89-2.41-7.08-2.27-7.12,.14-.05,1.37,3.06,2.76,6.95,1.39,3.89,2.4,7.07,2.27,7.12Z" style="fill:#263238;"></path><path d="M286.11,281.26c-.14-.01,0-3.69,.32-8.21,.32-4.53,.69-8.18,.84-8.17,.14,.01,0,3.69-.32,8.21-.32,4.52-.69,8.18-.84,8.17Z" style="fill:#263238;"></path></g><g><path d="M138.81,277.99c-.13,.07-1.85-3.04-3.85-6.93-2-3.89-3.52-7.1-3.39-7.17,.13-.07,1.85,3.04,3.85,6.93,2,3.89,3.52,7.1,3.39,7.17Z" style="fill:#263238;"></path><path d="M143.73,275.72c-.14,.05-1.37-3.06-2.76-6.95-1.39-3.89-2.41-7.08-2.27-7.12,.14-.05,1.37,3.06,2.76,6.95,1.39,3.89,2.4,7.07,2.27,7.12Z" style="fill:#263238;"></path><path d="M148.65,275.71c-.14-.01,0-3.69,.32-8.21,.32-4.53,.69-8.18,.84-8.17,.14,.01,0,3.69-.32,8.21-.32,4.52-.69,8.18-.84,8.17Z" style="fill:#263238;"></path></g><g><path d="M238.97,365.69c-.13,.07-1.85-3.04-3.85-6.93-2-3.89-3.52-7.1-3.39-7.17,.13-.07,1.85,3.04,3.85,6.93,2,3.89,3.52,7.1,3.39,7.17Z" style="fill:#263238;"></path><path d="M243.89,363.42c-.14,.05-1.37-3.06-2.76-6.95-1.39-3.89-2.41-7.08-2.27-7.12,.14-.05,1.37,3.06,2.76,6.95,1.39,3.89,2.4,7.07,2.27,7.12Z" style="fill:#263238;"></path><path d="M248.81,363.41c-.14-.01,0-3.69,.32-8.21,.32-4.53,.69-8.18,.84-8.17,.14,.01,0,3.69-.32,8.21-.32,4.52-.69,8.18-.84,8.17Z" style="fill:#263238;"></path></g><g><path d="M450.67,385.97c-.13,.07-1.85-3.04-3.85-6.93-2-3.89-3.52-7.1-3.39-7.17,.13-.07,1.85,3.04,3.85,6.93,2,3.89,3.52,7.1,3.39,7.17Z" style="fill:#263238;"></path><path d="M455.58,383.7c-.14,.05-1.37-3.06-2.76-6.95-1.39-3.89-2.41-7.08-2.27-7.12,.14-.05,1.37,3.06,2.76,6.95,1.39,3.89,2.4,7.08,2.27,7.12Z" style="fill:#263238;"></path><path d="M460.51,383.69c-.14-.01,0-3.69,.32-8.21,.32-4.53,.69-8.18,.84-8.17,.14,.01,0,3.69-.32,8.21-.32,4.52-.69,8.18-.84,8.17Z" style="fill:#263238;"></path></g><g><path d="M426.85,322.71c-.13,.07-1.85-3.04-3.85-6.93-2-3.89-3.52-7.1-3.39-7.17,.13-.07,1.85,3.04,3.85,6.93,2,3.89,3.52,7.1,3.39,7.17Z" style="fill:#263238;"></path><path d="M431.77,320.44c-.14,.05-1.37-3.06-2.76-6.95-1.39-3.89-2.41-7.08-2.27-7.12,.14-.05,1.37,3.06,2.76,6.95,1.39,3.89,2.4,7.07,2.27,7.12Z" style="fill:#263238;"></path><path d="M436.69,320.43c-.14-.01,0-3.69,.32-8.21,.32-4.53,.69-8.18,.84-8.17,.14,.01,0,3.69-.32,8.21-.32,4.52-.69,8.18-.84,8.17Z" style="fill:#263238;"></path></g><g><path d="M33.34,398.15c-.13,.07-1.85-3.04-3.85-6.93-2-3.89-3.52-7.1-3.39-7.17,.13-.07,1.85,3.04,3.85,6.93,2,3.89,3.52,7.1,3.39,7.17Z" style="fill:#263238;"></path><path d="M38.26,395.88c-.14,.05-1.37-3.06-2.76-6.95-1.39-3.89-2.41-7.08-2.27-7.12,.14-.05,1.37,3.06,2.76,6.95,1.39,3.89,2.4,7.07,2.27,7.12Z" style="fill:#263238;"></path><path d="M43.18,395.87c-.14-.01,0-3.69,.32-8.21,.32-4.53,.69-8.18,.84-8.17,.14,.01,0,3.69-.32,8.21-.32,4.52-.69,8.18-.84,8.17Z" style="fill:#263238;"></path></g></g><g id="freepik--Speech_Bubble_1--inject-6"><g><path d="M196.89,314.64l2.58-5.75c-1-3.65-1.03-7.61,.12-11.5,3.29-11.2,15.03-17.61,26.23-14.32,11.2,3.29,17.61,15.03,14.32,26.23-3.29,11.2-15.03,17.61-26.23,14.32-4.68-1.37-8.51-4.22-11.16-7.89h0l-5.86-1.09Z" style="fill:#fff;"></path><g><path d="M196.89,314.64s.11,.03,.36,.08c.27,.06,.64,.13,1.11,.23,1.02,.2,2.48,.5,4.37,.87,.05,0,.09-.02,.1-.07,0-.02,0-.03,0-.05h0l-.15,.07c1.53,2.15,4.03,4.78,7.83,6.67,.95,.46,1.97,.88,3.05,1.22,.54,.18,1.11,.28,1.68,.43,.29,.06,.57,.15,.87,.2,.3,.04,.6,.08,.9,.12,2.41,.34,5.05,.28,7.72-.34,2.66-.62,5.35-1.8,7.76-3.58,2.41-1.77,4.55-4.13,6.1-6.95,1.56-2.81,2.46-6.1,2.58-9.49,.11-1.7-.12-3.42-.42-5.12-.41-1.68-.91-3.38-1.72-4.95-.74-1.6-1.75-3.03-2.82-4.37-1.14-1.28-2.34-2.51-3.73-3.47-2.71-1.99-5.82-3.31-8.97-3.83-3.15-.54-6.3-.34-9.17,.44-2.87,.77-5.45,2.12-7.59,3.8-4.31,3.38-6.72,7.97-7.63,12.05-.93,4.13-.46,7.74,.26,10.3v-.06c-.81,1.88-1.44,3.33-1.87,4.33l-.47,1.1c-.1,.24-.15,.37-.15,.36,0,0,.07-.13,.19-.38,.12-.27,.3-.63,.52-1.1,.45-.98,1.11-2.4,1.95-4.23,0-.02,0-.04,0-.06-.68-2.55-1.1-6.13-.16-10.19,.92-4.03,3.33-8.52,7.58-11.83,2.11-1.64,4.65-2.95,7.47-3.71,2.82-.76,5.91-.94,8.99-.41,3.09,.51,6.13,1.81,8.79,3.76,1.36,.94,2.53,2.15,3.65,3.4,1.05,1.32,2.04,2.72,2.76,4.28,.8,1.54,1.29,3.2,1.69,4.85,.3,1.67,.52,3.35,.42,5.02-.12,3.32-.99,6.54-2.52,9.3-1.52,2.77-3.61,5.09-5.97,6.83-2.36,1.75-4.99,2.92-7.61,3.54-2.62,.62-5.22,.69-7.59,.37-.3-.04-.59-.08-.89-.12-.29-.04-.57-.13-.86-.19-.56-.14-1.13-.24-1.66-.42-1.07-.33-2.08-.73-3.02-1.18-3.76-1.83-6.25-4.41-7.81-6.52-.03-.04-.08-.05-.12-.02-.03,.02-.04,.07-.03,.1h0l.1-.11c-1.87-.33-3.33-.58-4.33-.76-.48-.08-.86-.15-1.14-.19-.26-.04-.4-.06-.4-.06Z" style="fill:#263238;"></path><path d="M219.97,324.88c-1,0-2-.07-3-.21l-.9-.12c-.2-.03-.4-.08-.6-.13-.1-.02-.2-.05-.29-.07-.21-.05-.4-.1-.6-.15-.37-.09-.75-.17-1.11-.29-1.05-.33-2.09-.75-3.09-1.23-3.81-1.89-6.29-4.53-7.74-6.5l-.06,.07-.09-.21-5.3-1.07c-.07-.01-.13-.03-.18-.04l-.06,.11-.21-.19s-.07-.05-.08-.09c-.02-.03-.03-.07-.03-.12l-.05-.29,.13,.02c.02-.05,.05-.12,.08-.19l2.3-5.32c-.65-2.35-1.2-6.02-.23-10.31,1.05-4.72,3.86-9.17,7.72-12.19,2.25-1.77,4.91-3.1,7.68-3.84,3-.81,6.21-.97,9.28-.44,3.2,.53,6.34,1.87,9.08,3.87,1.49,1.03,2.74,2.35,3.77,3.51,1.34,1.68,2.22,3.04,2.86,4.43,.87,1.68,1.37,3.47,1.74,5,.28,1.55,.54,3.37,.43,5.2-.13,3.42-1.03,6.74-2.61,9.59-1.51,2.75-3.65,5.18-6.17,7.03-2.34,1.72-5.05,2.97-7.85,3.62-1.58,.37-3.2,.56-4.81,.56Zm-16.87-9.24c1.42,1.9,3.87,4.5,7.63,6.33,.96,.46,1.97,.86,2.98,1.17,.34,.11,.68,.19,1.04,.27,.2,.05,.41,.09,.61,.14,.09,.02,.2,.04,.3,.07,.18,.04,.35,.09,.53,.12l.88,.12c2.52,.34,5.05,.22,7.5-.37,2.68-.63,5.28-1.84,7.52-3.5,2.42-1.78,4.46-4.11,5.9-6.75,1.51-2.73,2.37-5.91,2.49-9.19,.11-1.73-.15-3.48-.41-4.96-.36-1.46-.84-3.18-1.67-4.78-.78-1.7-1.87-3.16-2.73-4.24-.98-1.1-2.19-2.38-3.6-3.35-2.63-1.93-5.63-3.21-8.69-3.72-2.94-.51-6.01-.37-8.89,.4-2.66,.71-5.21,1.98-7.38,3.66-3.72,2.89-6.45,7.15-7.49,11.68-.84,3.63-.56,6.81-.08,9.09l.19-.45-.08,.96c.04,.16,.08,.32,.12,.47l.02,.09-.04,.14-.19,.41-.07,.82-.12-.41-2.09,4.52-.04,.08s.04,0,.06,0l5.39,.94s.08,0,.12,.01l.12-.06,.04,.1,.23,.04-.13,.16Z" style="fill:#263238;"></path></g><g><g><path d="M230.39,302.97s1.52,1.51,.82,3.14c-.7,1.62-3,4.72-3,4.72,0,0-.34-2.48-2.43-5.24l-1.37,.75,1.47-5.77,5.54,1.64-1.04,.76Z" style="fill:#455a64;"></path><path d="M227.54,312.04s-.64,1.21-2.19,1.48c-1.55,.27-4.96,.07-4.96,.07l.06-5.14,5.97,.07s1.02,1.3,1.12,3.52Z" style="fill:#455a64;"></path></g><g><path d="M213.4,295.03s.47-2.09,2.22-2.36c1.75-.27,5.59,.03,5.59,.03,0,0-1.92,1.61-3.14,4.85l1.37,.76-5.67,1.82-1.56-5.57,1.2,.48Z" style="fill:#455a64;"></path><path d="M222.6,292.62s1.36-.1,2.42,1.07c1.05,1.17,2.7,4.16,2.7,4.16l-4.39,2.68-3.11-5.09s.56-1.56,2.39-2.82Z" style="fill:#455a64;"></path></g><g><path d="M214.17,313.53s-2.09,.5-3.1-.94-2.45-5.03-2.45-5.03c0,0,2.29,1.01,5.74,.67l.07-1.56,4.14,4.28-4.3,3.86-.1-1.29Z" style="fill:#455a64;"></path><path d="M207.94,306.36s-.7-1.18-.11-2.64c.59-1.46,2.54-4.26,2.54-4.26l4.35,2.75-3.19,5.05s-1.64,.18-3.59-.89Z" style="fill:#455a64;"></path></g></g></g></g><g id="freepik--Speech_Bubble_2--inject-6"><g><path d="M355.49,269.27l2.41-5.97c-1.15-3.68-1.34-7.72-.32-11.73,2.93-11.55,14.67-18.53,26.21-15.6,11.55,2.93,18.53,14.66,15.6,26.21-2.93,11.55-14.67,18.53-26.21,15.6-4.82-1.22-8.84-3.99-11.68-7.62h0l-6.02-.89Z" style="fill:#fff;"></path><g><path d="M355.49,269.27s.12,.03,.37,.07l1.14,.19c1.04,.17,2.55,.41,4.49,.72,.05,0,.09-.03,.1-.07,0-.02,0-.04,0-.05h0l-.15,.08c1.65,2.13,4.29,4.73,8.24,6.5,.98,.44,2.04,.82,3.16,1.13,.56,.16,1.15,.25,1.73,.38,.3,.05,.59,.13,.9,.17,.3,.03,.61,.06,.92,.09,2.47,.26,5.17,.1,7.86-.64,2.69-.73,5.38-2.04,7.78-3.94,2.39-1.89,4.49-4.38,5.96-7.32,1.48-2.93,2.27-6.31,2.28-9.78,.04-1.74-.25-3.48-.62-5.21-.48-1.7-1.05-3.41-1.95-4.99-.81-1.6-1.9-3.02-3.04-4.35-1.21-1.27-2.48-2.47-3.94-3.4-2.84-1.93-6.07-3.15-9.3-3.56-3.23-.43-6.44-.11-9.34,.79-2.9,.9-5.48,2.37-7.6,4.16-4.26,3.61-6.56,8.38-7.32,12.58-.79,4.24-.18,7.91,.66,10.5v-.06c-.76,1.94-1.34,3.45-1.75,4.49-.19,.49-.33,.86-.44,1.14-.1,.25-.14,.38-.13,.38,0,0,.07-.14,.18-.4,.12-.28,.28-.66,.49-1.15,.42-1.02,1.04-2.49,1.83-4.39,0-.02,0-.04,0-.06-.79-2.58-1.36-6.21-.55-10.39,.79-4.14,3.08-8.82,7.28-12.35,2.09-1.75,4.63-3.19,7.48-4.06,2.84-.88,5.99-1.18,9.16-.76,3.17,.41,6.32,1.61,9.11,3.5,1.42,.91,2.67,2.09,3.85,3.33,1.12,1.31,2.18,2.7,2.97,4.27,.87,1.54,1.44,3.22,1.91,4.89,.37,1.69,.66,3.4,.61,5.1,0,3.39-.77,6.71-2.22,9.58-1.44,2.88-3.49,5.32-5.83,7.19-2.34,1.87-4.98,3.17-7.63,3.9-2.65,.74-5.29,.91-7.73,.67-.31-.03-.61-.06-.91-.09-.3-.03-.59-.11-.88-.16-.58-.13-1.16-.21-1.71-.36-1.11-.29-2.15-.67-3.13-1.09-3.9-1.73-6.55-4.26-8.21-6.35-.03-.04-.09-.05-.13-.02-.03,.03-.04,.07-.03,.11h0l.1-.11c-1.92-.26-3.41-.47-4.45-.61-.5-.07-.88-.12-1.17-.15-.27-.03-.41-.05-.41-.05Z" style="fill:#263238;"></path><path d="M378.62,278.84c-.75,0-1.51-.04-2.26-.12l-.92-.09c-.21-.02-.4-.07-.6-.11-.11-.02-.21-.04-.31-.06-.22-.05-.42-.09-.63-.13-.37-.07-.76-.15-1.13-.25-1.09-.3-2.17-.68-3.19-1.14-3.96-1.79-6.59-4.38-8.14-6.34l-.08,.1-.09-.24-5.43-.88c-.07-.01-.14-.02-.19-.03l-.05,.1-.22-.17s-.07-.04-.09-.07c-.03-.03-.04-.07-.04-.12l-.07-.3h.15s.04-.11,.07-.19l2.15-5.51c-.75-2.38-1.45-6.09-.63-10.5,.89-4.85,3.59-9.49,7.41-12.73,2.23-1.89,4.88-3.34,7.69-4.21,3.03-.94,6.29-1.22,9.44-.8,3.29,.42,6.54,1.66,9.41,3.6,1.56,1,2.89,2.3,3.98,3.43,1.43,1.66,2.38,3.02,3.08,4.41,.95,1.68,1.53,3.49,1.96,5.03,.34,1.57,.68,3.42,.63,5.28,0,3.5-.8,6.91-2.3,9.88-1.44,2.86-3.52,5.42-6.03,7.4-2.32,1.84-5.04,3.22-7.87,3.99-1.86,.51-3.77,.77-5.69,.77Zm-16.76-8.8c1.52,1.88,4.12,4.44,8.03,6.17,1,.43,2.04,.8,3.09,1.08,.35,.1,.7,.16,1.07,.23,.21,.04,.42,.08,.63,.12,.1,.02,.2,.04,.31,.06,.18,.04,.36,.08,.55,.1l.9,.08c2.59,.26,5.16,.03,7.64-.66,2.72-.75,5.32-2.08,7.54-3.85,2.4-1.91,4.39-4.37,5.76-7.11,1.44-2.84,2.19-6.12,2.19-9.47,.04-1.77-.28-3.54-.61-5.05-.42-1.47-.97-3.21-1.88-4.81-.86-1.7-2.03-3.15-2.95-4.23-1.04-1.09-2.32-2.34-3.8-3.29-2.75-1.87-5.86-3.06-9-3.47-3.02-.41-6.15-.15-9.05,.75-2.69,.83-5.24,2.21-7.39,4.02-3.68,3.09-6.3,7.54-7.2,12.21-.72,3.74-.32,6.99,.27,9.29l.16-.4-.03,.88c.05,.17,.1,.34,.15,.5,.02,.07,.02,.16-.01,.23l-.17,.41-.03,.94-.16-.49-1.96,4.68s-.03,.06-.04,.09h.07l5.53,.76s.05,0,.08,0c.01,0,.03,0,.04,0l.12-.07,.04,.1,.24,.03-.13,.17Z" style="fill:#263238;"></path></g><polygon points="367.57 257.65 370.5 254.72 376.14 259.74 387.21 249.08 389.92 252.01 375.72 265.38 367.57 257.65" style="fill:#0EBD50;"></polygon></g></g><g id="freepik--Character_3--inject-6"><g><g><path d="M298.26,368.35c-.51-1.67-1.71-1.76-1.71-1.76,0,0,1.23-.37,.73-2.04-.51-1.67-1.6-1.95-1.6-1.95,0,0,1.12-.54,.63-2.17-.49-1.63-2.06-1.55-2.06-1.55,0,0,1.34-.41,1.01-1.92-.34-1.52-1.88-1.57-1.88-1.57l.82-1.94-1.67-5.53c-.18-.6-.57-1.12-1.07-1.4l-5.28-3.03-5.36,1.62-.77,.23-2.71,5.44c-.26,.51-.3,1.15-.11,1.76l1.67,5.53,1.76,1.16s-1.26,.89-.69,2.35c.56,1.45,1.9,1.05,1.9,1.05,0,0-1.35,.81-.86,2.43,.49,1.63,1.73,1.45,1.73,1.45,0,0-.75,.84-.25,2.51,.51,1.67,1.74,1.3,1.74,1.3,0,0-.95,.74-.44,2.41s1.64,1.68,1.64,1.68l-.87,2.34,3.54,11.7s1.22,2.27,3.6,1.55c2.39-.72,1.87-3.4,1.87-3.4,0,0,.81,2.54,2.79,2l.26-.08c1.95-.64,1.21-3.2,1.21-3.2,0,0,1.06,2.52,3.44,1.8,2.39-.72,2.14-3.28,2.14-3.28l-3.54-11.7-2.03-1.47s.94-.64,.43-2.31Z" style="fill:#e0e0e0;"></path><rect x="278.88" y="340.98" width="7.42" height="3.5" rx=".64" ry=".64" transform="translate(-87.06 96.4) rotate(-16.81)" style="fill:#0EBD50;"></rect><path d="M293.37,355.4c.04,.14-2.87,1.13-6.5,2.23-3.63,1.1-6.61,1.87-6.65,1.74-.04-.14,2.87-1.13,6.5-2.23,3.63-1.1,6.61-1.87,6.65-1.74Z" style="fill:#263238;"></path><path d="M294.08,353.48c.04,.14-3.33,1.27-7.52,2.54-4.2,1.27-7.63,2.18-7.67,2.04-.04-.14,3.33-1.27,7.52-2.54,4.19-1.26,7.63-2.18,7.67-2.04Z" style="fill:#263238;"></path><path d="M294.6,358.91c.04,.14-2.85,1.13-6.45,2.21-3.61,1.09-6.56,1.86-6.6,1.72-.04-.14,2.85-1.13,6.45-2.22,3.6-1.09,6.56-1.86,6.6-1.72Z" style="fill:#263238;"></path><path d="M295.68,362.47c.04,.14-2.85,1.13-6.45,2.21-3.61,1.09-6.56,1.86-6.6,1.72-.04-.14,2.85-1.13,6.45-2.21,3.6-1.09,6.56-1.86,6.6-1.72Z" style="fill:#263238;"></path><path d="M296.87,366.41c.04,.14-2.85,1.13-6.45,2.21-3.61,1.09-6.56,1.86-6.6,1.72-.04-.14,2.85-1.13,6.45-2.22,3.6-1.09,6.56-1.86,6.6-1.72Z" style="fill:#263238;"></path><path d="M298.06,370.34c.04,.14-2.85,1.13-6.45,2.21-3.61,1.09-6.56,1.86-6.6,1.72-.04-.14,2.85-1.13,6.45-2.21,3.6-1.09,6.56-1.86,6.6-1.72Z" style="fill:#263238;"></path><path d="M299.87,372.21c.04,.14-3.36,1.28-7.59,2.56-4.23,1.28-7.69,2.2-7.74,2.06-.04-.14,3.35-1.28,7.59-2.56,4.23-1.28,7.69-2.2,7.73-2.06Z" style="fill:#263238;"></path></g><path d="M334.05,349.86c.56,.76-12.47,34.03-12.47,34.03l-20.21,29.87,8.82,9.72s27.25-28.67,32.14-36.81c4.89-8.14,13.52-33.43,13.52-33.43l-21.79-3.38Z" style="fill:#ff9a6c;"></path><polygon points="341.74 328.17 331.49 352.89 352.66 366.13 360.9 344.58 341.74 328.17" style="fill:#0EBD50;"></polygon><g><g><g><path d="M348.23,288.13c-.79-3.88-1.6-7.77-3.05-11.46-1.44-3.68-3.56-7.18-6.59-9.73-.46-.39-3.87-2.79-4.36-2.45-.35,.25,2.34,2.77,2.33,3.2-.05,4.09,1.56,8.07,3.85,11.46,2.29,3.39,4.84,6.16,7.81,8.98" style="fill:#263238;"></path><path d="M358.18,306.75l-17.57-31.36c-4.61-8.79-13.03-14.04-21.7-9.2l-.91,.58c-7.72,4.93-10.36,14.96-6.06,23.05,4.05,7.64,8.65,16.06,11.19,19.93,5.23,7.96,14.05,4.08,14.05,4.08,.02-.01,3.27,6.09,4.67,8.51,0,0,1.24,.1,8.96-4.28,7.72-4.38,7.37-11.32,7.37-11.32Z" style="fill:#ffbf9d;"></path><path d="M337.18,313.84s5.25-2.93,8.48-9.77c0,0,1.18,7.47-7.29,11.86l-1.19-2.09Z" style="fill:#ff9a6c;"></path><path d="M319.85,296.01c.36,.62,1.19,.82,1.84,.45,.65-.37,.89-1.17,.52-1.79-.37-.62-1.19-.82-1.84-.45-.65,.37-.89,1.17-.52,1.79Z" style="fill:#263238;"></path><path d="M316.73,293.04c.24,.06,.7-1.14,1.93-1.92,1.22-.8,2.53-.75,2.57-.98,.02-.11-.29-.29-.87-.32-.57-.04-1.41,.11-2.18,.6-.77,.5-1.23,1.19-1.42,1.72-.19,.53-.15,.89-.04,.91Z" style="fill:#263238;"></path><path d="M330.24,289.43c.37,.62,1.19,.82,1.84,.45,.65-.37,.89-1.17,.52-1.79-.37-.62-1.19-.82-1.84-.45-.65,.37-.89,1.17-.52,1.79Z" style="fill:#263238;"></path><path d="M328.24,286.22c.24,.06,.7-1.14,1.93-1.92,1.22-.8,2.53-.74,2.57-.98,.02-.11-.29-.29-.87-.32-.57-.04-1.41,.11-2.18,.6-.77,.5-1.23,1.19-1.42,1.72-.19,.53-.15,.89-.04,.91Z" style="fill:#263238;"></path><path d="M330.37,298.19c-.04-.07-.89,.28-2.23,.92-.34,.17-.67,.3-.86,.12-.22-.18-.3-.6-.39-1.07-.19-.95-.39-1.95-.6-2.99-.89-4.24-1.74-7.65-1.92-7.61-.17,.04,.41,3.5,1.3,7.75,.23,1.04,.44,2.03,.65,2.98,.11,.43,.16,.97,.63,1.34,.23,.18,.58,.2,.81,.13,.24-.07,.42-.18,.58-.27,1.29-.73,2.07-1.22,2.03-1.29Z" style="fill:#263238;"></path><path d="M325.98,282.21c.33,.26,1.47-.68,3.03-1.43,1.55-.77,2.99-1.09,2.99-1.51,0-.2-.41-.39-1.09-.41-.67-.03-1.62,.14-2.55,.59-.93,.46-1.64,1.1-2.03,1.65-.4,.55-.5,.99-.34,1.11Z" style="fill:#263238;"></path><path d="M313.65,289.04c.42,.15,1.29-.71,2.52-1.39,1.21-.72,2.4-1.03,2.48-1.47,.03-.21-.3-.41-.91-.44-.6-.03-1.48,.15-2.32,.63-.84,.48-1.44,1.14-1.71,1.68-.28,.54-.26,.92-.07,1Z" style="fill:#263238;"></path><path d="M343.72,281.69c.1-.15,4.47-5.15,7.8,.45,3.33,5.6-2.98,7.79-3.08,7.63-.11-.15-4.72-8.08-4.72-8.08Z" style="fill:#ffbf9d;"></path><path d="M348.99,286.6s.14,.01,.35-.01c.2-.02,.51-.14,.74-.42,.46-.57,.4-1.8-.17-2.83-.29-.52-.68-.94-1.1-1.23-.41-.31-.85-.44-1.18-.31-.34,.11-.44,.41-.42,.61,.02,.2,.12,.29,.1,.32,0,.02-.18-.02-.27-.28-.04-.13-.06-.3,.01-.48,.07-.19,.23-.36,.45-.46,.45-.23,1.07-.06,1.54,.26,.49,.31,.94,.78,1.27,1.36,.64,1.15,.69,2.55,.01,3.26-.33,.34-.73,.41-.98,.38-.26-.04-.36-.14-.35-.16Z" style="fill:#ff9a6c;"></path><path d="M310.22,278.52c-1.2,.03-.19-4.51,1.46-6.84,2.49-3.51,7.1-7.46,10.74-8.4,4.38-1.12,8.59-1.07,12.46,1.25,3.88,2.32,6.91,5.89,9.07,9.86,.66,1.21,1.26,2.52,1.21,3.9-.06,1.7-1.11,3.37-.05,5.04,.39,.61,.58,1.35,.42,2.06-.39,1.7-2.25,1.4-3.43,.71-2.52-1.48-4.19-4.04-5.77-6.5-1.12-1.75-2.27-3.54-2.76-5.56-.27-1.1-.35-2.24-.68-3.32-.33-1.08-.99-2.15-2.04-2.58-.17-.07-.42-.14-.73-.2-2.41-.47-4.88,.41-6.47,2.29-2.52,2.97-6.95,7.8-8.99,7.55-2.94-.36-4.01-1.09-4.01-1.09l-.43,1.83Z" style="fill:#263238;"></path></g><path d="M333.62,301.38c.06,.09,.46-.01,.98-.42,.52-.4,1.11-1.14,1.44-2.09,.33-.96,.33-1.9,.17-2.53-.15-.64-.4-.97-.5-.94-.23,.08,.12,1.54-.48,3.19-.56,1.67-1.75,2.59-1.61,2.79Z" style="fill:#263238;"></path></g><g><path d="M330.02,434.82l.86,21.8s-21.87,8.19-22.1,12.24l42.33-.14,.06-34.02-21.14,.13Z" style="fill:#263238;"></path><path d="M343.96,454.74c.82,.22,1.39,1.14,1.2,1.97-.19,.83-1.12,1.42-1.94,1.21-.82-.21-1.54-1.29-1.26-2.09,.28-.8,1.41-1.43,2.16-1.03" style="fill:#e0e0e0;"></path><path d="M351.1,468.71l-.13-3.43-40.53,1.42s-1.88,.83-1.66,2.15l42.33-.14Z" style="fill:#455a64;"></path><path d="M330.19,456.41c0,.21,1.04,.3,2.06,.96,1.04,.63,1.56,1.53,1.75,1.45,.19-.04-.12-1.28-1.37-2.05-1.24-.79-2.49-.54-2.44-.35Z" style="fill:#e0e0e0;"></path><path d="M325.75,458.26c-.05,.2,.85,.55,1.55,1.42,.73,.85,.91,1.8,1.12,1.79,.19,.03,.33-1.18-.56-2.25-.89-1.08-2.1-1.16-2.11-.96Z" style="fill:#e0e0e0;"></path><path d="M323.25,463.58c.19,.04,.47-.99-.06-2.12-.53-1.13-1.5-1.58-1.59-1.4-.12,.17,.51,.78,.94,1.71,.45,.92,.51,1.8,.71,1.81Z" style="fill:#e0e0e0;"></path><path d="M330.54,451.42c.09,.19,1.03-.1,2.2-.02,1.17,.05,2.08,.44,2.19,.26,.12-.15-.77-.91-2.15-.98-1.38-.08-2.34,.58-2.24,.74Z" style="fill:#e0e0e0;"></path></g><g><path d="M444.41,463.33l21.58-3.23s10.53,20.85,14.57,20.64l-4.76-42.06-33.82,3.65,2.43,21Z" style="fill:#263238;"></path><path d="M462.69,447.3c.13-.84,.98-1.51,1.83-1.41,.84,.1,1.53,.96,1.41,1.8-.12,.84-1.11,1.67-1.94,1.48-.83-.19-1.58-1.24-1.26-2.03" style="fill:#e0e0e0;"></path><g style="opacity:.6;"><path d="M475.8,438.68l-3.39,.5,5.83,40.14s1.03,1.78,2.32,1.42l-4.76-42.06Z" style="fill:#455a64;"></path></g><path d="M465.85,460.8c.2-.03,.18-1.07,.73-2.15,.52-1.1,1.35-1.72,1.25-1.9-.06-.18-1.25,.26-1.89,1.59-.65,1.32-.26,2.53-.08,2.47Z" style="fill:#e0e0e0;"></path><path d="M468.17,465.01c.2,.02,.45-.9,1.24-1.7,.77-.82,1.69-1.1,1.65-1.3,.01-.2-1.21-.2-2.17,.81-.97,1-.92,2.22-.72,2.2Z" style="fill:#e0e0e0;"></path><path d="M473.74,466.92c.02-.19-1.04-.36-2.1,.29-1.07,.65-1.4,1.67-1.22,1.73,.18,.1,.71-.6,1.6-1.12,.87-.54,1.73-.7,1.73-.91Z" style="fill:#e0e0e0;"></path></g><path d="M343.7,309.04s2.84-8.84,8.17-9.58c5.32-.73,11.65-.48,15.97,1.1,5.08,1.86,14.95,7,23.42,18.9,7.5,10.54,20.55,27.49,25.47,37.65,2.83,5.84,7.95,15.76,2.88,16.91l-5.88-1.57-46.47,.17-18.05-30.66c-.56,.35-5.51-32.93-5.51-32.93Z" style="fill:#0EBD50;"></path><g><g><path d="M340.1,331.56c.86,.1-6.71,23.68-6.71,23.68l-35.59,13.47,3.83,9.64s41.36-4.38,44.18-5.88c2.82-1.51,7.27-9.28,9.36-14.02,2.08-4.74,8.92-23.39,8.92-23.39l-23.98-3.5Z" style="fill:#ffbf9d;"></path><path d="M340.1,331.56c1.31,.18,9.28,1.29,24.01,3.33l.21,.03-.08,.2c-1.44,3.89-3.04,8.23-4.78,12.95-.89,2.35-1.81,4.8-2.8,7.31-.97,2.52-2.11,5.1-3.49,7.63-1.38,2.53-2.89,5.09-4.83,7.47-.51,.58-1.01,1.17-1.63,1.66-.59,.54-1.42,.81-2.18,.97-1.53,.35-3.07,.59-4.63,.84-6.25,.96-12.77,1.75-19.46,2.55-6.44,.76-12.72,1.46-18.78,2.1l-.19,.02-.07-.18c-1.3-3.29-2.58-6.51-3.82-9.64l-.09-.23,.23-.09c13.82-5.2,26.03-9.8,35.62-13.41l-.11,.11c2.36-7.32,4.19-13.22,5.38-17.29,1.19-4.06,1.74-6.37,1.5-6.33,.3-.04-.18,2.32-1.31,6.39-1.13,4.09-2.91,10-5.23,17.35l-.03,.08-.08,.03c-9.57,3.64-21.77,8.29-35.57,13.54l.14-.32c1.25,3.13,2.53,6.35,3.84,9.64l-.26-.16c6.06-.65,12.34-1.35,18.77-2.11,6.68-.8,13.2-1.58,19.44-2.54,1.56-.25,3.1-.49,4.6-.83,1.53-.18,2.58-1.33,3.55-2.46,1.9-2.32,3.41-4.87,4.79-7.38,1.38-2.51,2.52-5.05,3.49-7.57,1-2.51,1.93-4.95,2.83-7.3,1.76-4.7,3.39-9.03,4.85-12.92l.14,.23c-14.7-2.25-22.65-3.47-23.96-3.67Z" style="fill:#ff9a6c;"></path></g><g><path d="M299.09,365.46s-4.68-2.61-7.16-3.09c-2.48-.47-12.43-2.06-12.43-2.06,0,0-1.4,1.74,1.1,3.35,2.5,1.62,6.62,3.05,6.62,3.05,0,0-9.4,3.18-10.01,3.57-.38,.24-1.92,1.81-.49,3.17,.97,.92,3.85,.15,3.85,.15,0,0-.65,2.32,.12,3.22,.77,.9,1.46,1.66,1.46,1.66,0,0,1.18,2.27,2.14,2.88,.96,.61,2.95,1.63,2.95,1.63l3.16,.89,10.56-4.8,7.8,.49-.67-15.55-9,1.44Z" style="fill:#455a64;"></path><path d="M286.17,373.49c.02,.09-1.22,.37-2.78,.41-1.56,.05-2.81-.15-2.8-.24,0-.09,1.26-.04,2.79-.09,1.53-.05,2.77-.18,2.79-.08Z" style="fill:#263238;"></path><path d="M302.69,371.58c.09,.03-.39,1.76-.97,3.89-.58,2.13-1.06,3.86-1.15,3.84-.09-.02,.24-1.79,.83-3.93,.58-2.14,1.2-3.83,1.29-3.81Z" style="fill:#263238;"></path></g><g><path d="M356.41,301.99s-10.6,2.78-12.68,7.47c-2.08,4.69-8.6,27.67-8.6,27.67l28.36,10.01s3.65-16.32,5.22-22.58c1.56-6.25,6.46-18.24-12.3-22.58Z" style="fill:#0EBD50;"></path><path d="M335.13,337.14s.05,0,.15,.04c.12,.04,.26,.08,.44,.14,.41,.14,.98,.32,1.69,.56,1.49,.51,3.61,1.22,6.22,2.1,5.26,1.81,12.5,4.31,20.53,7.07l-.22,.13c.03-.17,.06-.35,.09-.53,1.4-8.49,2.66-16.18,3.58-21.78,.47-2.76,.85-5.01,1.12-6.59,.14-.76,.24-1.35,.32-1.79,.04-.19,.07-.34,.09-.46,.02-.1,.04-.16,.04-.16,0,0,0,.06,0,.16-.02,.12-.04,.28-.06,.47-.06,.44-.15,1.04-.26,1.8-.24,1.59-.59,3.84-1.02,6.61-.9,5.6-2.12,13.29-3.48,21.8-.03,.18-.06,.36-.09,.53l-.03,.19-.19-.06c-8.01-2.8-15.24-5.33-20.49-7.17-2.59-.92-4.7-1.67-6.18-2.2-.71-.26-1.27-.46-1.67-.61-.17-.07-.32-.12-.43-.17-.1-.04-.15-.06-.14-.07Z" style="fill:#263238;"></path><path d="M370.86,319.2s.01,.2-.03,.57c-.04,.36-.12,.88-.24,1.52-.23,1.28-.65,3.04-1.29,4.92-.64,1.89-1.37,3.54-1.95,4.7-.29,.58-.55,1.04-.73,1.36-.19,.31-.3,.48-.32,.47-.04-.02,.31-.74,.84-1.93,.53-1.18,1.22-2.83,1.85-4.7,.63-1.87,1.08-3.6,1.37-4.87,.29-1.26,.44-2.05,.49-2.04Z" style="fill:#263238;"></path></g></g><g><g><g><path d="M377.95,399.11s5.84,53.49,7.71,58.05c1.88,4.55,4.29,8.04,12.32,9.64,8.04,1.61,63.28-.98,63.28-.98l-2.95-27.06-43.41-1.13s.28-14.95,.55-20.57c.27-5.63-.53-14.75,1.98-29.61,2.1-12.43-39.49,11.66-39.49,11.66Z" style="fill:#263238;"></path><g style="opacity:.3;"><path d="M379.58,408.37l-.03,.23c4.61,3.54,13.08,5.45,18.88,5.12,5.8-.33,12.08-4.95,13.58-9.1-10.26,2.91-21.79,4.53-32.43,3.76Z"></path></g></g><path d="M421.3,372.88c-3.21-3.75-46.41-.45-46.41-.45,0,0-37.75,.86-44.18,1.93-6.43,1.07-9.12,10.89-9.12,17.58s4.17,62.72,4.17,62.72h26.81c-.27-4.82-.59-47.53-.59-47.53,0,0,13.23,.47,26.26,1.23,4.08,.24,20.11-.16,22.15-.41,8.57-1.07,16.16-4.6,18.41-9.7,5.83-13.24,2.51-25.38,2.51-25.38Z" style="fill:#263238;"></path></g><path d="M404.06,407.81s-.18,.05-.52,.08c-.41,.03-.91,.07-1.51,.12-1.31,.09-3.21,.19-5.56,.27-4.7,.17-11.2,.26-18.37,.1-7.18-.16-13.66-.52-18.35-.86-2.34-.17-4.24-.33-5.55-.46-.6-.07-1.1-.12-1.51-.16-.34-.04-.52-.08-.52-.09,0-.02,.18-.02,.53-.02,.41,.02,.91,.04,1.51,.06,1.4,.07,3.28,.17,5.56,.29,4.69,.24,11.17,.54,18.34,.69,7.16,.16,13.65,.14,18.35,.06,2.28-.04,4.16-.07,5.56-.09,.6,0,1.1,0,1.51-.01,.35,0,.53,.01,.53,.03Z" style="fill:#455a64;"></path><path d="M408.29,449.14c-.13-.04,.74-3.05,2.67-6.37,1.91-3.33,4.07-5.6,4.17-5.51,.13,.11-1.81,2.5-3.69,5.79-1.9,3.27-3,6.15-3.15,6.09Z" style="fill:#455a64;"></path><path d="M341.18,398.19c.07-.12,2.78,1.38,5.59,3.96,2.82,2.56,4.56,5.14,4.44,5.21-.13,.1-2.05-2.28-4.82-4.8-2.76-2.54-5.3-4.23-5.21-4.37Z" style="fill:#455a64;"></path></g></g><g><path d="M307.77,415.66c-.09-.21-3.12-3.95-7.82-3.26s-7.65,2.43-9.59,3.33c-1.95,.9-7.18,1.74-7.04,2.83,.15,1.09,.88,2.13,2.68,2.33s7.37-2.77,8.26-.91c.36,.76-.75,2.25-.75,2.25,0,0-4.32,5.67-6.48,7.75-2.16,2.09-3.49,4.48-2.61,5.04,.88,.56,1.68,.5,3.46-1.23,1.78-1.73,3.82-4.44,4.34-4.14,.17,.1-.36,.63-1.08,1.89-.87,1.53-2.82,4.55-3.14,5.26-.42,.92,.72,1.84,1.52,1.31l.82-.39s.5,2.08,1.55,1.97c1.05-.11,2.01-1.6,2.01-1.6l5.58-6.39s.31-.25,.42,.19c.11,.44-4.33,5.06-3.78,5.61,.55,.55,1.53,1.65,3.31,.39,1.78-1.26,4.81-5.62,6.02-7.18,1.47-1.89,5.77-8.35,5.77-8.35l-3.46-6.71Z" style="fill:#455a64;"></path><polygon points="301.61 412.32 304.76 407.25 316.81 417.44 309.74 424.59 301.61 412.32" style="fill:#455a64;"></polygon></g><path d="M307.09,420.05s-.3,.74-1.27,1.55c-.95,.81-2.6,1.64-4.56,1.62-1.96-.03-3.59-.91-4.52-1.75-.95-.84-1.28-1.57-1.23-1.59,.07-.05,.5,.58,1.46,1.3,.94,.72,2.48,1.48,4.29,1.51,1.81,.02,3.38-.69,4.33-1.39,.98-.69,1.43-1.32,1.5-1.26Z" style="fill:#263238;"></path></g></g><g id="freepik--Character_2--inject-6"><g><path d="M143.88,401.99s-.42,6.01,.89,10.74c1.31,4.72,.16,17.06-.97,25.98-1.13,8.92-2.19,27.07-2.19,27.07l14.88,.91s-.13-2.47,2.15-10.28c2.43-8.31,6.84-39.72,6.84-39.72,0,0,3.03,18.37,3.03,19.16s.91,28.16,.91,28.16l13.49,1.84s2.13-20.81,3.14-24.22c1.01-3.41-1.27-38.84-2.08-39.63,0,0-27.96-3.41-40.08,0Z" style="fill:#263238;"></path><g><path d="M179.67,300.17c1.81,.82,2.77,3.12,2.53,4.92,0,0-.09-.33,1.27-.18,1.36,.15,2.45,.72,3.04,1.55,.65,.91,1.86,3.56,.34,5.34,1.77,1.64-1.34,7.53-2.24,8.95-1.3,2.04-1.69,1.81-4.03,2.4-3.77,.94-4.14-1.29-7.55-3.15-6.31-3.45-13.28-5.44-20.19-7.41-.94-4.08,2.11-9.06,6.13-10.22,3.92-1.13,7.32,.76,12.37-.91,0,0,5.12-2.75,8.35-1.29Z" style="fill:#263238;"></path><path d="M185.33,333.1c.27-4.54-.74-10.51-1.71-16.47-.87-5.36-7.22-10.17-12.54-9.07l-14.64,4.66-.25,2.68,2.61,19.77,.42,13.86,16.54,2.3-.34-8.14s9.37-.47,9.91-9.6Z" style="fill:#ffbf9d;"></path><path d="M182.03,325.28c.08,.61-.36,1.18-1,1.27-.63,.1-1.21-.31-1.29-.92-.08-.61,.36-1.18,.99-1.27,.63-.1,1.21,.32,1.29,.92Z" style="fill:#263238;"></path><path d="M182.92,322.5c-.12,.14-.94-.39-2.05-.32-1.11,.06-1.89,.68-2.02,.55-.06-.06,.05-.31,.39-.59,.33-.28,.92-.57,1.61-.61,.69-.04,1.29,.18,1.65,.42,.36,.24,.49,.48,.43,.55Z" style="fill:#263238;"></path><path d="M171.65,323.25c-.12,.14-.94-.39-2.05-.32-1.11,.06-1.89,.68-2.02,.55-.06-.06,.05-.31,.39-.59,.33-.28,.92-.57,1.61-.61,.69-.04,1.29,.18,1.65,.42,.36,.24,.49,.48,.43,.55Z" style="fill:#263238;"></path><path d="M171.92,325.76c.08,.61-.36,1.18-1,1.27-.63,.1-1.21-.31-1.29-.92-.08-.61,.36-1.18,1-1.27,.63-.1,1.21,.32,1.29,.92Z" style="fill:#263238;"></path><path d="M176.33,330.82c-.01-.05,.07-.11,1.3-.37,.31-.06,.61-.14,.65-.32,.06-.19-.1-.44-.27-.71-.35-.56-.71-1.15-1.1-1.77-.41-.64-1.55-2.7-1.6-3.07,.14-.06,.57,.34,2.09,2.87,.37,.62,.72,1.22,1.06,1.79,.14,.27,.38,.56,.25,.95-.07,.19-.29,.35-.49,.42-.2,.07-.38,.09-.53,.12-1.25,.19-1.36,.09-1.36,.09Z" style="fill:#263238;"></path><path d="M175.42,342.7s-3.78,1.05-10.13-1.95c0,0,.79,5.03,10.26,5.09l-.13-3.14Z" style="fill:#ff9a6c;"></path><path d="M171.48,319.06c-.1,.4-1.2,.22-2.48,.43-1.29,.18-2.32,.69-2.49,.34-.08-.17,.1-.54,.52-.93,.41-.39,1.07-.76,1.84-.88,.77-.12,1.48,.04,1.95,.29,.47,.25,.71,.56,.67,.75Z" style="fill:#263238;"></path><path d="M182.12,317.3c-.17,.37-1.12,.18-2.19,.35-1.08,.13-1.94,.57-2.2,.26-.12-.15-.04-.51,.31-.89,.34-.38,.94-.75,1.68-.85,.74-.1,1.43,.09,1.86,.36,.44,.27,.62,.59,.55,.77Z" style="fill:#263238;"></path><path d="M153.69,309.06s-5.56,.5-5.8,6.99c-.25,6.49,3.04,11.91,6.1,14.41,3.05,2.5,4.96,2.74,4.96,2.74l2.08-11.2-7.34-12.94Z" style="fill:#263238;"></path><path d="M182.33,311.61c-1.92-2.91-5.22-4.76-8.66-5.38-3.44-.62-7-.11-10.33,.94-3.33,1.05-6.46,2.63-9.58,4.2-.76,.38-1.57,.83-1.87,1.62-.2,.54-.12,1.14-.04,1.7,.7,4.79,1.41,9.58,2.11,14.38l1.57,2.84c1.56-.13,2.78-1.39,3.69-2.67,3.18-4.46,4.54-10.16,3.73-15.58,.52,.56,.73,1.32,1.05,2.01,.32,.69,.83,1.39,1.58,1.52,1.25,.22,2.15-1.26,2.22-2.53,.07-1.27-.26-2.61,.25-3.77,1.4,1.68,3.19,3.03,5.18,3.93,.94,.42,2.16,.7,2.91-.01,.53-.5,.59-1.35,.35-2.04-.24-.69-.73-1.26-1.21-1.81,1.63,1.48,3.69,2.47,5.87,2.82,.48,.08,1.03,.1,1.37-.24,.5-.5,.19-1.35-.19-1.94Z" style="fill:#263238;"></path><path d="M157.98,326.67c-.14-.05-5.69-1.04-4.93,4.42,.76,5.47,6.09,3.58,6.08,3.42-.01-.16-1.15-7.84-1.15-7.84Z" style="fill:#ffbf9d;"></path><path d="M154.91,331.31c-.03-.1-.05-.21-.07-.32-.08-.5-.04-.98,.08-1.4,.11-.42,.33-.74,.61-.83,.28-.11,.51,.04,.6,.18,.09,.14,.07,.26,.1,.26,.02,.01,.1-.11,.03-.33-.04-.11-.12-.23-.26-.31-.15-.09-.35-.12-.55-.07-.42,.09-.74,.53-.88,.99-.16,.46-.21,1.01-.12,1.57,.19,1.1,.89,2.05,1.72,2.17,.4,.05,.7-.11,.85-.27,.15-.16,.16-.28,.14-.29-.03-.01-.09,.08-.24,.18-.15,.09-.41,.18-.71,.11-.54-.12-1.09-.8-1.31-1.65" style="fill:#ff9a6c;"></path><path d="M176.03,333.28c-1.29-.57-2.58-1.14-3.87-1.71-.11-.05-.23-.1-.34-.04-.07,.04-.12,.11-.15,.19-.41,.83-.31,1.89,.25,2.63,.56,.74,1.41,1,2.32,.83,.91-.17,1.53-1.01,1.79-1.9h0Z" style="fill:#ff9a6c;"></path><path d="M161.21,309.91s.01,.02,.03,.06c.02,.05,.04,.12,.06,.19,.05,.17,.12,.42,.21,.75,.16,.66,.36,1.63,.43,2.84,.06,1.21-.02,2.69-.57,4.22-.27,.75-.67,1.55-1.35,2.13-.34,.29-.76,.51-1.21,.6-.45,.11-.95,.05-1.39-.15-.51-.24-.89-.66-1.19-1.1-.3-.44-.52-.91-.72-1.37l.12,.02c-.51,.52-.9,1.12-1.34,1.65-.43,.53-.94,.99-1.53,1.24-.58,.26-1.24,.25-1.74-.02-.5-.25-.85-.66-1.07-1.07-.22-.42-.29-.84-.3-1.2-.02-.36,.03-.67,.08-.92,.05-.25,.11-.43,.15-.56,.04-.12,.07-.19,.08-.18,0,0-.01,.07-.05,.19-.04,.13-.08,.31-.13,.56-.04,.25-.07,.55-.05,.91,.02,.35,.1,.76,.31,1.16,.21,.39,.55,.78,1.03,1.01,.47,.24,1.09,.25,1.64,0,.56-.24,1.05-.68,1.47-1.21,.43-.52,.82-1.13,1.34-1.67,.03-.03,.08-.03,.11,0,0,0,.01,.02,.02,.02,.2,.45,.42,.91,.71,1.34,.29,.42,.65,.82,1.13,1.05,.4,.19,.86,.24,1.29,.14,.43-.09,.82-.3,1.15-.57,.66-.55,1.05-1.32,1.32-2.06,.55-1.5,.65-2.96,.6-4.16-.05-1.21-.24-2.17-.38-2.83-.08-.33-.13-.59-.18-.76l-.05-.2s-.01-.07-.01-.07Z" style="fill:#455a64;"></path><path d="M175.85,305.01s-.02,.08-.02,.22c0,.14,.07,.35,.24,.56,.16,.22,.41,.44,.65,.76,.12,.16,.23,.35,.27,.58,.04,.23-.03,.49-.18,.7-.15,.21-.37,.38-.63,.48-.26,.1-.55,.14-.84,.15-.58,.02-1.21,0-1.86-.08-1.3-.15-2.71-.53-4.07-1.21-.55-.27-1.07-.58-1.54-.91l.12-.05c-.09,.64-.18,1.27-.38,1.85-.19,.58-.52,1.1-.95,1.46-.42,.37-.97,.57-1.47,.53-.5-.03-.93-.24-1.26-.49-.34-.25-.58-.53-.77-.79-.19-.26-.33-.5-.44-.7-.11-.2-.19-.35-.24-.46-.05-.11-.08-.16-.07-.16,0,0,.04,.05,.1,.15,.07,.11,.15,.26,.26,.44,.24,.37,.57,.96,1.22,1.44,.33,.23,.74,.42,1.21,.45,.47,.03,.97-.16,1.37-.51,.41-.35,.72-.84,.9-1.41,.19-.56,.28-1.18,.36-1.82,0-.04,.04-.07,.09-.07,.01,0,.02,0,.03,.01,.47,.32,.98,.63,1.52,.89,1.34,.67,2.73,1.04,4.01,1.2,.64,.08,1.26,.1,1.83,.09,.29-.01,.56-.05,.8-.14,.24-.09,.45-.24,.59-.43,.14-.19,.21-.41,.17-.62-.03-.21-.13-.39-.24-.55-.23-.31-.48-.55-.63-.78-.16-.23-.23-.45-.22-.6,0-.07,.02-.13,.03-.16,.01-.04,.02-.05,.02-.05Z" style="fill:#455a64;"></path><path d="M147.73,306.89c0-.28,.36-.54,.97-.63,.61-.09,1.47,.02,2.3,.43,.83,.41,1.44,1.03,1.74,1.56,.3,.54,.31,.98,.09,1.16-.47,.35-1.52-.27-2.75-.86-1.22-.62-2.35-1.07-2.36-1.66Z" style="fill:#263238;"></path><path d="M153.06,309.97c-.53,.2-1.44-.96-1.62-2.66-.19-1.7,.45-3.02,1.01-2.94,.57,.07,.89,1.29,1.06,2.72,.15,1.43,.1,2.69-.44,2.88Z" style="fill:#263238;"></path><path d="M175.38,334.8s-.45,.59-1.55,.62c-.53,.01-1.21-.16-1.75-.66-.53-.49-.9-1.27-.86-2.12,.04-.4,.1-.87,.53-1.17,.22-.13,.49-.11,.68-.06,.2,.06,.35,.14,.5,.2,.62,.28,1.16,.56,1.6,.81,.89,.5,1.41,.87,1.38,.91-.03,.05-.59-.23-1.51-.65-.46-.21-1.01-.46-1.62-.72-.31-.13-.63-.27-.82-.15-.21,.12-.31,.49-.33,.84-.04,.71,.27,1.39,.71,1.82,.44,.44,1.01,.62,1.49,.64,.98,.05,1.51-.4,1.54-.33Z" style="fill:#263238;"></path></g><g><path d="M181.72,455.76l-.46,11.6s11.64,4.36,11.76,6.51l-22.53-.08-.03-18.11,11.25,.07Z" style="fill:#263238;"></path><path d="M174.3,466.36c-.44,.12-.74,.61-.64,1.05,.1,.44,.59,.75,1.03,.64,.44-.11,.82-.69,.67-1.11-.15-.43-.75-.76-1.15-.55" style="fill:#e0e0e0;"></path><path d="M170.5,473.79l.07-1.83,21.57,.76s1,.44,.89,1.15l-22.53-.08Z" style="fill:#455a64;"></path><path d="M181.63,467.25c0,.11-.55,.16-1.1,.51-.55,.34-.83,.81-.93,.77-.1-.02,.06-.68,.73-1.09,.66-.42,1.33-.29,1.3-.19Z" style="fill:#e0e0e0;"></path><path d="M183.98,468.23c.02,.11-.45,.29-.83,.76-.39,.45-.48,.96-.59,.95-.1,.02-.18-.63,.3-1.2,.47-.57,1.12-.62,1.12-.51Z" style="fill:#e0e0e0;"></path><path d="M185.32,471.06c-.1,.02-.25-.53,.03-1.13,.28-.6,.8-.84,.85-.75,.06,.09-.27,.41-.5,.91-.24,.49-.27,.96-.38,.97Z" style="fill:#e0e0e0;"></path></g><g><path d="M154.95,455.76l-.46,11.6s11.64,4.36,11.76,6.51l-22.53-.08-.03-18.11,11.25,.07Z" style="fill:#263238;"></path><path d="M147.53,466.36c-.44,.12-.74,.61-.64,1.05,.1,.44,.59,.75,1.03,.64,.44-.11,.82-.69,.67-1.11-.15-.43-.75-.76-1.15-.55" style="fill:#e0e0e0;"></path><path d="M143.73,473.79l.07-1.83,21.57,.76s1,.44,.89,1.15l-22.53-.08Z" style="fill:#455a64;"></path><path d="M154.86,467.25c0,.11-.55,.16-1.1,.51-.55,.34-.83,.81-.93,.77-.1-.02,.06-.68,.73-1.09,.66-.42,1.32-.29,1.3-.19Z" style="fill:#e0e0e0;"></path><path d="M157.22,468.23c.02,.11-.45,.29-.83,.76-.39,.45-.48,.96-.59,.95-.1,.02-.18-.63,.3-1.2,.47-.57,1.12-.62,1.12-.51Z" style="fill:#e0e0e0;"></path><path d="M158.55,471.06c-.1,.02-.25-.53,.03-1.13,.28-.6,.8-.84,.85-.75,.06,.09-.27,.41-.5,.91-.24,.49-.27,.96-.38,.97Z" style="fill:#e0e0e0;"></path></g><g><path d="M184.77,363.11l5.7,11.67,12.45,4.18-2.48,7.49-12.06-.51c-3.81-.16-6.79-3.33-6.73-7.14h0l3.12-15.69Z" style="fill:#ffbf9d;"></path><path d="M175.84,347.9c.72,.96,4.59,2.57,8.22,9.64,3.89,7.59,6.41,12.8,6.41,12.8-.24-.35-13.82,2.4-13.82,2.4l-.81-24.85Z" style="fill:#0EBD50;"></path><path d="M177.48,350.16s5.22,7.78,6.18,21.84c.51,7.41,3.17,27.33,2.42,31.84-.75,4.51-20.01,5.86-26.78,4.24-6.78-1.62-17.16-5.32-17.16-5.32,0,0,5.05-26.68,4.88-27.05-.16-.37-1.15-25.42,1.8-28.21,2.78-2.63,9.02-2.96,9.02-2.96l17.99,3.36,1.64,2.26Z" style="fill:#0EBD50;"></path><path d="M184.97,388.95s-.12-.4-.23-1.12c-.12-.73-.25-1.78-.39-3.09-.28-2.62-.53-6.25-.73-10.26-.2-4.01-.39-7.63-.58-10.25-.09-1.22-.16-2.26-.22-3.1-.05-.73-.06-1.14-.03-1.15,.04,0,.12,.4,.23,1.12,.12,.73,.25,1.78,.39,3.09,.28,2.62,.53,6.25,.73,10.26,.2,4.01,.39,7.63,.58,10.25,.09,1.22,.16,2.26,.22,3.1,.05,.73,.06,1.14,.03,1.15Z" style="fill:#263238;"></path><g><path d="M177.1,395.68c.81-1.12,.29-1.93,.29-1.93,0,0,.82,.6,1.64-.52,.81-1.12,.47-1.94,.47-1.94,0,0,.88,.45,1.67-.64,.79-1.09,0-2.05,0-2.05,0,0,.9,.65,1.7-.29,.8-.94,.09-1.94,.09-1.94l1.62-.41,2.69-3.71c.29-.41,.43-.9,.37-1.35l-.62-4.78-3.59-2.61-.52-.38-4.74,.89c-.45,.08-.87,.37-1.17,.77l-2.69,3.71,.11,1.67s-1.17-.36-1.81,.69c-.65,1.05,.25,1.7,.25,1.7,0,0-1.16-.46-1.95,.63-.79,1.09-.09,1.79-.09,1.79,0,0-.89-.08-1.7,1.05-.81,1.12,.01,1.72,.01,1.72,0,0-.93-.24-1.74,.88-.81,1.12-.27,1.84-.27,1.84l-1.9,.57-5.69,7.85s-.85,1.86,.75,3.02c1.6,1.16,3.04-.45,3.04-.45,0,0-1.22,1.73,.08,2.72l.18,.13c1.34,.92,2.61-.77,2.61-.77,0,0-1.08,1.88,.51,3.04,1.6,1.16,3.1-.22,3.1-.22l5.69-7.85-.05-1.98s.85,.29,1.67-.83Z" style="fill:#f5f5f5;"></path><rect x="182.83" y="372.11" width="5.88" height="2.78" rx=".64" ry=".64" transform="translate(254.85 -37.89) rotate(35.98)" style="fill:#0EBD50;"></rect><path d="M182.94,386.38c-.07,.09-2.09-1.27-4.53-3.04-2.43-1.77-4.35-3.28-4.29-3.37,.07-.09,2.09,1.27,4.53,3.04,2.43,1.77,4.35,3.28,4.29,3.37Z" style="fill:#263238;"></path><path d="M184.49,385.91c-.07,.09-2.4-1.49-5.21-3.53-2.81-2.04-5.04-3.77-4.97-3.86,.07-.09,2.4,1.49,5.21,3.53,2.81,2.04,5.03,3.77,4.97,3.86Z" style="fill:#263238;"></path><path d="M181.31,388.83c-.07,.09-2.08-1.26-4.49-3.01-2.42-1.76-4.32-3.25-4.25-3.34,.07-.09,2.08,1.26,4.49,3.01,2.41,1.76,4.32,3.25,4.25,3.34Z" style="fill:#263238;"></path><path d="M179.58,391.23c-.07,.09-2.08-1.26-4.49-3.01-2.42-1.76-4.32-3.25-4.25-3.34s2.08,1.26,4.49,3.01c2.41,1.76,4.32,3.25,4.25,3.34Z" style="fill:#263238;"></path><path d="M177.67,393.86c-.07,.09-2.08-1.26-4.49-3.01-2.42-1.76-4.32-3.25-4.25-3.34,.07-.09,2.08,1.26,4.49,3.01,2.41,1.76,4.32,3.25,4.25,3.34Z" style="fill:#263238;"></path><path d="M175.75,396.5c-.07,.09-2.08-1.26-4.49-3.01-2.42-1.76-4.32-3.25-4.25-3.34,.07-.09,2.08,1.26,4.49,3.01,2.41,1.75,4.32,3.25,4.25,3.34Z" style="fill:#263238;"></path><path d="M175.44,398.54c-.07,.09-2.42-1.5-5.25-3.56-2.83-2.06-5.08-3.8-5.01-3.9,.07-.09,2.42,1.5,5.25,3.56,2.83,2.06,5.08,3.8,5.01,3.89Z" style="fill:#263238;"></path></g><g><path d="M157.09,363.1l-1.73,11.94,14.92,10.48-3.62,5.95s-18.77-5.45-23.4-9.21c-4.63-3.75,1.14-22.97,1.14-22.97l12.69,3.81Z" style="fill:#ffbf9d;"></path><path d="M181.53,385.65s-2.67-1.37-4.33-1.35c-1.66,.02-7.67-.83-7.67-.83l-2.25-1.26-5.52,8.48,3.4,.78s3.19,3.31,4.63,3.75c1.44,.43,4.91,1.08,4.91,1.08,0,0,1.45,.74,1.52-.97,0,0,2.05,.61,2.13-.41,0,0,2.56,.76,2.66-1.6,0,0,1.7-.55,1.47-1.79-.23-1.24-.55-2.39-2.33-3.36-1.78-.97-2.1-1.27-2.1-1.27l1.64-.24,1.84-1.01Z" style="fill:#455a64;"></path><path d="M213.49,377.5s-2.9-.79-4.51-.42c-1.62,.36-7.67,.78-7.67,.78l-2.46-.76-3.63,9.44,3.49,.06s3.81,2.58,5.3,2.7c1.5,.12,5.02,.04,5.02,.04,0,0,1.57,.42,1.28-1.26,0,0,2.14,.17,1.99-.85,0,0,2.66,.21,2.27-2.12,0,0,1.54-.89,1.07-2.05-.48-1.17-1.03-2.22-2.98-2.8-1.95-.58-2.32-.81-2.32-.81l1.55-.58,1.59-1.37Z" style="fill:#455a64;"></path><path d="M158.84,354.16s-.2-8.69-7.12-8.03c-6.92,.66-11.19,19.37-11.19,19.37l16.34,5.62,1.97-16.96Z" style="fill:#0EBD50;"></path></g><g><polygon points="207.18 392.72 201.61 383.03 212.82 375.28 219.58 387.05 207.18 392.72" style="fill:#0EBD50;"></polygon><rect x="207.69" y="380.45" width="16.4" height="1.85" transform="translate(439.18 4.29) rotate(60.14)" style="fill:#0EBD50;"></rect><path d="M219.04,388.94c-.11,.06-2-3.03-4.23-6.9-2.22-3.88-3.94-7.07-3.83-7.13,.11-.06,2,3.03,4.23,6.9,2.22,3.87,3.94,7.07,3.83,7.13Z" style="fill:#263238;"></path></g><path d="M158.1,357.33c.14,.01,0,3.09-.31,6.88-.31,3.79-.68,6.85-.83,6.84s0-3.09,.31-6.88c.31-3.79,.68-6.85,.83-6.84Z" style="fill:#263238;"></path><path d="M158.04,350.86c-.08,.02-.2-.52-.59-1.27-.38-.75-1.09-1.72-2.18-2.4-1.09-.67-2.28-.88-3.12-.89-.85-.01-1.38,.12-1.4,.04-.02-.06,.48-.32,1.39-.41,.89-.09,2.21,.07,3.41,.81,1.2,.74,1.93,1.85,2.24,2.69,.33,.85,.31,1.42,.25,1.43Z" style="fill:#263238;"></path></g></g></g><g id="freepik--Character_1--inject-6"><g><g><g><path d="M80.75,226.7c-1.51-4.7-4.88-8.77-9.21-11.13l.37-.29c-3.97-1.11-8.59,1.46-9.74,5.42-.47,1.63-.41,3.35-.57,5.03-.16,1.68-.62,3.45-1.86,4.6-.66,.61-1.5,1-2.2,1.57-.7,.57-1.27,1.45-1.08,2.33,.24,1.13,1.56,1.67,2.71,1.74,1.15,.07,2.37-.12,3.42,.36-1.42,1.29-1.51,3.78-.19,5.16,1.32,1.39,3.81,1.42,5.17,.06-.55,1.95,.72,4.13,2.58,4.94,1.86,.8,4.1,.39,5.79-.73,1.69-1.11,2.91-2.84,3.79-4.66,2.15-4.44,2.52-9.71,1.01-14.41Z" style="fill:#263238;"></path><path d="M109.57,214.24c-.34-1.42-1.76-2.37-3.2-2.62-1.44-.24-2.91,.08-4.33,.4,.38-1.91,.75-3.88,.35-5.79-.4-1.91-1.78-3.75-3.7-4.06-1.65-.27-3.28,.61-4.58,1.67-1.3,1.06-2.46,2.34-3.96,3.09-3.9,1.95-8.67-.23-12.93,.74-4.37,1-7.93,6.13-7.18,10.54,7.26,2.53,14.59,5.1,21.12,9.17,3.53,2.2,7.33,4.96,11.41,4.19,2.54-.48,4.75-2.43,5.53-4.89,.79-2.46,.12-5.33-1.67-7.2,1.71-1.31,3.63-3.14,3.13-5.24Z" style="fill:#263238;"></path><path d="M101.74,226.07c-.63-6.02-7.37-11.77-13.36-10.89l-19.34,4.51,3.43,2.71,3.51,36.53-.82,2.56h0s-.87,14.47,10.04,13.28c9.8-1.07,8.83-11.43,8.83-11.43l-.75-6.7s8.06-1.51,9.24-11.63c.59-5.03-.09-12.25-.79-18.94Z" style="fill:#ae7461;"></path><path d="M99.18,235.64c.05,.68-.48,1.28-1.19,1.35-.71,.07-1.32-.43-1.38-1.11-.05-.68,.48-1.28,1.19-1.35,.71-.07,1.33,.43,1.38,1.11Z" style="fill:#263238;"></path><path d="M100.19,231.49c-.15,.17-1.16-.51-2.55-.45-1.39,.04-2.38,.8-2.53,.63-.08-.07,.07-.38,.5-.72,.42-.34,1.15-.68,2.02-.71,.86-.03,1.6,.26,2.04,.57,.44,.31,.6,.61,.52,.69Z" style="fill:#263238;"></path><path d="M87.52,235.76c.05,.68-.48,1.28-1.19,1.35-.71,.07-1.32-.43-1.38-1.11-.05-.68,.48-1.29,1.19-1.35,.71-.07,1.33,.43,1.38,1.11Z" style="fill:#263238;"></path><path d="M87.43,232.23c-.15,.17-1.16-.51-2.55-.45-1.39,.04-2.38,.8-2.53,.63-.08-.07,.07-.38,.5-.72,.42-.34,1.15-.68,2.02-.71,.86-.03,1.6,.26,2.04,.57,.44,.31,.6,.61,.52,.69Z" style="fill:#263238;"></path><path d="M92.02,242.81c0-.07,.85-.23,2.24-.45,.35-.05,.69-.12,.74-.33,.08-.22-.08-.54-.27-.88-.36-.71-.73-1.46-1.12-2.24-.42-.81-2.51-5.42-2.55-5.87,.15-.06,1.54,2.48,3.11,5.67,.38,.79,.74,1.54,1.08,2.25,.15,.34,.39,.71,.22,1.17-.09,.23-.34,.4-.57,.47-.23,.07-.42,.08-.6,.1-1.4,.13-2.28,.18-2.28,.11Z" style="fill:#263238;"></path><path d="M93.49,256.68s-6.75,.71-13.61-3.04c0,0,3.73,6.88,13.75,5.53l-.14-2.49Z" style="fill:#6f4439;"></path><path d="M87.12,228.95c-.14,.43-1.35,.17-2.79,.32-1.44,.12-2.62,.62-2.8,.21-.08-.19,.15-.6,.63-1,.48-.4,1.24-.77,2.11-.86,.86-.08,1.64,.14,2.15,.45,.51,.31,.76,.67,.7,.87Z" style="fill:#263238;"></path><path d="M99.84,228.84c-.27,.36-1.26-.07-2.47-.14-1.2-.12-2.24,.15-2.46-.25-.09-.19,.08-.56,.55-.89,.46-.33,1.21-.59,2.03-.52,.83,.07,1.53,.44,1.93,.84,.41,.4,.53,.79,.41,.97Z" style="fill:#263238;"></path><path d="M100.64,220.4c-1.95-3.36-5.5-5.62-9.28-6.54-3.78-.91-7.78-.58-11.55,.38-3.77,.95-7.36,2.51-10.93,4.06-.86,.38-1.8,.82-2.19,1.68-.26,.59-.21,1.26-.15,1.89,.48,5.37,.95,10.75,1.43,16.12l1.57,3.26c1.74-.04,3.18-1.37,4.27-2.73,3.82-4.75,5.7-11.01,5.15-17.08,.54,.65,.73,1.52,1.04,2.31,.31,.79,.83,1.6,1.66,1.79,1.38,.32,2.47-1.26,2.64-2.67,.16-1.41-.12-2.92,.52-4.18,1.45,1.96,3.35,3.58,5.51,4.7,1.02,.53,2.36,.92,3.23,.17,.62-.53,.75-1.46,.52-2.25-.22-.78-.73-1.44-1.23-2.09,1.71,1.75,3.95,2.99,6.34,3.51,.53,.11,1.14,.17,1.54-.18,.59-.52,.3-1.49-.09-2.16Z" style="fill:#263238;"></path><path d="M74.16,236.08c-.16-.06-6.26-1.53-5.76,4.6,.49,6.13,6.54,4.37,6.54,4.19,0-.18-.77-8.79-.77-8.79Z" style="fill:#ae7461;"></path><path d="M72.87,242.7s-.1,.08-.27,.18c-.17,.09-.47,.17-.8,.08-.67-.19-1.29-1.17-1.41-2.27-.06-.56,.01-1.1,.18-1.55,.15-.46,.42-.8,.74-.88,.32-.1,.56,.08,.65,.24,.1,.16,.07,.29,.1,.3,.02,.01,.12-.11,.05-.36-.04-.12-.12-.26-.27-.36-.16-.11-.38-.15-.6-.11-.47,.07-.86,.54-1.04,1.04-.2,.5-.3,1.11-.23,1.74,.14,1.23,.86,2.34,1.77,2.52,.44,.08,.79-.08,.96-.24,.18-.17,.2-.31,.18-.32Z" style="fill:#6f4439;"></path><path d="M77.66,220.76s-.03,.13-.11,.36c-.08,.24-.22,.58-.41,1.01-.38,.87-1.01,2.1-2,3.48-.5,.69-1.08,1.42-1.77,2.15-.35,.36-.71,.73-1.11,1.08-.41,.35-.89,.7-1.51,.78-.61,.09-1.26-.21-1.65-.7-.4-.48-.63-1.08-.71-1.71-.13-1.29,.37-2.5,.45-3.76,0-.17,.01-.33,0-.48l.29,.09c-.81,.97-1.6,1.92-2.37,2.83-.38,.46-.76,.9-1.13,1.34-.37,.43-.77,.88-1.35,1.09-.29,.1-.62,.1-.89-.03-.28-.12-.49-.35-.63-.59-.28-.48-.38-1-.43-1.48-.13-.97-.1-1.89,0-2.71,.21-1.65,.75-2.91,1.18-3.71,.22-.41,.41-.71,.55-.9,.14-.2,.22-.3,.23-.29,.03,.02-.27,.43-.67,1.25-.4,.82-.89,2.06-1.07,3.68-.08,.81-.1,1.71,.04,2.65,.06,.47,.16,.96,.41,1.37,.23,.42,.72,.66,1.18,.48,.46-.17,.85-.58,1.21-1.01,.36-.44,.74-.89,1.12-1.34,.76-.91,1.55-1.85,2.35-2.82l.28-.33v.42c.02,.16,.02,.34,0,.51-.09,1.32-.58,2.53-.45,3.7,.07,.57,.29,1.13,.64,1.55,.34,.43,.86,.67,1.37,.6,.51-.06,.96-.37,1.36-.7,.39-.34,.76-.7,1.11-1.05,.69-.71,1.28-1.42,1.78-2.1,1-1.35,1.66-2.56,2.07-3.4,.21-.42,.36-.76,.46-.98,.1-.23,.16-.34,.17-.34Z" style="fill:#455a64;"></path><path d="M87.48,242.8c.13-.08,.27-.16,.42-.16,.22,0,.41,.16,.58,.31,.98,.86,1.96,1.72,2.94,2.58-.6,1.06-1.42,1.67-2.5,1.74-1.03,.06-2.07-.78-2.39-1.76-.32-.98,.09-2.15,.95-2.71Z" style="fill:#6f4439;"></path><path d="M88.62,247.67c.03-.08-.62-.23-1.26-.97-.31-.37-.59-.89-.66-1.51-.07-.62,.06-1.34,.47-1.93,.1-.15,.21-.28,.32-.34,.11-.06,.18-.06,.31,0,.24,.15,.55,.43,.8,.62,.49,.38,.96,.75,1.41,1.1,.81,.61,1.34,.97,1.38,.92,.04-.05-.41-.49-1.17-1.18-.43-.38-.88-.77-1.35-1.18-.28-.22-.48-.44-.85-.69-.19-.13-.54-.16-.76-.01-.22,.13-.36,.31-.48,.48-.48,.7-.62,1.54-.51,2.25,.1,.72,.47,1.3,.84,1.68,.78,.76,1.51,.8,1.5,.75Z" style="fill:#263238;"></path></g><g><path d="M86.38,446.51l-1.14,25.33,32.28,1.61c-.04-3.02-16.43-9.89-16.43-9.89l1.42-16.2-16.12-.84Z" style="fill:#455a64;"></path><path d="M91.17,461.69c-.63,.14-1.1,.8-.99,1.42,.11,.62,.8,1.09,1.44,.97,.64-.12,1.22-.91,1.04-1.51-.18-.61-1.02-1.12-1.61-.85" style="fill:#fff;"></path><path d="M85.23,471.89l.11-2.71,30.98,2.7s1.4,.69,1.18,1.67l-32.28-1.66Z" style="fill:#263238;"></path><path d="M101.62,463.42c-.01,.15-.8,.18-1.61,.64-.81,.44-1.25,1.08-1.39,1.01-.14-.04,.14-.95,1.12-1.48,.97-.54,1.92-.31,1.88-.17Z" style="fill:#263238;"></path><path d="M104.94,464.96c.03,.15-.67,.38-1.24,1-.59,.61-.76,1.3-.91,1.29-.15,.02-.21-.89,.51-1.65,.71-.77,1.65-.79,1.64-.64Z" style="fill:#263238;"></path><path d="M106.66,469.01c-.14,.03-.33-.75,.12-1.58,.44-.83,1.2-1.12,1.26-.99,.08,.13-.42,.56-.78,1.24-.37,.67-.45,1.32-.61,1.33Z" style="fill:#263238;"></path><path d="M101.52,459.69c-.07,.14-.79-.11-1.68-.1-.89,0-1.6,.25-1.68,.12-.09-.12,.62-.65,1.67-.65,1.05-.01,1.77,.52,1.68,.63Z" style="fill:#263238;"></path></g><g><path d="M75.87,447l-1.27,25.59,31.98,.99c-.02-3.05-16.23-9.66-16.23-9.66l1.49-16.38-15.97-.54Z" style="fill:#455a64;"></path><path d="M80.53,462.23c-.63,.15-1.09,.83-.98,1.46,.11,.63,.79,1.09,1.42,.95,.63-.14,1.21-.94,1.03-1.55-.18-.61-1.01-1.11-1.59-.82" style="fill:#fff;"></path><path d="M74.59,472.65l.12-2.74,30.68,2.12s1.39,.67,1.16,1.66l-31.97-1.04Z" style="fill:#263238;"></path><path d="M90.87,463.77c-.01,.16-.8,.2-1.59,.68-.81,.46-1.24,1.12-1.38,1.05-.14-.03,.14-.96,1.11-1.52,.97-.57,1.9-.35,1.86-.21Z" style="fill:#263238;"></path><path d="M94.15,465.26c.03,.15-.66,.4-1.23,1.04-.58,.62-.76,1.33-.91,1.32-.15,.02-.21-.89,.51-1.68,.71-.79,1.63-.83,1.63-.68Z" style="fill:#263238;"></path><path d="M95.83,469.31c-.14,.03-.32-.75,.13-1.59,.44-.84,1.2-1.16,1.26-1.02,.08,.13-.42,.57-.78,1.27-.37,.69-.45,1.34-.61,1.35Z" style="fill:#263238;"></path><path d="M90.79,460.01c-.07,.14-.78-.1-1.66-.06-.89,.01-1.59,.29-1.66,.15-.08-.12,.62-.67,1.66-.69,1.04-.03,1.75,.49,1.67,.61Z" style="fill:#263238;"></path></g><g><g><path d="M102.68,333.87l.67,11.32s11.14,46.03,8.91,58.66c-2.81,15.88-9.54,58.37-9.54,58.37l-19.93-.25s.97-38.38,5.04-54.85c4.37-17.67-4.93-71.61-4.93-71.61l19.78-1.65Z" style="fill:#263238;"></path><path d="M106.22,331.83l-37.38-3.7s-3.41,9.52-4.11,21.24c-.54,9.01,4.99,24.34,4.99,24.34,2.53,8.27,6.51,25.5,6.51,25.5l-3.29,62.52,14.67,.31s12.83-52.61,14.85-60.06c3.02-11.16-.7-41.78-.7-41.78,.51-5,4.46-28.38,4.46-28.38Z" style="fill:#263238;"></path></g><path d="M106.22,331.83s-.04,.14-.09,.41c-.05,.29-.12,.69-.21,1.2-.18,1.08-.44,2.63-.77,4.62-.65,4.04-1.59,9.83-2.75,16.99v.03c.21,6.69,.46,14.59,.74,23.32,.07,2.18,.14,4.42,.22,6.7,.1,2.28,.03,4.59-.2,6.94-.47,4.7-1.32,9.53-2.33,14.44-.57,2.75-1.18,5.46-1.81,8.12-.72,2.63-1.12,5.34-1.53,7.93-.82,5.21-1.56,10.22-2.26,14.95-1.35,9.46-2.55,17.81-3.51,24.52l.16-.14c-5.92-.06-10.64-.11-13.92-.14-1.6,0-2.85-.01-3.72-.02-.41,0-.72,0-.96,0-.22,0-.33,0-.33,.02,0,0,.11,.02,.33,.03,.24,0,.56,.02,.96,.04,.87,.02,2.12,.06,3.72,.1,3.27,.07,8,.16,13.91,.28h.14l.02-.14c.99-6.71,2.23-15.05,3.63-24.5,.72-4.72,1.49-9.73,2.29-14.94,.43-2.61,.81-5.24,1.54-7.89,.64-2.66,1.25-5.37,1.82-8.14,1.01-4.92,1.85-9.76,2.32-14.49,.23-2.36,.3-4.72,.19-7.01-.08-2.28-.16-4.52-.23-6.7-.31-8.73-.6-16.62-.84-23.31v.03c1.09-7.16,1.98-12.97,2.59-17.01,.29-1.99,.52-3.55,.68-4.63,.07-.51,.12-.91,.16-1.21,.03-.27,.05-.41,.04-.41Z" style="fill:#455a64;"></path></g><g><path d="M97.73,265.23c.1,.4,5.16,12.97,5.78,19.36,.64,6.57,1.64,13.69,1.64,13.69l5.16,35.48-5.31,13.57-40.73-8.01,1.49-5.44-1.15-3.49c-.49-1.49-.66-3.06-.51-4.62l2.89-29.54-2.15-17.26c-1.12-8.96,1.14-18.02,6.34-25.41h0s15.41,2.11,16.54,2.61l6.58,4.27,3.44,4.78Z" style="fill:#0EBD50;"></path><path d="M48.38,257.13c-1.02,.35-2.09,.75-2.78,1.58-.97,1.17-.96,2.85-.77,4.36,.54,4.17,2.14,8.2,4.6,11.6,1.1,1.52,2.52,3.01,4.37,3.34,2.28,.41,6.33-.69,7.94-2.36,4.07-4.23,5.74-10.8,7.61-16.37l1.91-5.73c-7.75-.14-15.53,1.08-22.87,3.57Z" style="fill:#0EBD50;"></path></g><g><g style="opacity:.2;"><path d="M70.14,289.94s-1.1,19.81,.75,26.82c1.84,7.01,32.4,27.52,32.4,27.52l1.07-5.35-34.22-48.99Z"></path></g><g><g><rect x="109.94" y="325.52" width="13.9" height="24.91" transform="translate(368.18 83.53) rotate(63.72)" style="fill:#455a64;"></rect><path d="M130.39,338.85l-5.98-12.11c-.11-.22-.02-.49,.2-.6h0c.22-.11,.49-.02,.6,.2l5.98,12.11c.11,.22,.02,.49-.2,.6h0c-.22,.11-.49,.02-.6-.2Z" style="fill:#e0e0e0;"></path><path d="M108.52,349.64l-5.98-12.11c-.11-.22-.02-.49,.2-.6h0c.22-.11,.49-.02,.6,.2l5.98,12.11c.11,.22,.02,.49-.2,.6h0c-.22,.11-.49,.02-.6-.2Z" style="fill:#e0e0e0;"></path><g style="opacity:.3;"><polygon points="127.61 340.44 110.92 333.17 104.61 336.29 121.65 343.38 127.61 340.44" style="fill:#fff;"></polygon></g></g><path d="M109.66,329.19l8.43,2.5,5.86,5.95s-.18,1.96-2.31,.93c0,0,3.72,5.58,3.36,6.23-.36,.66-2.31,1.51-3.28,.17-.04,.83-.46,1.6-1.14,2.09-1.1,.67-1.9,.3-2.84-.96,0,0-.25,1.87-1.42,1.91-.76-.02-1.48-.37-1.97-.94,0,0-1.28,1.42-2.15,.88-1.31-.99-2.47-2.17-3.43-3.51l-2.92-4.79-2.1-2.89,5.92-7.59Z" style="fill:#ae7461;"></path><path d="M119.01,340.72c.28,.8,.68,1.56,1.19,2.24,.39,.75,.9,1.43,1.51,2.02-.28-.8-.67-1.55-1.18-2.23-.39-.75-.9-1.44-1.52-2.02Z" style="fill:#6f4439;"></path><path d="M115.49,342.66c.47,1.28,1.18,2.45,2.1,3.45-.17-.66-.47-1.28-.89-1.82-.3-.61-.71-1.17-1.21-1.63Z" style="fill:#6f4439;"></path><path d="M112.5,344.21c.21,.53,.52,1.03,.89,1.47,.26,.51,.58,.98,.95,1.42-.02-.6-.24-1.18-.62-1.65-.29-.52-.71-.95-1.23-1.24Z" style="fill:#6f4439;"></path><path d="M119.34,334.64c.28,.79,.65,1.53,1.12,2.23,.35,.76,.8,1.46,1.34,2.09-.18-.84-.51-1.63-.98-2.34-.37-.74-.87-1.41-1.48-1.98Z" style="fill:#6f4439;"></path></g><path d="M112.55,329.74l-20.18-22.85s1.98-27.82,2.59-34.53c.33-3.59,.55-7.45-1.3-10.54h0c-1.48-2.24-3.75-3.91-6.39-4.38-3.51-.64-7.35,.17-10.4,2.09-4.58,2.89-4.39,8.44-5.86,13.64-1.38,4.85-.83,20.78-.29,27.33l2.09,14.63c1.88,8.56,29.29,23.79,29.29,23.79l10.45-9.19Z" style="fill:#0EBD50;"></path></g><path d="M134.2,335.7c-.56-2.98-6.01-2.98-6.01-2.98l.11,.46-.11,.96s2.18,2.79,3.13,3.42c.95,.63,3.14-.45,2.88-1.86Zm-2.22,1.31c-.61,0-1.11-.5-1.11-1.11s.5-1.11,1.11-1.11,1.11,.5,1.11,1.11-.5,1.11-1.11,1.11Z" style="fill:#e0e0e0;"></path></g><path d="M72.46,314.91s-.14-.46-.28-1.32c-.15-.85-.33-2.09-.54-3.62-.41-3.06-.89-7.31-1.27-12.01-.37-4.7-.57-8.97-.65-12.06-.04-1.54-.05-2.8-.04-3.66,0-.86,.03-1.34,.07-1.34,.04,0,.09,.48,.15,1.34,.06,.98,.13,2.2,.22,3.65,.18,3.08,.44,7.34,.82,12.03,.38,4.69,.79,8.94,1.1,12.01,.14,1.45,.26,2.67,.36,3.64,.08,.86,.1,1.34,.06,1.34Z" style="fill:#263238;"></path><path d="M93.5,262.04c-.1,.09-.99-1.4-3.29-2.72-1.14-.66-2.63-1.22-4.35-1.46-1.71-.24-3.67-.11-5.54,.56-1.87,.7-3.45,1.84-4.64,3.1-1.2,1.26-2.04,2.61-2.58,3.81-1.1,2.42-1.16,4.12-1.28,4.1-.03,0-.04-.42,.06-1.17,.09-.75,.34-1.83,.86-3.08,.51-1.26,1.34-2.68,2.57-4.01,1.21-1.33,2.86-2.54,4.83-3.28,1.98-.71,4.03-.83,5.81-.55,1.79,.28,3.33,.9,4.48,1.63,1.16,.72,1.96,1.5,2.44,2.09,.48,.59,.68,.96,.66,.97Z" style="fill:#263238;"></path><path d="M112.13,330.19s-.16-.14-.44-.44c-.31-.34-.7-.78-1.19-1.32-1.06-1.21-2.51-2.89-4.29-4.93-3.63-4.24-8.57-10.03-14.04-16.44l-.07-.08v-.1c.01-.13,.02-.27,.03-.41,.53-8.51,1-16.2,1.35-21.85,.19-2.74,.35-4.99,.47-6.62l.15-1.8c.04-.41,.07-.63,.09-.62,.02,0,.02,.22,.02,.63-.01,.47-.03,1.07-.06,1.8-.07,1.63-.18,3.88-.3,6.63-.31,5.65-.73,13.35-1.2,21.86l-.02,.41-.06-.18c5.43,6.45,10.33,12.27,13.92,16.54,1.73,2.09,3.14,3.8,4.17,5.04,.45,.57,.82,1.03,1.11,1.39,.25,.32,.37,.49,.36,.51Z" style="fill:#263238;"></path></g></g></svg>
