<?xml version="1.0" encoding="utf-8"?>
<!-- Generator: Adobe Illustrator 27.5.0, SVG Export Plug-In . SVG Version: 6.00 Build 0)  -->
<svg version="1.1" xmlns="http://www.w3.org/2000/svg" xmlns:xlink="http://www.w3.org/1999/xlink" x="0px" y="0px"
	 viewBox="0 0 500 500" style="enable-background:new 0 0 500 500;" xml:space="preserve">
<g id="Background_Complete">
	<g>
		<g>
			<rect x="127.017" y="82.846" style="fill:#F5F5F5;" width="48.344" height="153.213"/>
		</g>
		<g>
			<rect x="151.189" y="82.846" style="fill:#EBEBEB;" width="24.172" height="152.791"/>
		</g>
		<g>
			<rect x="132.538" y="67.804" style="fill:#F5F5F5;" width="17.071" height="15.042"/>
		</g>
		<g>
			<rect x="145.54" y="67.804" style="fill:#EBEBEB;" width="4.069" height="15.042"/>
		</g>
		<g>
			<polyline style="fill:#E0E0E0;" points="122.989,82.846 122.989,81.968 176.776,81.968 176.776,82.846 			"/>
		</g>
		<g>
			<rect x="136.56" y="89.406" style="fill:#FAFAFA;" width="4.092" height="8.628"/>
		</g>
		<g>
			<g>
				<path style="fill:#E0E0E0;" d="M151.189,101.421c0,0.091-5.412,0.165-12.085,0.165c-6.676,0-12.087-0.074-12.087-0.165
					c0-0.091,5.41-0.165,12.087-0.165C145.778,101.256,151.189,101.33,151.189,101.421z"/>
			</g>
		</g>
		<g>
			<g>
				<rect x="160.942" y="89.406" style="fill:#E0E0E0;" width="4.092" height="8.628"/>
			</g>
			<g>
				<g>
					<path style="fill:#E0E0E0;" d="M175.572,101.421c0,0.091-5.411,0.165-12.085,0.165c-6.676,0-12.087-0.074-12.087-0.165
						c0-0.091,5.41-0.165,12.087-0.165C170.16,101.256,175.572,101.33,175.572,101.421z"/>
				</g>
			</g>
		</g>
		<g>
			<g>
				<rect x="160.942" y="106.537" style="fill:#E0E0E0;" width="4.092" height="8.628"/>
			</g>
			<g>
				<g>
					<path style="fill:#E0E0E0;" d="M175.572,118.552c0,0.091-5.411,0.165-12.085,0.165c-6.676,0-12.087-0.074-12.087-0.165
						c0-0.091,5.41-0.165,12.087-0.165C170.16,118.387,175.572,118.461,175.572,118.552z"/>
				</g>
			</g>
		</g>
		<g>
			<g>
				<rect x="160.942" y="124.185" style="fill:#E0E0E0;" width="4.092" height="8.628"/>
			</g>
			<g>
				<g>
					<path style="fill:#E0E0E0;" d="M175.572,136.2c0,0.091-5.411,0.165-12.085,0.165c-6.676,0-12.087-0.074-12.087-0.165
						c0-0.091,5.41-0.165,12.087-0.165C170.16,136.035,175.572,136.109,175.572,136.2z"/>
				</g>
			</g>
		</g>
		<g>
			<g>
				<rect x="160.942" y="141.833" style="fill:#E0E0E0;" width="4.092" height="8.628"/>
			</g>
			<g>
				<g>
					<path style="fill:#E0E0E0;" d="M175.572,153.848c0,0.091-5.411,0.165-12.085,0.165c-6.676,0-12.087-0.074-12.087-0.165
						c0-0.091,5.41-0.165,12.087-0.165C170.16,153.683,175.572,153.757,175.572,153.848z"/>
				</g>
			</g>
		</g>
		<g>
			<g>
				<rect x="160.942" y="158.976" style="fill:#E0E0E0;" width="4.092" height="8.628"/>
			</g>
			<g>
				<g>
					<path style="fill:#E0E0E0;" d="M175.572,170.991c0,0.091-5.411,0.165-12.085,0.165c-6.676,0-12.087-0.074-12.087-0.165
						c0-0.091,5.41-0.165,12.087-0.165C170.16,170.826,175.572,170.9,175.572,170.991z"/>
				</g>
			</g>
		</g>
		<g>
			<g>
				<rect x="160.942" y="176.189" style="fill:#E0E0E0;" width="4.092" height="8.628"/>
			</g>
			<g>
				<rect x="160.942" y="193.626" style="fill:#E0E0E0;" width="4.092" height="8.629"/>
			</g>
			<g>
				<g>
					<path style="fill:#E0E0E0;" d="M175.572,188.204c0,0.091-5.411,0.165-12.085,0.165c-6.676,0-12.087-0.074-12.087-0.165
						s5.41-0.165,12.087-0.165C170.16,188.039,175.572,188.113,175.572,188.204z"/>
				</g>
			</g>
		</g>
		<g>
			<rect x="136.56" y="106.798" style="fill:#FAFAFA;" width="4.092" height="8.628"/>
		</g>
		<g>
			<g>
				<path style="fill:#E0E0E0;" d="M151.189,118.813c0,0.091-5.412,0.165-12.085,0.165c-6.676,0-12.087-0.074-12.087-0.165
					c0-0.091,5.41-0.165,12.087-0.165C145.778,118.649,151.189,118.723,151.189,118.813z"/>
			</g>
		</g>
		<g>
			<rect x="136.56" y="124.191" style="fill:#FAFAFA;" width="4.092" height="8.629"/>
		</g>
		<g>
			<g>
				<path style="fill:#E0E0E0;" d="M151.189,136.206c0,0.091-5.412,0.165-12.085,0.165c-6.676,0-12.087-0.074-12.087-0.165
					c0-0.091,5.41-0.165,12.087-0.165C145.778,136.041,151.189,136.115,151.189,136.206z"/>
			</g>
		</g>
		<g>
			<rect x="136.56" y="141.584" style="fill:#FAFAFA;" width="4.092" height="8.628"/>
		</g>
		<g>
			<g>
				<path style="fill:#E0E0E0;" d="M151.189,153.598c0,0.091-5.412,0.165-12.085,0.165c-6.676,0-12.087-0.074-12.087-0.165
					c0-0.091,5.41-0.165,12.087-0.165C145.778,153.434,151.189,153.508,151.189,153.598z"/>
			</g>
		</g>
		<g>
			<rect x="136.56" y="158.976" style="fill:#FAFAFA;" width="4.092" height="8.628"/>
		</g>
		<g>
			<g>
				<path style="fill:#E0E0E0;" d="M151.189,170.991c0,0.091-5.412,0.165-12.085,0.165c-6.676,0-12.087-0.074-12.087-0.165
					c0-0.091,5.41-0.165,12.087-0.165C145.778,170.826,151.189,170.9,151.189,170.991z"/>
			</g>
		</g>
		<g>
			<rect x="136.56" y="176.369" style="fill:#FAFAFA;" width="4.092" height="8.629"/>
		</g>
		<g>
			<g>
				<path style="fill:#E0E0E0;" d="M151.189,188.384c0,0.091-5.412,0.165-12.085,0.165c-6.676,0-12.087-0.074-12.087-0.165
					c0-0.091,5.41-0.165,12.087-0.165C145.778,188.219,151.189,188.293,151.189,188.384z"/>
			</g>
		</g>
		<g>
			<g>
				<rect x="136.56" y="193.761" style="fill:#FAFAFA;" width="4.092" height="8.628"/>
			</g>
		</g>
	</g>
	<g>
		<g>
			<rect x="304.065" y="115.332" style="fill:#F5F5F5;" width="48.344" height="153.213"/>
		</g>
		<g>
			<rect x="328.237" y="115.332" style="fill:#EBEBEB;" width="24.172" height="152.791"/>
		</g>
		<g>
			<rect x="309.585" y="100.291" style="fill:#F5F5F5;" width="17.071" height="15.042"/>
		</g>
		<g>
			<rect x="322.588" y="100.291" style="fill:#EBEBEB;" width="4.069" height="15.042"/>
		</g>
		<g>
			<polyline style="fill:#E0E0E0;" points="300.036,115.332 300.036,114.455 353.823,114.455 353.823,115.332 			"/>
		</g>
		<g>
			<rect x="313.608" y="121.892" style="fill:#FAFAFA;" width="4.092" height="8.628"/>
		</g>
		<g>
			<g>
				<path style="fill:#E0E0E0;" d="M328.237,133.907c0,0.091-5.412,0.165-12.085,0.165c-6.676,0-12.087-0.074-12.087-0.165
					c0-0.091,5.41-0.165,12.087-0.165C322.825,133.742,328.237,133.816,328.237,133.907z"/>
			</g>
		</g>
		<g>
			<g>
				<rect x="337.99" y="121.892" style="fill:#E0E0E0;" width="4.092" height="8.628"/>
			</g>
			<g>
				<g>
					<path style="fill:#E0E0E0;" d="M352.619,133.907c0,0.091-5.411,0.165-12.085,0.165c-6.676,0-12.087-0.074-12.087-0.165
						c0-0.091,5.41-0.165,12.087-0.165C347.208,133.742,352.619,133.816,352.619,133.907z"/>
				</g>
			</g>
		</g>
		<g>
			<g>
				<rect x="337.99" y="139.023" style="fill:#E0E0E0;" width="4.092" height="8.629"/>
			</g>
			<g>
				<g>
					<path style="fill:#E0E0E0;" d="M352.619,151.038c0,0.091-5.411,0.165-12.085,0.165c-6.676,0-12.087-0.074-12.087-0.165
						s5.41-0.165,12.087-0.165C347.208,150.874,352.619,150.947,352.619,151.038z"/>
				</g>
			</g>
		</g>
		<g>
			<g>
				<rect x="337.99" y="156.671" style="fill:#E0E0E0;" width="4.092" height="8.628"/>
			</g>
			<g>
				<g>
					<path style="fill:#E0E0E0;" d="M352.619,168.686c0,0.091-5.411,0.165-12.085,0.165c-6.676,0-12.087-0.074-12.087-0.165
						c0-0.091,5.41-0.165,12.087-0.165C347.208,168.521,352.619,168.595,352.619,168.686z"/>
				</g>
			</g>
		</g>
		<g>
			<g>
				<rect x="337.99" y="174.319" style="fill:#E0E0E0;" width="4.092" height="8.628"/>
			</g>
			<g>
				<g>
					<path style="fill:#E0E0E0;" d="M352.619,186.334c0,0.091-5.411,0.165-12.085,0.165c-6.676,0-12.087-0.074-12.087-0.165
						c0-0.091,5.41-0.165,12.087-0.165C347.208,186.169,352.619,186.243,352.619,186.334z"/>
				</g>
			</g>
		</g>
		<g>
			<g>
				<rect x="337.99" y="191.462" style="fill:#E0E0E0;" width="4.092" height="8.628"/>
			</g>
			<g>
				<g>
					<path style="fill:#E0E0E0;" d="M352.619,203.477c0,0.091-5.411,0.165-12.085,0.165c-6.676,0-12.087-0.074-12.087-0.165
						c0-0.091,5.41-0.165,12.087-0.165C347.208,203.313,352.619,203.387,352.619,203.477z"/>
				</g>
			</g>
		</g>
		<g>
			<g>
				<rect x="337.99" y="208.675" style="fill:#E0E0E0;" width="4.092" height="8.628"/>
			</g>
			<g>
				<rect x="337.99" y="226.113" style="fill:#E0E0E0;" width="4.092" height="8.628"/>
			</g>
			<g>
				<g>
					<path style="fill:#E0E0E0;" d="M352.619,220.69c0,0.091-5.411,0.165-12.085,0.165c-6.676,0-12.087-0.074-12.087-0.165
						s5.41-0.165,12.087-0.165C347.208,220.525,352.619,220.599,352.619,220.69z"/>
				</g>
			</g>
		</g>
		<g>
			<rect x="313.608" y="139.285" style="fill:#FAFAFA;" width="4.092" height="8.628"/>
		</g>
		<g>
			<g>
				<path style="fill:#E0E0E0;" d="M328.237,151.3c0,0.091-5.412,0.165-12.085,0.165c-6.676,0-12.087-0.074-12.087-0.165
					c0-0.091,5.41-0.165,12.087-0.165C322.825,151.135,328.237,151.209,328.237,151.3z"/>
			</g>
		</g>
		<g>
			<rect x="313.608" y="156.677" style="fill:#FAFAFA;" width="4.092" height="8.629"/>
		</g>
		<g>
			<g>
				<path style="fill:#E0E0E0;" d="M328.237,168.692c0,0.091-5.412,0.165-12.085,0.165c-6.676,0-12.087-0.074-12.087-0.165
					c0-0.091,5.41-0.165,12.087-0.165C322.825,168.528,328.237,168.601,328.237,168.692z"/>
			</g>
		</g>
		<g>
			<rect x="313.608" y="174.07" style="fill:#FAFAFA;" width="4.092" height="8.629"/>
		</g>
		<g>
			<g>
				<path style="fill:#E0E0E0;" d="M328.237,186.085c0,0.091-5.412,0.165-12.085,0.165c-6.676,0-12.087-0.074-12.087-0.165
					c0-0.091,5.41-0.165,12.087-0.165C322.825,185.92,328.237,185.994,328.237,186.085z"/>
			</g>
		</g>
		<g>
			<rect x="313.608" y="191.462" style="fill:#FAFAFA;" width="4.092" height="8.628"/>
		</g>
		<g>
			<g>
				<path style="fill:#E0E0E0;" d="M328.237,203.477c0,0.091-5.412,0.165-12.085,0.165c-6.676,0-12.087-0.074-12.087-0.165
					c0-0.091,5.41-0.165,12.087-0.165C322.825,203.313,328.237,203.387,328.237,203.477z"/>
			</g>
		</g>
		<g>
			<rect x="313.608" y="208.855" style="fill:#FAFAFA;" width="4.092" height="8.629"/>
		</g>
		<g>
			<g>
				<path style="fill:#E0E0E0;" d="M328.237,220.87c0,0.091-5.412,0.165-12.085,0.165c-6.676,0-12.087-0.074-12.087-0.165
					c0-0.091,5.41-0.165,12.087-0.165C322.825,220.705,328.237,220.779,328.237,220.87z"/>
			</g>
		</g>
		<g>
			<g>
				<rect x="313.608" y="226.248" style="fill:#FAFAFA;" width="4.092" height="8.628"/>
			</g>
		</g>
	</g>
	<g>
		<g>
			<g>
				<rect x="334.489" y="174.777" style="fill:#EBEBEB;" width="78.277" height="103.244"/>
			</g>
			<g>
				<rect x="376.063" y="174.777" style="fill:#E0E0E0;" width="36.703" height="103.244"/>
			</g>
		</g>
		<g>
			<g>
				<rect x="350.902" y="188.755" style="fill:#F5F5F5;" width="7.038" height="17.1"/>
			</g>
			<g>
				<rect x="350.902" y="255.679" style="fill:#F5F5F5;" width="7.038" height="17.1"/>
			</g>
			<g>
				<g>
					<path style="fill:#F5F5F5;" d="M376.063,212.566c0,0.192-9.307,0.348-20.786,0.348c-11.483,0-20.788-0.156-20.788-0.348
						c0-0.192,9.306-0.348,20.788-0.348C366.756,212.218,376.063,212.374,376.063,212.566z"/>
				</g>
			</g>
		</g>
		<g>
			<g>
				<rect x="350.902" y="222.471" style="fill:#F5F5F5;" width="7.038" height="17.1"/>
			</g>
			<g>
				<g>
					<path style="fill:#F5F5F5;" d="M376.063,246.281c0,0.192-9.307,0.348-20.786,0.348c-11.483,0-20.788-0.156-20.788-0.348
						c0-0.192,9.306-0.348,20.788-0.348C366.756,245.934,376.063,246.09,376.063,246.281z"/>
				</g>
			</g>
		</g>
		<g>
			<rect x="383.858" y="188.755" style="fill:#F5F5F5;" width="7.038" height="17.1"/>
		</g>
		<g>
			<rect x="399.127" y="188.755" style="fill:#F5F5F5;" width="7.038" height="17.1"/>
		</g>
		<g>
			<rect x="383.858" y="221.202" style="fill:#F5F5F5;" width="7.038" height="17.099"/>
		</g>
		<g>
			<rect x="399.127" y="221.202" style="fill:#F5F5F5;" width="7.038" height="17.099"/>
		</g>
		<g>
			<rect x="383.858" y="253.649" style="fill:#F5F5F5;" width="7.038" height="17.099"/>
		</g>
		<g>
			<rect x="399.127" y="253.649" style="fill:#F5F5F5;" width="7.038" height="17.099"/>
		</g>
		<g>
			<rect x="328.605" y="171.183" style="fill:#E0E0E0;" width="90.046" height="3.723"/>
		</g>
		<g>
			<g>
				<path style="fill:#EBEBEB;" d="M413.313,175.257c0,0.192-17.496,0.348-39.073,0.348c-21.584,0-39.076-0.156-39.076-0.348
					c0-0.192,17.492-0.348,39.076-0.348C395.817,174.909,413.313,175.065,413.313,175.257z"/>
			</g>
		</g>
	</g>
	<g>
		<g>
			<g>
				<polygon style="fill:#EBEBEB;" points="157.427,280.085 86.287,280.085 85.978,167.654 157.117,167.654 				"/>
			</g>
			<g>
				<rect x="121.547" y="167.654" style="fill:#E0E0E0;" width="35.57" height="112.431"/>
			</g>
			<g>
				<rect x="94.101" y="145.52" style="fill:#EBEBEB;" width="25.121" height="22.134"/>
			</g>
			<g>
				<rect x="113.235" y="145.52" style="fill:#E0E0E0;" width="5.987" height="22.134"/>
			</g>
			<g>
				<rect x="80.049" y="166.363" style="fill:#E0E0E0;" width="79.15" height="1.291"/>
			</g>
			<g>
				<rect x="100.02" y="177.307" style="fill:#FFFFFF;" width="6.022" height="12.697"/>
			</g>
			<g>
				<g>
					<path style="fill:#E0E0E0;" d="M121.547,194.988c0,0.134-7.963,0.242-17.784,0.242c-9.824,0-17.786-0.108-17.786-0.242
						c0-0.134,7.961-0.242,17.786-0.242C113.584,194.745,121.547,194.854,121.547,194.988z"/>
				</g>
			</g>
			<g>
				<g>
					<rect x="135.899" y="177.307" style="fill:#F5F5F5;" width="6.022" height="12.697"/>
				</g>
				<g>
					<g>
						<path style="fill:#EBEBEB;" d="M157.427,194.988c0,0.134-7.963,0.242-17.784,0.242c-9.824,0-17.786-0.108-17.786-0.242
							c0-0.134,7.961-0.242,17.786-0.242C149.463,194.745,157.427,194.854,157.427,194.988z"/>
					</g>
				</g>
			</g>
			<g>
				<g>
					<rect x="135.899" y="202.516" style="fill:#F5F5F5;" width="6.022" height="12.697"/>
				</g>
				<g>
					<g>
						<path style="fill:#EBEBEB;" d="M157.427,220.196c0,0.134-7.963,0.242-17.784,0.242c-9.824,0-17.786-0.108-17.786-0.242
							c0-0.134,7.961-0.242,17.786-0.242C149.463,219.954,157.427,220.063,157.427,220.196z"/>
					</g>
				</g>
			</g>
			<g>
				<g>
					<rect x="135.899" y="228.486" style="fill:#F5F5F5;" width="6.022" height="12.697"/>
				</g>
				<g>
					<g>
						<path style="fill:#EBEBEB;" d="M157.427,246.166c0,0.134-7.963,0.242-17.784,0.242c-9.824,0-17.786-0.109-17.786-0.242
							c0-0.134,7.961-0.242,17.786-0.242C149.463,245.923,157.427,246.032,157.427,246.166z"/>
					</g>
				</g>
			</g>
			<g>
				<g>
					<rect x="135.899" y="254.455" style="fill:#F5F5F5;" width="6.022" height="12.697"/>
				</g>
				<g>
					<g>
						<path style="fill:#EBEBEB;" d="M157.427,272.135c0,0.134-7.963,0.243-17.784,0.243c-9.824,0-17.786-0.109-17.786-0.243
							c0-0.134,7.961-0.242,17.786-0.242C149.463,271.893,157.427,272.001,157.427,272.135z"/>
					</g>
				</g>
			</g>
			<g>
				<rect x="100.02" y="202.901" style="fill:#FFFFFF;" width="6.022" height="12.697"/>
			</g>
			<g>
				<g>
					<path style="fill:#E0E0E0;" d="M121.547,220.581c0,0.134-7.963,0.243-17.784,0.243c-9.824,0-17.786-0.109-17.786-0.243
						c0-0.134,7.961-0.242,17.786-0.242C113.584,220.339,121.547,220.447,121.547,220.581z"/>
				</g>
			</g>
			<g>
				<rect x="100.02" y="228.494" style="fill:#FFFFFF;" width="6.022" height="12.697"/>
			</g>
			<g>
				<g>
					<path style="fill:#E0E0E0;" d="M121.547,246.175c0,0.134-7.963,0.242-17.784,0.242c-9.824,0-17.786-0.109-17.786-0.242
						s7.961-0.242,17.786-0.242C113.584,245.932,121.547,246.041,121.547,246.175z"/>
				</g>
			</g>
			<g>
				<rect x="100.02" y="254.088" style="fill:#FFFFFF;" width="6.022" height="12.697"/>
			</g>
			<g>
				<g>
					<path style="fill:#E0E0E0;" d="M121.547,271.768c0,0.134-7.963,0.242-17.784,0.242c-9.824,0-17.786-0.108-17.786-0.242
						c0-0.134,7.961-0.242,17.786-0.242C113.584,271.526,121.547,271.634,121.547,271.768z"/>
				</g>
			</g>
		</g>
	</g>
	<g>
		<g>
			<g>
				<g>
					<path style="fill:#F5F5F5;" d="M439.16,144.927c0.376-2.733-3.481-4.981-6.379-5.214c-1.382-0.111-2.818,0.1-4.127-0.356
						c-2.837-0.989-3.97-4.654-6.738-5.821c-2.069-0.873-4.452-0.096-6.458,0.914c-2.006,1.01-3.989,2.28-6.23,2.424
						c-1.949,0.125-4.066-0.598-5.772,0.354c-1.271,0.71-1.937,2.174-3.108,3.038c-1.146,0.845-2.641,1.024-4.063,1.102
						c-1.422,0.077-2.894,0.092-4.189,0.685c-1.295,0.593-2.366,1.962-2.097,3.36L439.16,144.927z"/>
				</g>
			</g>
		</g>
	</g>
	<g>
		<g>
			<g>
				<g>
					<path style="fill:#EBEBEB;" d="M318.809,67.045c0.589-4.277-5.448-7.796-9.984-8.162c-2.163-0.174-4.41,0.156-6.459-0.558
						c-4.44-1.548-6.214-7.284-10.546-9.111c-3.239-1.366-6.968-0.15-10.108,1.43c-3.14,1.58-6.243,3.569-9.751,3.794
						c-3.051,0.195-6.365-0.936-9.035,0.554c-1.99,1.111-3.032,3.403-4.865,4.756c-1.794,1.323-4.134,1.603-6.36,1.724
						c-2.226,0.121-4.53,0.144-6.557,1.072c-2.027,0.928-3.704,3.071-3.283,5.26L318.809,67.045z"/>
				</g>
			</g>
		</g>
	</g>
	<g>
		<g>
			<g>
				<g>
					<path style="fill:#F5F5F5;" d="M113.203,126.197c0.469-3.41-4.343-6.215-7.96-6.507c-1.725-0.139-3.516,0.125-5.15-0.445
						c-3.54-1.234-4.954-5.807-8.408-7.264c-2.582-1.089-5.555-0.12-8.058,1.14c-2.503,1.26-4.977,2.845-7.774,3.024
						c-2.433,0.156-5.075-0.746-7.203,0.442c-1.586,0.886-2.417,2.713-3.879,3.791c-1.43,1.055-3.296,1.278-5.07,1.375
						c-1.774,0.097-3.611,0.115-5.227,0.854c-1.616,0.74-2.953,2.448-2.617,4.194L113.203,126.197z"/>
				</g>
			</g>
		</g>
	</g>
</g>
<g id="Background_Simple" style="display:none;">
	<g style="display:inline;">
		<path style="fill:#F5F5F5;" d="M398.235,105.808l-1.916-3.157c-16.151-26.615-45.352-42.659-76.14-40.713
			c-3.958,0.25-7.898,0.786-11.786,1.618c-27.992,5.992-52.349,27.16-62.445,54.27c-5.938,15.944-7.596,34.301-18.864,46.957
			c-14.664,16.471-39.56,16.988-61.449,16.305c-21.888-0.682-46.801-0.1-61.394,16.435c-9.139,10.356-12.044,25.083-11.307,38.951
			c1.951,36.718,27.537,69.549,60.075,85.868c32.539,16.319,70.849,17.781,106.46,10.602c49.887-10.056,97.33-37.674,125.846-80.329
			C413.834,209.961,421.051,151.847,398.235,105.808z"/>
	</g>
	<g style="display:inline;">
		
			<ellipse transform="matrix(0.2323 -0.9727 0.9727 0.2323 14.4038 214.6467)" style="fill:#F5F5F5;" cx="143.172" cy="98.199" rx="25.359" ry="25.359"/>
	</g>
</g>
<g id="Locations">
	<g>
		<g>
			<path style="fill:#FF725E;" d="M77.832,201.41c-11.334,0.263-20.576,9.5-20.846,20.834c-0.115,4.854,1.394,9.348,4.015,12.987
				l-0.006,0.002l0.208,0.283c0.01,0.013,0.02,0.027,0.029,0.04l15.124,20.571c1.331,1.811,4.056,1.754,5.31-0.111l13.67-20.323
				c2.587-3.945,4.361-8.069,4.361-12.93C99.699,210.798,89.86,201.131,77.832,201.41z M78.34,238.296
				c-8.869,0-16.058-7.189-16.058-16.058c0-8.869,7.189-16.058,16.058-16.058s16.058,7.189,16.058,16.058
				C94.398,231.107,87.208,238.296,78.34,238.296z"/>
		</g>
		<g style="opacity:0.3;">
			<path d="M77.832,201.41c-11.334,0.263-20.576,9.5-20.846,20.834c-0.115,4.854,1.394,9.348,4.015,12.987l-0.006,0.002l0.208,0.283
				c0.01,0.013,0.02,0.027,0.029,0.04l15.124,20.571c1.331,1.811,4.056,1.754,5.31-0.111l13.67-20.323
				c2.587-3.945,4.361-8.069,4.361-12.93C99.699,210.798,89.86,201.131,77.832,201.41z M78.34,238.296
				c-8.869,0-16.058-7.189-16.058-16.058c0-8.869,7.189-16.058,16.058-16.058s16.058,7.189,16.058,16.058
				C94.398,231.107,87.208,238.296,78.34,238.296z"/>
		</g>
		<g>
			<path style="fill:#FF725E;" d="M76.566,201.41c-11.334,0.263-20.576,9.5-20.846,20.834c-0.116,4.854,1.394,9.348,4.015,12.987
				l-0.006,0.002l0.208,0.283c0.01,0.013,0.02,0.027,0.029,0.04l15.124,20.571c1.331,1.811,4.056,1.754,5.31-0.111l13.67-20.323
				c2.587-3.945,4.361-8.069,4.361-12.93C98.433,210.798,88.595,201.131,76.566,201.41z M77.074,235.401
				c-6.717,0-12.162-5.445-12.162-12.162c0-6.717,5.445-12.162,12.162-12.162c6.717,0,12.162,5.445,12.162,12.162
				C89.235,229.956,83.79,235.401,77.074,235.401z"/>
		</g>
	</g>
	<g>
		<g>
			<path style="fill:#FF725E;" d="M412.862,181.164c-8.638,0.2-15.681,7.24-15.887,15.878c-0.088,3.699,1.062,7.124,3.06,9.897
				l-0.004,0.001l0.159,0.216c0.008,0.01,0.015,0.02,0.022,0.031l11.526,15.677c1.015,1.38,3.091,1.337,4.047-0.085l10.418-15.488
				c1.971-3.007,3.324-6.149,3.324-9.854C429.526,188.319,422.029,180.951,412.862,181.164z M413.248,209.275
				c-6.759,0-12.238-5.479-12.238-12.238c0-6.759,5.479-12.238,12.238-12.238c6.759,0,12.238,5.479,12.238,12.238
				C425.486,203.796,420.007,209.275,413.248,209.275z"/>
		</g>
		<g style="opacity:0.3;">
			<path d="M412.862,181.164c-8.638,0.2-15.681,7.24-15.887,15.878c-0.088,3.699,1.062,7.124,3.06,9.897l-0.004,0.001l0.159,0.216
				c0.008,0.01,0.015,0.02,0.022,0.031l11.526,15.677c1.015,1.38,3.091,1.337,4.047-0.085l10.418-15.488
				c1.971-3.007,3.324-6.149,3.324-9.854C429.526,188.319,422.029,180.951,412.862,181.164z M413.248,209.275
				c-6.759,0-12.238-5.479-12.238-12.238c0-6.759,5.479-12.238,12.238-12.238c6.759,0,12.238,5.479,12.238,12.238
				C425.486,203.796,420.007,209.275,413.248,209.275z"/>
		</g>
		<g>
			<path style="fill:#FF725E;" d="M411.897,181.164c-8.638,0.2-15.681,7.24-15.887,15.878c-0.088,3.699,1.062,7.124,3.06,9.897
				l-0.004,0.001l0.159,0.216c0.008,0.01,0.015,0.02,0.022,0.031l11.526,15.677c1.015,1.38,3.091,1.337,4.047-0.085l10.418-15.488
				c1.971-3.007,3.324-6.149,3.324-9.854C428.562,188.319,421.064,180.951,411.897,181.164z M412.284,207.069
				c-5.119,0-9.268-4.15-9.268-9.268c0-5.119,4.15-9.268,9.268-9.268c5.119,0,9.268,4.15,9.268,9.268
				C421.552,202.919,417.402,207.069,412.284,207.069z"/>
		</g>
	</g>
</g>
<g id="Map">
	<g>
		<g>
			<g>
				<polygon style="fill:#FFFFFF;" points="89.512,278.189 18.092,455.55 152.005,433.529 250.209,455.55 350.793,433.529 
					485.302,459.187 413.286,278.189 332.938,257.953 251.697,273.428 168.67,257.953 				"/>
			</g>
			<g>
				<g>
					<path style="fill:#263238;" d="M89.512,278.189c0,0,0.437-0.123,1.312-0.352c0.88-0.229,2.186-0.568,3.909-1.016
						c3.463-0.893,8.601-2.218,15.319-3.95c13.461-3.457,33.252-8.539,58.586-15.045l0.028-0.007l0.029,0.005
						c22.883,4.251,50.97,9.469,83.035,15.426l-0.066,0c24.318-4.642,51.74-9.876,81.235-15.505l0.046-0.009l0.046,0.011
						c24.953,6.277,51.987,13.079,80.353,20.215l0.116,0.029l0.044,0.111c22.008,55.292,46.342,116.428,72.039,180.989l0.174,0.438
						l-0.463-0.088c-22.118-4.219-45.492-8.677-69.193-13.197c-22.083-4.213-43.88-8.372-65.315-12.461l0.104-0.001
						c-34.562,7.564-68.188,14.922-100.586,22.012l-0.054,0.012l-0.054-0.012c-34.223-7.68-67.05-15.048-98.199-22.038l0.088,0.003
						c-49.204,8.076-94.248,15.469-133.92,21.98l-0.335,0.055l0.127-0.314c22.091-54.756,39.979-99.094,52.346-129.748
						c6.188-15.31,10.995-27.201,14.256-35.27c1.632-4.025,2.878-7.095,3.717-9.163C89.073,279.235,89.512,278.189,89.512,278.189
						s-0.415,1.074-1.242,3.15c-0.83,2.077-2.063,5.16-3.679,9.202c-3.242,8.082-8.021,19.994-14.173,35.33
						c-12.321,30.655-30.142,74.994-52.15,129.75l-0.208-0.259c39.668-6.536,84.708-13.956,133.907-22.062l0.045-0.007l0.044,0.01
						c31.152,6.98,63.982,14.336,98.207,22.004l-0.108,0c32.397-7.096,66.022-14.461,100.582-22.03l0.052-0.011l0.052,0.01
						c21.436,4.089,43.233,8.246,65.316,12.458c23.701,4.522,47.074,8.981,69.193,13.201l-0.289,0.349
						c-25.681-64.568-49.999-125.71-71.992-181.008l0.16,0.14c-28.362-7.151-55.393-13.966-80.343-20.257l0.091,0.003
						c-29.499,5.607-56.925,10.82-81.247,15.443l-0.033,0.006l-0.033-0.006c-32.058-5.994-60.139-11.245-83.017-15.522l0.056-0.002
						c-25.329,6.445-45.115,11.48-58.573,14.905c-6.732,1.706-11.881,3.011-15.352,3.891c-1.733,0.436-3.046,0.766-3.931,0.988
						C89.965,278.084,89.512,278.189,89.512,278.189z"/>
				</g>
			</g>
		</g>
		<g>
			<polygon style="fill:#FFFFFF;" points="93.679,282.95 30.59,446.623 151.41,426.982 251.697,450.194 350.793,426.387 
				473.994,450.194 409.12,282.95 334.128,264.5 251.697,279.974 167.48,264.5 			"/>
		</g>
		<g>
			<polygon style="fill:#455A64;" points="37.6,428.436 133.633,406.195 130.087,385.507 138.066,380.483 125.653,332.167 
				87.251,299.625 			"/>
		</g>
		<g>
			<polygon style="fill:#EBEBEB;" points="30.59,446.623 35.273,434.475 196.289,397.066 205.035,421.137 202.2,425.997 
				171.957,431.737 151.41,426.982 			"/>
		</g>
		<g>
			<polygon style="fill:#EBEBEB;" points="205.035,394.736 211.424,418.552 229.965,426.612 256.352,414.888 311.696,398.767 
				294.426,372.753 			"/>
		</g>
		<g>
			<polygon style="fill:#E0E0E0;" points="140.717,403.557 170.636,397.066 164.666,377.627 142.87,382.894 137.068,386.988 			"/>
		</g>
		<g>
			<polygon style="fill:#455A64;" points="134.609,339.132 145.473,374.779 162.448,371.044 159.393,357.347 196.737,348.977 			"/>
		</g>
		<g>
			<polygon style="fill:#EBEBEB;" points="90.077,292.295 137.068,330.021 199.453,341.848 265.993,325.306 235.619,277.02 
				167.48,264.5 93.679,282.95 			"/>
		</g>
		<g>
			<polygon style="fill:#EBEBEB;" points="244.705,278.69 342.261,428.436 350.793,426.387 256.373,279.097 251.697,279.974 			"/>
		</g>
		<g>
			<polygon style="fill:#E0E0E0;" points="165.673,361.117 178.035,397.066 287.768,369.031 267.46,334.458 			"/>
		</g>
		<g>
			<polyline style="fill:#E0E0E0;" points="226.721,444.413 227.789,442.825 234.996,432.111 252.292,426.612 264.186,417.651 
				315.761,403.557 331.778,430.955 251.697,450.194 			"/>
		</g>
		<g>
			<polygon style="fill:#E0E0E0;" points="318.076,267.513 343.924,296.265 409.12,282.95 334.128,264.5 			"/>
		</g>
		<g>
			<polygon style="fill:#E0E0E0;" points="422.841,318.324 374.958,331.627 350.793,299.625 410.755,287.166 			"/>
		</g>
		<g>
			<polygon style="fill:#EBEBEB;" points="261.493,278.135 311.696,350.247 369.638,333.622 311.696,268.711 			"/>
		</g>
		<g>
			<polygon style="fill:#E0E0E0;" points="401.851,436.253 459.783,413.56 473.994,450.194 			"/>
		</g>
		<g>
			<polygon style="fill:#455A64;" points="341.264,345.935 372.741,337.73 405.991,377.627 373.628,388.374 			"/>
		</g>
		<g>
			<polygon style="fill:#E0E0E0;" points="379.834,334.458 414.857,374.615 441.243,365.762 423.895,321.04 			"/>
		</g>
		<g>
			<polygon style="fill:#455A64;" points="405.991,426.875 379.834,390.592 443.056,370.437 455.903,403.557 447.664,411.854 			"/>
		</g>
		<g>
			<polygon style="fill:#E0E0E0;" points="314.774,355.552 362.834,428.436 392.428,434.432 398.011,431.877 337.114,348.818 			"/>
		</g>
		<g>
			<polygon style="fill:#E0E0E0;" points="117.813,409.859 105.839,353.563 63.617,360.94 37.6,428.436 			"/>
		</g>
		<g>
			<polygon style="fill:#455A64;" points="156.634,267.211 156.634,292.985 165.673,294.127 190.912,323.531 212.608,321.04 
				222.936,336.01 199.453,341.848 137.068,330.021 90.077,292.295 93.679,282.95 			"/>
		</g>
		<g>
			<polygon style="fill:#E0E0E0;" points="288.593,273.268 324.043,325 354.578,316.75 311.696,268.711 			"/>
		</g>
		<g>
			<polygon style="fill:#EBEBEB;" points="392.658,326.71 379.834,306.657 414.514,296.856 422.841,318.324 			"/>
		</g>
		<g>
			<polygon style="fill:#EBEBEB;" points="341.264,395.725 358.05,389.924 390.608,434.064 362.834,428.436 			"/>
		</g>
		<g>
			<polygon style="fill:#455A64;" points="186.409,435.083 202.022,433.183 207.223,425.567 226.721,431.697 221.621,443.233 			"/>
		</g>
		<g>
			<g>
				<path style="fill:#263238;" d="M93.679,282.95c0,0,1.644-0.432,4.865-1.249c3.229-0.815,8.018-2.023,14.28-3.604
					c12.551-3.153,31.002-7.789,54.624-13.724l0.027-0.007l0.028,0.005c22.991,4.21,51.488,9.428,84.226,15.423l-0.066,0
					c24.648-4.637,52.465-9.87,82.425-15.507l0.046-0.009l0.045,0.011c23.44,5.76,48.633,11.951,74.996,18.43l0.119,0.029
					l0.044,0.114c19.86,51.178,41.791,107.695,64.896,167.235l0.169,0.436l-0.46-0.089c-19.742-3.814-40.639-7.852-61.813-11.943
					c-20.753-4.011-41.239-7.97-61.388-11.864l0.109-0.003c-34.109,8.191-67.249,16.149-99.098,23.798l-0.057,0.014l-0.057-0.013
					c-35.136-8.139-68.671-15.908-100.282-23.231l0.088,0.003c-44.384,7.2-84.966,13.783-120.826,19.6l-0.324,0.053l0.118-0.306
					c19.528-50.556,35.333-91.473,46.257-119.755c5.467-14.124,9.712-25.092,12.593-32.534c1.442-3.711,2.542-6.542,3.283-8.45
					C93.29,283.914,93.679,282.95,93.679,282.95s-0.365,0.991-1.094,2.906c-0.733,1.916-1.82,4.76-3.246,8.488
					c-2.862,7.455-7.079,18.443-12.51,32.593C65.95,355.219,50.212,396.135,30.766,446.69l-0.206-0.253
					c35.856-5.841,76.434-12.452,120.813-19.681l0.045-0.007l0.044,0.01c31.614,7.311,65.152,15.066,100.291,23.192l-0.114,0
					c31.847-7.654,64.987-15.619,99.094-23.816l0.055-0.013l0.055,0.011c20.149,3.893,40.635,7.851,61.389,11.861
					c21.173,4.092,42.07,8.13,61.812,11.946l-0.29,0.348c-23.089-59.545-45.005-116.068-64.852-167.252l0.163,0.143
					c-26.36-6.493-51.55-12.697-74.987-18.47l0.091,0.002c-29.965,5.613-57.785,10.824-82.437,15.442l-0.033,0.006l-0.033-0.006
					c-32.73-6.035-61.222-11.288-84.207-15.526l0.055-0.002c-23.616,5.875-42.063,10.463-54.61,13.585
					c-6.277,1.554-11.077,2.743-14.313,3.544C95.354,282.553,93.679,282.95,93.679,282.95z"/>
			</g>
		</g>
		<g style="opacity:0.2;">
			<polygon points="250.209,455.55 251.697,273.428 168.67,257.953 152.005,433.529 			"/>
		</g>
		<g style="opacity:0.2;">
			<polygon points="332.938,257.953 350.793,433.529 485.302,459.187 413.286,278.189 			"/>
		</g>
	</g>
</g>
<g id="Character">
	<g>
		<g>
			<g>
				<path style="fill:#FF725E;" d="M252.339,101.092c-58.01,1.346-105.309,48.623-106.69,106.632
					c-0.591,24.843,7.134,47.843,20.551,66.469l-0.029,0.009l1.065,1.449c0.051,0.068,0.1,0.137,0.15,0.205l77.406,105.285
					c6.814,9.268,20.757,8.977,27.178-0.569l69.965-104.015c13.24-20.192,22.321-41.297,22.321-66.175
					C364.256,149.142,313.902,99.664,252.339,101.092z M254.936,289.879c-45.391,0-82.188-36.797-82.188-82.188
					s36.797-82.188,82.188-82.188s82.188,36.797,82.188,82.188S300.328,289.879,254.936,289.879z"/>
			</g>
			<g style="opacity:0.3;">
				<path d="M252.339,101.092c-58.01,1.346-105.309,48.623-106.69,106.632c-0.591,24.843,7.134,47.843,20.551,66.469l-0.029,0.009
					l1.065,1.449c0.051,0.068,0.1,0.137,0.15,0.205l77.406,105.285c6.814,9.268,20.757,8.977,27.178-0.569l69.965-104.015
					c13.24-20.192,22.321-41.297,22.321-66.175C364.256,149.142,313.902,99.664,252.339,101.092z M254.936,289.879
					c-45.391,0-82.188-36.797-82.188-82.188s36.797-82.188,82.188-82.188s82.188,36.797,82.188,82.188
					S300.328,289.879,254.936,289.879z"/>
			</g>
			<g>
				<path style="fill:#FF725E;" d="M245.859,101.092c-58.009,1.346-105.309,48.623-106.69,106.632
					c-0.591,24.843,7.134,47.843,20.551,66.469l-0.029,0.009l1.065,1.449c0.051,0.068,0.1,0.137,0.15,0.205l77.406,105.285
					c6.814,9.268,20.757,8.977,27.177-0.569l69.965-104.015c13.24-20.192,22.321-41.297,22.321-66.175
					C357.777,149.142,307.422,99.664,245.859,101.092z M248.457,289.879c-45.391,0-82.188-36.797-82.188-82.188
					s36.797-82.188,82.188-82.188s82.188,36.797,82.188,82.188S293.848,289.879,248.457,289.879z"/>
			</g>
			<g style="opacity:0.3;">
				<g>
					<path d="M295.739,269.68c-1.315,1.489-88.228,24.437-89.543,25.926c16.668,5.083,37.03,9.508,54.427,8.5
						c9.81-0.569,20.038-2.317,27.793-8.351C296.171,289.719,300.46,278.297,295.739,269.68z"/>
				</g>
			</g>
			<g>
				<g>
					<g>
						<g>
							<path style="fill:#263238;" d="M212.742,103.82c-5.049,5.267-7.252,13.112-5.684,20.237c0.762,3.461,2.286,7.32,0.385,10.31
								c-1.883,2.96-6.318,3.504-8.097,6.528c-2.094,3.56,0.704,8.029,0.353,12.144c-0.33,3.863-3.892,7.175-7.768,7.223
								c4.976,3.021,10.798,4.633,16.619,4.602c1.198-2.08,2.396-4.161,3.594-6.242c-1.385,2.203-0.504,5.281,1.388,7.068
								c1.892,1.787,4.529,2.536,7.094,2.971c12.257,2.078,25.402-1.994,34.339-10.637"/>
						</g>
					</g>
					<g>
						<g>
							<path style="fill:#263238;" d="M282.865,125.518c-1.252-2.56-3.072-4.84-4.049-7.517c-2.099-5.754-0.145-12.836-3.771-17.773
								c-2.581-3.513-7.206-4.763-11.51-5.455c-4.304-0.692-8.884-1.149-12.386-3.746c-2.568-1.905-4.281-4.784-6.842-6.698
								c-3.65-2.727-8.533-3.14-13.076-2.785c-4.665,0.364-9.385,1.479-13.259,4.104c-3.874,2.624-6.791,6.941-6.891,11.62
								c-0.049,2.281,0.552,4.58,0.15,6.826c-0.442,2.469-2.039,4.566-2.873,6.933c-1.763,5,0.426,11.093,4.968,13.828
								l37.503,36.565c7.024,1.585,22.759-3.728,27.225-9.377C282.518,146.392,286.029,131.986,282.865,125.518z"/>
						</g>
					</g>
					<g>
						<g>
							<g>
								<g>
									<g>
										<g>
											<g>
												<g>
													<path style="fill:#FFBE9D;" d="M213.434,119.524c0.004-9.496,5.544-21.493,15.03-21.086l29.894,5.595
														c2.882,0.123,5.19,2.432,5.314,5.314l1.295,71.16c0.071,0.011,0.135,0.021,0.206,0.031c0,0-5.405,20.446-25.247,15.594
														c-3.935-0.962-5.968-5.066-7.014-9.354l-0.197,0.038c-0.041-0.515-0.078-0.994-0.117-1.485
														c-0.966-4.965-0.747-9.735-0.747-9.735l0,0c-0.426-5.725-0.572-8.074-0.573-8.021c0,0-12.209-1.249-15.7-16.859
														C213.842,142.954,213.43,130.074,213.434,119.524z"/>
												</g>
											</g>
										</g>
									</g>
								</g>
								<g>
									<g>
										<g>
											<g>
												<g>
													<g>
														<g>
															<g>
																<g>
																	<g>
																		<g>
																			<g>
																				<g>
																					<g>
																						<g>
																							<g>
																								<g>
																									<g>
																										<g>
																											<g>
																												<g>
																													<path style="fill:#263238;" d="M240.821,129.254c0.029,1.07,0.959,1.928,2.077,1.918
																														c1.116-0.01,1.999-0.883,1.97-1.953c-0.029-1.07-0.96-1.929-2.075-1.919
																														C241.675,127.309,240.792,128.184,240.821,129.254z"/>
																												</g>
																											</g>
																										</g>
																									</g>
																								</g>
																							</g>
																						</g>
																					</g>
																				</g>
																			</g>
																		</g>
																	</g>
																	<g>
																		<g>
																			<g>
																				<g>
																					<g>
																						<g>
																							<g>
																								<g>
																									<g>
																										<g>
																											<g>
																												<g>
																													<path style="fill:#263238;" d="M220.171,130.831c0.029,1.07,0.959,1.928,2.077,1.918
																														c1.116-0.01,1.999-0.883,1.97-1.954c-0.029-1.07-0.959-1.929-2.075-1.919
																														C221.025,128.885,220.141,129.76,220.171,130.831z"/>
																												</g>
																											</g>
																										</g>
																									</g>
																								</g>
																							</g>
																						</g>
																					</g>
																				</g>
																			</g>
																		</g>
																	</g>
																	<g>
																		<g>
																			<g>
																				<g>
																					<g>
																						<g>
																							<g>
																								<g>
																									<g>
																										<g>
																											<g>
																												<g>
																													<g>
																														<path style="fill:#263238;" d="M215.834,126.358c0.268,0.336,1.965-1.102,4.343-1.089
																															c2.375-0.027,4.097,1.401,4.36,1.063c0.129-0.15-0.14-0.756-0.889-1.401
																															c-0.737-0.642-2.003-1.269-3.484-1.266c-1.481,0.006-2.737,0.638-3.463,1.286
																															C215.959,125.601,215.702,126.207,215.834,126.358z"/>
																													</g>
																												</g>
																											</g>
																										</g>
																									</g>
																								</g>
																							</g>
																						</g>
																					</g>
																				</g>
																			</g>
																		</g>
																	</g>
																</g>
																<g>
																	<g>
																		<g>
																			<g>
																				<g>
																					<g>
																						<g>
																							<g>
																								<g>
																									<g>
																										<g>
																											<g>
																												<g>
																													<g>
																														<path style="fill:#263238;" d="M237.807,125.822c0.322,0.298,1.968-1.287,4.488-1.531
																															c2.516-0.283,4.497,0.923,4.739,0.565c0.12-0.16-0.228-0.722-1.096-1.27
																															c-0.852-0.548-2.261-1.021-3.832-0.858c-1.57,0.166-2.833,0.918-3.533,1.629
																															C237.86,125.07,237.651,125.689,237.807,125.822z"/>
																													</g>
																												</g>
																											</g>
																										</g>
																									</g>
																								</g>
																							</g>
																						</g>
																					</g>
																				</g>
																			</g>
																		</g>
																	</g>
																</g>
																<g>
																	<g>
																		<g>
																			<g>
																				<g>
																					<g>
																						<g>
																							<g>
																								<g>
																									<g>
																										<g>
																											<g>
																												<g>
																													<g>
																														<path style="fill:#263238;" d="M231.169,141.734c0.002-0.124-1.365-0.273-3.574-0.416
																															c-0.559-0.023-1.092-0.1-1.209-0.473c-0.156-0.393,0.039-1.006,0.268-1.67
																															c0.439-1.377,0.897-2.821,1.378-4.333c1.904-6.166,3.246-11.223,2.997-11.297
																															c-0.249-0.075-1.995,4.863-3.899,11.029c-0.456,1.52-0.893,2.969-1.307,4.355
																															c-0.171,0.644-0.487,1.383-0.152,2.199c0.176,0.406,0.602,0.682,0.965,0.755
																															c0.363,0.086,0.676,0.073,0.952,0.072C229.799,141.934,231.168,141.858,231.169,141.734z"/>
																													</g>
																												</g>
																											</g>
																										</g>
																									</g>
																								</g>
																							</g>
																						</g>
																					</g>
																				</g>
																			</g>
																		</g>
																	</g>
																</g>
																<g>
																	<g>
																		<g>
																			<g>
																				<g>
																					<g>
																						<g>
																							<g>
																								<g>
																									<g>
																										<g>
																											<g>
																												<g>
																													<path style="fill:#EB996E;" d="M231.278,167.575c0,0,10.649,0.02,20.762-6.955
																														c0,0-4.444,11.151-20.316,10.664L231.278,167.575z"/>
																												</g>
																											</g>
																										</g>
																									</g>
																								</g>
																							</g>
																						</g>
																					</g>
																				</g>
																			</g>
																		</g>
																	</g>
																</g>
																<g>
																	<g>
																		<g>
																			<g>
																				<g>
																					<g>
																						<g>
																							<g>
																								<g>
																									<g>
																										<g>
																											<g>
																												<g>
																													<path style="fill:#FF725E;" d="M232.417,146.92c0.718-1.083,2.053-1.738,3.424-1.676
																														c0.95,0.043,1.933,0.438,2.555,1.171c0.622,0.733,0.811,1.817,0.335,2.582
																														c-0.535,0.863-1.75,1.13-2.807,0.9c-1.057-0.23-1.993-0.858-2.885-1.486
																														c-0.247-0.174-0.499-0.355-0.661-0.605c-0.163-0.249-0.215-0.585-0.048-0.81"/>
																												</g>
																											</g>
																										</g>
																									</g>
																								</g>
																							</g>
																						</g>
																					</g>
																				</g>
																			</g>
																		</g>
																	</g>
																</g>
																<g>
																	<g>
																		<g>
																			<g>
																				<g>
																					<g>
																						<g>
																							<g>
																								<g>
																									<g>
																										<g>
																											<g>
																												<g>
																													<g>
																														<path style="fill:#263238;" d="M237.666,142.838c-0.355,0.002-0.212,2.363-2.128,4.166
																															c-1.912,1.808-4.447,1.701-4.444,2.032c-0.024,0.15,0.59,0.424,1.654,0.386
																															c1.045-0.029,2.546-0.46,3.718-1.563c1.169-1.105,1.613-2.51,1.633-3.484
																															C238.127,143.383,237.827,142.814,237.666,142.838z"/>
																													</g>
																												</g>
																											</g>
																										</g>
																									</g>
																								</g>
																							</g>
																						</g>
																					</g>
																				</g>
																			</g>
																		</g>
																	</g>
																</g>
															</g>
														</g>
													</g>
													<g>
														<g>
															<g>
																<g>
																	<g>
																		<g>
																			<g>
																				<g>
																					<g>
																						<g>
																							<g>
																								<g>
																									<g>
																										<path style="fill:#263238;" d="M236.985,118.458c0.251,0.578,2.406,0.162,4.978,0.31
																											c2.575,0.096,4.68,0.714,4.986,0.162c0.135-0.263-0.258-0.797-1.127-1.318
																											c-0.861-0.52-2.211-0.981-3.754-1.056c-1.543-0.072-2.931,0.259-3.837,0.696
																											C237.318,117.688,236.875,118.183,236.985,118.458z"/>
																									</g>
																								</g>
																							</g>
																						</g>
																					</g>
																				</g>
																			</g>
																		</g>
																	</g>
																</g>
															</g>
														</g>
													</g>
													<g>
														<g>
															<g>
																<g>
																	<g>
																		<g>
																			<g>
																				<g>
																					<g>
																						<g>
																							<g>
																								<g>
																									<g>
																										<path style="fill:#263238;" d="M217.056,119.689c0.468,0.467,2.149-0.153,4.208-0.307
																											c2.053-0.216,3.825,0.094,4.194-0.448c0.16-0.262-0.146-0.74-0.937-1.16
																											c-0.78-0.419-2.06-0.721-3.474-0.595c-1.412,0.128-2.611,0.652-3.296,1.204
																											C217.055,118.936,216.848,119.46,217.056,119.689z"/>
																									</g>
																								</g>
																							</g>
																						</g>
																					</g>
																				</g>
																			</g>
																		</g>
																	</g>
																</g>
															</g>
														</g>
													</g>
												</g>
											</g>
										</g>
									</g>
								</g>
							</g>
						</g>
					</g>
					<g>
						<g>
							<g>
								<g>
									<g>
										<g>
											<g>
												<path style="fill:#263238;" d="M264.987,105.391c-1.751-2.015-4.499-2.793-7.099-3.399
													c-11.211-2.616-22.734-3.89-34.246-3.787c-1.083,2.518,0.662,5.494,3.023,6.885c2.361,1.392,5.184,1.676,7.86,2.271
													c2.676,0.595,5.487,1.694,6.885,4.051c1.487,2.507,0.989,5.793,2.348,8.371c2.339,4.437,9.07,5.03,11.383,9.479
													c1.749,3.366,0.227,7.423,0.235,11.215c0.01,4.298,2.196,8.537,5.692,11.036c2.758,1.971,6.271,2.802,9.631,2.396
													c-1.105-13.516-2.211-27.032-3.316-40.548C267.153,110.547,266.839,107.523,264.987,105.391z"/>
											</g>
										</g>
									</g>
								</g>
							</g>
						</g>
					</g>
					<g>
						<g>
							<g>
								<path style="fill:#263238;" d="M296.745,135.476c-2.383-1.601-5.268-2.87-6.493-5.467
									c-1.784-3.783,0.741-8.876-1.809-12.191c-2.326-3.024-7.799-2.087-10.004-5.2c-1.722-2.431-0.491-4.968-1.329-7.198
									c-0.837-2.23-4.387-3.791-6.691-3.187l-14.591,29.104c-0.453,9.14-1.499,14.119,1.142,19.059
									c1.449,2.71,3.206,5.303,4.039,8.26c0.833,2.957,0.542,6.481-1.673,8.61c11.068-0.676,20.525-7.844,29.229-14.713
									c3.071-2.423,6.142-4.846,9.213-7.27c0.958-0.757,1.955-1.561,2.435-2.684C301.343,139.96,299.128,137.077,296.745,135.476z
									"/>
							</g>
						</g>
					</g>
					<g>
						<g>
							<g>
								<g>
									<path style="fill:#455A64;" d="M288.464,149.832c0,0-0.37,0.2-1.138,0.389c-0.764,0.187-1.937,0.387-3.444,0.236
										c-1.492-0.149-3.345-0.641-5.116-1.894c-1.767-1.23-3.344-3.315-4.028-5.961c-0.337-1.319-0.449-2.77-0.23-4.249
										c0.222-1.487,0.829-2.923,1.463-4.354c0.623-1.432,1.316-2.909,1.506-4.516c0.189-1.578-0.062-3.388-1.237-4.56
										c-1.183-1.195-3.079-1.262-4.892-1.713c-0.912-0.224-1.88-0.635-2.577-1.401c-0.696-0.765-1.037-1.778-1.155-2.765
										c-0.257-2.008,0.34-3.96,0.446-5.877c0.056-0.96-0.012-1.937-0.375-2.799c-0.357-0.862-1.032-1.568-1.891-1.999
										c-1.739-0.907-3.781-0.805-5.746-0.704c-1.973,0.133-4.075-0.021-5.875-0.869c-1.812-0.796-3.356-2.085-4.448-3.645
										c-1.087-1.58-1.651-3.363-2.161-5.047c-0.507-1.69-0.979-3.337-1.763-4.771c-0.783-1.427-1.89-2.607-3.119-3.52
										c-2.502-1.791-5.448-2.519-8.055-2.368c-2.626,0.145-4.884,1.162-6.583,2.363c-1.715,1.204-2.93,2.589-3.767,3.803
										c-1.667,2.463-1.994,4.141-2.083,4.1c-0.011-0.003,0.011-0.104,0.065-0.299c0.06-0.192,0.124-0.489,0.267-0.856
										c0.258-0.745,0.727-1.821,1.544-3.085c0.818-1.256,2.027-2.693,3.766-3.956c1.722-1.258,4.034-2.343,6.764-2.524
										c2.705-0.185,5.765,0.537,8.396,2.39c1.292,0.945,2.466,2.177,3.302,3.68c0.833,1.504,1.321,3.191,1.835,4.871
										c0.514,1.677,1.074,3.394,2.097,4.868c1.031,1.461,2.491,2.674,4.199,3.419c1.709,0.793,3.623,0.936,5.592,0.806
										c1.945-0.096,4.126-0.236,6.072,0.773c0.963,0.478,1.777,1.319,2.186,2.32c0.419,1.001,0.48,2.075,0.422,3.084
										c-0.125,2.032-0.701,3.921-0.459,5.766c0.107,0.908,0.41,1.78,0.991,2.422c0.582,0.641,1.403,1.009,2.27,1.225
										c0.866,0.231,1.779,0.344,2.677,0.585c0.891,0.228,1.807,0.618,2.478,1.302c1.363,1.389,1.586,3.375,1.381,5.049
										c-0.219,1.731-0.95,3.238-1.58,4.665c-0.645,1.425-1.238,2.809-1.46,4.214c-0.22,1.404-0.128,2.793,0.181,4.061
										c0.629,2.545,2.115,4.569,3.797,5.78c1.687,1.236,3.479,1.754,4.932,1.936
										C286.873,150.534,288.456,149.717,288.464,149.832z"/>
								</g>
							</g>
						</g>
					</g>
					<g>
						<g>
							<g>
								<g>
									<path style="fill:#263238;" d="M300.424,128.919c0,0,0.257,0.237,0.486,0.844c0.23,0.595,0.355,1.614-0.089,2.781
										c-0.233,0.57-0.603,1.181-1.195,1.669c-0.587,0.485-1.37,0.842-2.251,0.951c-1.741,0.263-3.941-0.499-5.222-2.373
										c-0.644-0.912-1.079-2.026-1.248-3.228c-0.167-1.209-0.028-2.478,0.263-3.726c0.537-2.491,1.79-5.02,1.436-7.794
										c-0.158-1.346-0.677-2.76-1.798-3.586c-1.114-0.852-2.655-0.882-4.154-0.685c-1.507,0.16-3.116,0.581-4.809,0.173
										c-0.832-0.209-1.624-0.692-2.179-1.368c-0.562-0.671-0.92-1.477-1.139-2.303c-0.441-1.679-0.268-3.35-0.286-4.924
										c0.024-1.579-0.285-3.088-0.886-4.475c-1.208-2.767-3.476-4.915-6.032-5.972c-2.574-1.098-5.341-0.868-7.835-0.669
										c-2.508,0.217-4.936,0.398-7.083-0.121c-2.141-0.475-3.936-1.392-5.338-2.399c-1.417-1-2.436-2.11-3.171-3.074
										c-1.458-1.958-1.79-3.292-1.79-3.292c0.073-0.04,0.494,1.262,1.987,3.137c0.752,0.923,1.777,1.985,3.18,2.933
										c1.389,0.956,3.15,1.818,5.227,2.248c2.075,0.474,4.426,0.276,6.942,0.035c2.491-0.218,5.356-0.496,8.107,0.653
										c2.708,1.104,5.099,3.347,6.385,6.269c0.64,1.453,0.973,3.098,0.948,4.723c0.015,1.612-0.138,3.239,0.268,4.763
										c0.373,1.521,1.377,2.879,2.856,3.216c1.461,0.366,3.03-0.009,4.575-0.18c1.521-0.196,3.281-0.19,4.597,0.82
										c1.313,0.986,1.856,2.571,2.018,4.009c0.176,1.465-0.063,2.915-0.431,4.219c-0.357,1.315-0.787,2.55-1.075,3.765
										c-0.295,1.21-0.434,2.412-0.291,3.54c0.146,1.127,0.542,2.176,1.129,3.032c1.165,1.753,3.174,2.483,4.805,2.276
										c0.82-0.084,1.551-0.4,2.102-0.832c0.554-0.434,0.919-0.995,1.156-1.526c0.454-1.087,0.381-2.06,0.198-2.645
										C300.606,129.206,300.392,128.938,300.424,128.919z"/>
								</g>
							</g>
						</g>
					</g>
					<g>
						<g>
							<g>
								<g>
									<path style="fill:#263238;" d="M185.956,151.631c0.101-0.021-0.445,1.133,0.437,2.858c0.435,0.808,1.294,1.748,2.599,1.989
										c1.271,0.245,2.915-0.313,3.864-1.661c0.477-0.663,0.688-1.525,0.62-2.425c-0.066-0.899-0.375-1.817-0.807-2.712
										c-0.841-1.772-2.31-3.623-2.467-6.064c-0.196-2.362,0.656-4.927,2.443-6.794c0.882-0.937,1.961-1.711,3.16-2.275
										c1.2-0.581,2.528-0.858,3.821-1.107c1.297-0.251,2.578-0.466,3.73-0.926c1.146-0.451,2.138-1.21,2.689-2.244
										c0.554-1.032,0.691-2.238,0.611-3.389c-0.079-1.161-0.376-2.271-0.757-3.337c-0.755-2.125-1.708-4.16-1.879-6.268
										c-0.182-2.094,0.349-4.052,1.21-5.593c0.86-1.569,2.108-2.63,3.145-3.514c1.054-0.885,1.95-1.647,2.577-2.371
										c1.29-1.44,1.385-2.596,1.471-2.556c0.011,0.002,0.004,0.069-0.02,0.199c-0.03,0.127-0.048,0.327-0.144,0.567
										c-0.15,0.492-0.49,1.195-1.116,1.952c-0.613,0.768-1.504,1.573-2.532,2.481c-1.018,0.912-2.192,1.958-2.982,3.462
										c-0.796,1.482-1.273,3.353-1.078,5.325c0.18,1.984,1.117,3.956,1.907,6.119c0.395,1.083,0.721,2.258,0.811,3.491
										c0.091,1.225-0.042,2.551-0.669,3.732c-0.623,1.187-1.769,2.055-3.006,2.54c-1.243,0.497-2.557,0.713-3.848,0.964
										c-1.292,0.249-2.546,0.512-3.671,1.055c-1.129,0.528-2.145,1.254-2.973,2.128c-1.675,1.737-2.476,4.119-2.311,6.316
										c0.116,2.237,1.485,4.017,2.357,5.881c0.44,0.938,0.762,1.919,0.821,2.91c0.065,0.985-0.192,1.98-0.744,2.719
										c-1.093,1.49-2.897,2.053-4.305,1.751c-1.445-0.309-2.326-1.357-2.753-2.227c-0.443-0.899-0.469-1.705-0.418-2.214
										C185.821,151.873,185.956,151.631,185.956,151.631z"/>
								</g>
							</g>
						</g>
					</g>
				</g>
				<g>
					<g>
						<path style="fill:#455A64;" d="M189.652,212.606c0,0,1.68-13.444,8.162-20.166c6.482-6.722,33.6-15.139,33.6-15.139
							s1.12,9.59,7.614,11.902c6.889,2.454,14.671,1.532,19.715-4.32c4.878-5.658,6.302-12.934,6.302-12.934
							s32.387,2.98,37.668,11.863c5.282,8.883,12.112,43.287,12.112,43.287l-30.28,6.427l4.117,59.268h-80.465l1.575-55.619
							l-21.905,3.128L189.652,212.606z"/>
					</g>
					<g>
						<path style="fill:#263238;" d="M278.532,235.484c-0.048-0.001-0.084-0.477-0.108-1.337c-0.024-0.86-0.036-2.104-0.035-3.64
							c0-3.073,0.049-7.317,0.147-12.003c0.097-4.688,0.224-8.931,0.351-12.003c0.063-1.536,0.127-2.779,0.186-3.638
							c0.06-0.859,0.115-1.334,0.163-1.334c0.048,0,0.084,0.475,0.108,1.334c0.024,0.859,0.036,2.102,0.035,3.639
							c-0.001,3.073-0.05,7.319-0.147,12.009c-0.097,4.689-0.224,8.933-0.351,12.005c-0.063,1.536-0.127,2.778-0.186,3.637
							C278.636,235.011,278.58,235.485,278.532,235.484z"/>
					</g>
					<g>
						<path style="fill:#263238;" d="M202.311,211.083c0.185-0.053,2.075,5.957,4.22,13.423c2.146,7.468,3.735,13.563,3.55,13.617
							c-0.185,0.053-2.074-5.956-4.22-13.424C203.715,217.232,202.126,211.136,202.311,211.083z"/>
					</g>
					<g>
						<path style="fill:#263238;" d="M299.329,181.679c0.024,0.124-1.436,0.392-3.646,1.233c-2.209,0.831-5.134,2.36-7.859,4.719
							c-2.715,2.372-4.635,5.058-5.764,7.13c-1.139,2.073-1.607,3.481-1.726,3.44c-0.046-0.015,0.037-0.376,0.228-1.022
							c0.178-0.649,0.536-1.56,1.06-2.646c1.039-2.174,2.952-4.99,5.744-7.428c2.801-2.426,5.855-3.93,8.151-4.658
							c1.148-0.369,2.1-0.597,2.768-0.683C298.952,181.664,299.321,181.632,299.329,181.679z"/>
					</g>
					<g>
						<path style="fill:#263238;" d="M197.325,195.155c0.187-0.047,0.823,1.822,1.421,4.174c0.598,2.354,0.932,4.299,0.745,4.346
							c-0.187,0.047-0.823-1.821-1.421-4.175C197.472,197.148,197.139,195.202,197.325,195.155z"/>
					</g>
				</g>
				<g>
					<path style="fill:#FFBE9D;" d="M309.437,228.244c0,0-9.07,46.059-10.108,50c-1.038,3.941-2.714,14.55-13.697,16.744
						c-14.828,2.962-73.061,0.894-73.061,0.894l10.985-13.906l50.95-14.287l6.963-33.511L309.437,228.244z"/>
				</g>
				<g>
					<path style="fill:#EB996E;" d="M222.595,274.202c0.041-0.013,0.213,0.357,0.435,1.061c0.222,0.703,0.46,1.752,0.584,3.072
						c0.264,2.615-0.102,6.438-2.081,10.032c-0.978,1.76-2.078,3.368-3.334,4.619c-1.244,1.262-2.64,2.114-3.889,2.59
						c-1.25,0.485-2.329,0.628-3.062,0.69c-0.74,0.032-1.146,0.007-1.148-0.038c-0.023-0.149,1.658-0.097,4.021-1.108
						c1.169-0.512,2.456-1.356,3.619-2.584c1.173-1.216,2.225-2.783,3.182-4.507c1.895-3.442,2.332-7.106,2.199-9.662
						C223.005,275.784,222.47,274.235,222.595,274.202z"/>
				</g>
				<g>
					<g>
						<path style="fill:#FFBE9D;" d="M173.836,219.69c0,0,8.211,27.628,11.618,39.566c3.62,12.685,11.529,41.488,28.391,36.371
							c12.826-3.892,9.051-20.514,9.051-20.514l-13.125-37.938l-10.207,1.703l-9.912-25.583L173.836,219.69z"/>
					</g>
					<g>
						<g>
							<path style="fill:#EB996E;" d="M218.411,276.306c-0.16-0.008,0.891-2.413,0.005-6.25c-0.43-1.89-1.324-4.06-2.734-6.211
								c-1.407-2.16-3.303-4.295-5.319-6.525c-2.024-2.222-3.905-4.436-5.34-6.639c-1.458-2.186-2.544-4.295-3.354-6.104
								c-0.805-1.812-1.323-3.332-1.644-4.391c-0.321-1.059-0.438-1.661-0.398-1.673c0.053-0.016,0.257,0.559,0.655,1.585
								c0.397,1.025,0.981,2.505,1.834,4.271c0.857,1.762,1.974,3.818,3.439,5.952c1.444,2.151,3.3,4.307,5.326,6.532
								c2.015,2.229,3.928,4.408,5.341,6.643c1.42,2.232,2.295,4.49,2.676,6.457c0.401,1.969,0.27,3.623,0.056,4.713
								c-0.125,0.545-0.237,0.962-0.352,1.234C218.499,276.175,218.434,276.314,218.411,276.306z"/>
						</g>
					</g>
					<g>
						<g>
							<g>
								<g>
									<g>
										<path style="fill:#FFBE9D;" d="M189.652,213.293c0,0,0.058-11.033-0.912-14.144l-7.796-17.422
											c0,0-2.008-1.231-2.967,2.243c-0.944,3.419,2.083,7.044,2.083,7.044l0.237,4.561l-3.156-2.566l-6.073-11.381
											c0,0-4.183-8.286-5.27-6.971c-1.087,1.315-0.728,3.979,1.077,7.555c1.805,3.576,4.095,8.111,4.095,8.111
											s0.617,1.439-1.532-0.65c-2.149-2.089-6.819-12.208-7.785-13.472c-0.966-1.263-2.291-4.972-4.385-4.134
											c-2.094,0.838,0.588,5.285,0.588,5.285l6.699,15.005c0,0-3.883-5.683-4.585-6.641c-0.703-0.958-2.316-4.212-3.589-5.868
											c-1.273-1.655-2.661-2.302-3.584-1.903c-1.663,0.719-1.159,2.287-1.159,2.287l7.151,12.409c0,0,3.576,5.566,3.57,5.987
											c-0.006,0.422-3.117-1.838-3.117-1.838l-2.998-3.821c0,0-3.243-5.724-4.946-5.412c-1.703,0.313-1.392,1.578-1.392,1.578
											l6.026,10.42l8.738,11.24l9.345,9.284l5.398-1.74L189.652,213.293z"/>
									</g>
								</g>
							</g>
						</g>
					</g>
					<g>
						<g>
							<path style="fill:#EB996E;" d="M172.462,211.429c0.141,0.008,0.228-1.35,0.559-3.477c0.349-2.067,1.063-5.15,3.592-7.145
								c1.106-0.888,2.418-1.388,3.632-1.385l0.447,0.001l-0.031-0.485c-0.138-2.139-0.061-4.175-0.139-5.529
								c-0.043-1.378-0.191-2.203-0.3-2.185c-0.079,0.016-0.111,0.802-0.213,2.178c-0.062,1.397-0.268,3.258-0.173,5.669
								l0.415-0.484c-1.423-0.045-2.958,0.525-4.193,1.52c-1.382,1.09-2.305,2.55-2.825,3.945c-0.531,1.398-0.734,2.722-0.838,3.819
								C172.218,210.076,172.357,211.425,172.462,211.429z"/>
						</g>
					</g>
				</g>
			</g>
		</g>
		<g>
			<g>
				<g>
					<path style="fill:#FFFFFF;" d="M315.953,354.587H186.737c-2.682,0-4.856-2.174-4.856-4.856V314.49
						c0-2.682,2.174-4.855,4.856-4.855h129.216c2.682,0,4.856,2.174,4.856,4.855v35.241
						C320.809,352.413,318.635,354.587,315.953,354.587z"/>
				</g>
				<g>
					<g>
						<path style="fill:#263238;" d="M315.953,354.587c-0.002-0.025,0.318,0.003,0.917-0.116c0.588-0.122,1.493-0.418,2.361-1.236
							c0.869-0.794,1.62-2.201,1.5-3.958c-0.007-1.753-0.015-3.772-0.024-6.043c-0.012-4.551-0.027-10.114-0.044-16.569
							c-0.006-3.23-0.013-6.684-0.02-10.345c-0.025-0.91,0.06-1.863-0.096-2.747c-0.181-0.891-0.63-1.735-1.289-2.396
							c-0.666-0.652-1.531-1.121-2.474-1.283c-0.929-0.141-1.97-0.048-2.976-0.074c-32.531,0.02-77.45,0.047-127.062,0.076
							c-1.474-0.005-2.915,0.737-3.754,1.939c-0.432,0.589-0.694,1.292-0.799,2.009c-0.09,0.703-0.036,1.506-0.051,2.262
							c0,3.063-0.001,6.107-0.001,9.128c-0.001,6.042-0.003,11.996-0.004,17.846c0,1.462-0.001,2.919-0.001,4.368
							c0,0.725-0.001,1.448-0.001,2.169c-0.008,0.696,0.117,1.374,0.404,1.995c0.556,1.242,1.677,2.217,2.986,2.558
							c0.649,0.189,1.326,0.169,2.045,0.168c0.707,0,1.413,0.001,2.116,0.001c5.628,0.003,11.137,0.006,16.512,0.009
							c21.499,0.021,40.86,0.04,57.124,0.056c16.252,0.035,29.405,0.063,38.511,0.083c4.537,0.021,8.063,0.038,10.47,0.049
							c1.188,0.011,2.096,0.02,2.723,0.026C315.639,354.569,315.953,354.587,315.953,354.587s-0.314,0.018-0.928,0.027
							c-0.627,0.006-1.535,0.014-2.723,0.026c-2.407,0.011-5.933,0.028-10.47,0.049c-9.106,0.02-22.259,0.048-38.511,0.083
							c-16.264,0.016-35.625,0.035-57.124,0.056c-5.376,0.003-10.885,0.006-16.512,0.009c-0.703,0-1.409,0.001-2.116,0.001
							c-0.69,0.001-1.452,0.026-2.177-0.184c-1.452-0.378-2.696-1.456-3.314-2.835c-0.318-0.684-0.458-1.455-0.449-2.201
							c0-0.721-0.001-1.444-0.001-2.169c-0.001-1.449-0.001-2.905-0.001-4.368c-0.001-5.85-0.003-11.804-0.004-17.846
							c0-3.021-0.001-6.064-0.001-9.128c0.018-0.773-0.044-1.512,0.056-2.335c0.117-0.799,0.41-1.582,0.89-2.238
							c0.932-1.337,2.54-2.166,4.178-2.158c49.612,0.03,94.532,0.057,127.062,0.076c1.022,0.031,2.003-0.067,3.039,0.088
							c1.016,0.179,1.945,0.686,2.658,1.389c0.706,0.713,1.186,1.62,1.377,2.578c0.165,0.977,0.068,1.897,0.093,2.813
							c-0.007,3.662-0.014,7.115-0.02,10.345c-0.017,6.456-0.032,12.018-0.044,16.569c-0.009,2.272-0.017,4.291-0.024,6.043
							c0.022,0.874-0.101,1.712-0.411,2.395c-0.304,0.686-0.729,1.231-1.172,1.64c-0.898,0.823-1.825,1.105-2.423,1.211
							c-0.305,0.048-0.537,0.07-0.693,0.065C316.032,354.592,315.953,354.587,315.953,354.587z"/>
					</g>
				</g>
			</g>
			<g>
				<path style="fill:#263238;" d="M195.745,328.533c0-2.178,1.667-3.722,3.936-3.722c1.319,0,2.382,0.48,3.077,1.35l-1.288,1.166
					c-0.45-0.542-1.002-0.839-1.687-0.839c-1.176,0-1.994,0.818-1.994,2.045c0,1.227,0.818,2.045,1.994,2.045
					c0.685,0,1.237-0.297,1.687-0.839l1.288,1.166c-0.695,0.869-1.758,1.35-3.077,1.35
					C197.411,332.254,195.745,330.71,195.745,328.533z"/>
				<path style="fill:#263238;" d="M203.512,328.921v-3.967h2.024v3.905c0,1.227,0.511,1.718,1.359,1.718
					c0.838,0,1.35-0.491,1.35-1.718v-3.905h1.994v3.967c0,2.137-1.248,3.333-3.364,3.333S203.512,331.058,203.512,328.921z"/>
				<path style="fill:#263238;" d="M214.736,330.209h-1.104v1.901h-2.024v-7.156h3.271c1.953,0,3.179,1.012,3.179,2.647
					c0,1.054-0.511,1.83-1.4,2.26l1.543,2.249h-2.167L214.736,330.209z M214.756,326.549h-1.124v2.096h1.124
					c0.838,0,1.258-0.389,1.258-1.043C216.014,326.938,215.594,326.549,214.756,326.549z"/>
				<path style="fill:#263238;" d="M222.299,330.209h-1.104v1.901h-2.024v-7.156h3.271c1.953,0,3.179,1.012,3.179,2.647
					c0,1.054-0.511,1.83-1.4,2.26l1.543,2.249h-2.167L222.299,330.209z M222.319,326.549h-1.124v2.096h1.124
					c0.838,0,1.258-0.389,1.258-1.043C223.577,326.938,223.158,326.549,222.319,326.549z"/>
				<path style="fill:#263238;" d="M232.479,330.546v1.564h-5.745v-7.156h5.612v1.564h-3.609v1.206h3.18v1.513h-3.18v1.309H232.479z
					"/>
				<path style="fill:#263238;" d="M240.411,324.954v7.156h-1.667l-3.159-3.813v3.813h-1.983v-7.156h1.666l3.159,3.814v-3.814
					H240.411z"/>
				<path style="fill:#263238;" d="M243.363,326.559h-2.198v-1.604h6.41v1.604h-2.188v5.552h-2.024V326.559z"/>
				<path style="fill:#263238;" d="M251.304,324.954h2.025v5.551h3.414v1.605h-5.439V324.954z"/>
				<path style="fill:#263238;" d="M257.058,328.533c0-2.146,1.687-3.722,3.977-3.722s3.978,1.575,3.978,3.722
					c0,2.146-1.688,3.722-3.978,3.722S257.058,330.679,257.058,328.533z M262.967,328.533c0-1.237-0.849-2.045-1.933-2.045
					c-1.083,0-1.932,0.808-1.932,2.045s0.849,2.045,1.932,2.045C262.119,330.578,262.967,329.77,262.967,328.533z"/>
				<path style="fill:#263238;" d="M265.706,328.533c0-2.178,1.666-3.722,3.936-3.722c1.319,0,2.383,0.48,3.077,1.35l-1.288,1.166
					c-0.449-0.542-1.001-0.839-1.686-0.839c-1.176,0-1.993,0.818-1.993,2.045c0,1.227,0.817,2.045,1.993,2.045
					c0.685,0,1.237-0.297,1.686-0.839l1.288,1.166c-0.694,0.869-1.758,1.35-3.077,1.35
					C267.372,332.254,265.706,330.71,265.706,328.533z"/>
				<path style="fill:#263238;" d="M278.289,330.72h-3.026l-0.563,1.391h-2.065l3.159-7.156h1.994l3.169,7.156h-2.107
					L278.289,330.72z M277.695,329.228l-0.92-2.29l-0.92,2.29H277.695z"/>
				<path style="fill:#263238;" d="M282.693,326.559h-2.198v-1.604h6.41v1.604h-2.188v5.552h-2.023V326.559z"/>
				<path style="fill:#263238;" d="M287.66,324.954h2.024v7.156h-2.024V324.954z"/>
				<path style="fill:#263238;" d="M290.757,328.533c0-2.146,1.686-3.722,3.977-3.722c2.29,0,3.978,1.575,3.978,3.722
					c0,2.146-1.688,3.722-3.978,3.722C292.443,332.254,290.757,330.679,290.757,328.533z M296.666,328.533
					c0-1.237-0.849-2.045-1.933-2.045c-1.083,0-1.932,0.808-1.932,2.045s0.849,2.045,1.932,2.045
					C295.817,330.578,296.666,329.77,296.666,328.533z"/>
				<path style="fill:#263238;" d="M306.58,324.954v7.156h-1.666l-3.159-3.813v3.813h-1.983v-7.156h1.666l3.159,3.814v-3.814H306.58
					z"/>
			</g>
			<g>
				<path style="fill:#E0E0E0;" d="M211.366,340.47c0-2.051,1.575-3.518,3.694-3.518c1.176,0,2.158,0.428,2.799,1.206l-1.011,0.933
					c-0.456-0.525-1.03-0.797-1.71-0.797c-1.273,0-2.177,0.895-2.177,2.177c0,1.283,0.904,2.178,2.177,2.178
					c0.68,0,1.254-0.272,1.71-0.807l1.011,0.933c-0.642,0.788-1.624,1.215-2.809,1.215
					C212.941,343.989,211.366,342.522,211.366,340.47z"/>
				<path style="fill:#E0E0E0;" d="M218.914,337.069h1.575v6.804h-1.575V337.069z"/>
				<path style="fill:#E0E0E0;" d="M223.51,338.352h-2.177v-1.283h5.929v1.283h-2.177v5.521h-1.574V338.352z"/>
				<path style="fill:#E0E0E0;" d="M231.244,341.462v2.41h-1.575v-2.43l-2.634-4.374h1.672l1.818,3.022l1.817-3.022h1.545
					L231.244,341.462z"/>
				<path style="fill:#E0E0E0;" d="M235.586,342.997c0,0.253-0.039,0.438-0.263,0.973l-0.554,1.4h-0.962l0.428-1.546
					c-0.321-0.126-0.525-0.428-0.525-0.826c0-0.564,0.408-0.933,0.943-0.933C235.196,342.065,235.586,342.444,235.586,342.997z"/>
				<path style="fill:#E0E0E0;" d="M239.043,340.47c0-2.051,1.575-3.518,3.694-3.518c1.176,0,2.158,0.428,2.799,1.206l-1.011,0.933
					c-0.457-0.525-1.031-0.797-1.711-0.797c-1.273,0-2.177,0.895-2.177,2.177c0,1.283,0.904,2.178,2.177,2.178
					c0.68,0,1.254-0.272,1.711-0.807l1.011,0.933c-0.642,0.788-1.624,1.215-2.809,1.215
					C240.617,343.989,239.043,342.522,239.043,340.47z"/>
				<path style="fill:#E0E0E0;" d="M246.017,340.47c0-2.021,1.575-3.518,3.723-3.518c2.139,0,3.723,1.487,3.723,3.518
					c0,2.032-1.584,3.519-3.723,3.519C247.592,343.989,246.017,342.492,246.017,340.47z M251.869,340.47
					c0-1.292-0.914-2.177-2.129-2.177c-1.215,0-2.129,0.885-2.129,2.177c0,1.293,0.914,2.178,2.129,2.178
					C250.955,342.648,251.869,341.763,251.869,340.47z"/>
				<path style="fill:#E0E0E0;" d="M254.586,340.878v-3.81h1.575v3.752c0,1.292,0.564,1.827,1.516,1.827
					c0.963,0,1.517-0.535,1.517-1.827v-3.752h1.556v3.81c0,2.003-1.147,3.11-3.081,3.11
					C255.733,343.989,254.586,342.881,254.586,340.878z"/>
				<path style="fill:#E0E0E0;" d="M268.54,337.069v6.804h-1.293l-3.392-4.131v4.131h-1.556v-6.804h1.303l3.383,4.131v-4.131H268.54
					z"/>
				<path style="fill:#E0E0E0;" d="M271.558,338.352h-2.177v-1.283h5.929v1.283h-2.177v5.521h-1.575V338.352z"/>
				<path style="fill:#E0E0E0;" d="M280.487,343.872l-1.312-1.896h-0.078h-1.37v1.896h-1.575v-6.804h2.945
					c1.817,0,2.955,0.942,2.955,2.469c0,1.02-0.516,1.769-1.4,2.148l1.526,2.186H280.487z M279.009,338.352h-1.282v2.371h1.282
					c0.963,0,1.448-0.447,1.448-1.186C280.458,338.789,279.972,338.352,279.009,338.352z"/>
				<path style="fill:#E0E0E0;" d="M286.461,341.462v2.41h-1.574v-2.43l-2.634-4.374h1.672l1.817,3.022l1.817-3.022h1.546
					L286.461,341.462z"/>
			</g>
		</g>
	</g>
</g>
</svg>
